<?xml version="1.0" encoding="utf-8"?>
<!-- Generator: Adobe Illustrator 19.1.0, SVG Export Plug-In . SVG Version: 6.00 Build 0)  -->
<svg version="1.1" id="Layer_1" xmlns="http://www.w3.org/2000/svg" xmlns:xlink="http://www.w3.org/1999/xlink" x="0px" y="0px"
	 viewBox="0 0 43.8 259" style="enable-background:new 0 0 43.8 259;" xml:space="preserve">
<style type="text/css">
	.st0{fill:#FFFFFF;}
	.st1{fill-rule:evenodd;clip-rule:evenodd;fill:#FFFFFF;}
</style>
<g>
	<path class="st0" d="M1.9,224.8h27.8c0.5,0,1,0.2,1.3,0.5c0.3,0.3,0.5,0.8,0.5,1.3v30.5c0,0.5-0.2,1-0.5,1.3
		c-0.3,0.3-0.8,0.5-1.3,0.5H1.9c-0.5,0-1-0.2-1.3-0.5c-0.3-0.3-0.5-0.8-0.5-1.3v-30.5c0-0.5,0.2-1,0.5-1.3
		C0.9,225,1.4,224.8,1.9,224.8L1.9,224.8z M29.6,226.4H1.9c-0.1,0-0.1,0-0.1,0.1c0,0-0.1,0.1-0.1,0.1v30.5c0,0.1,0,0.1,0.1,0.1
		c0,0,0.1,0.1,0.1,0.1h27.8c0.1,0,0.1,0,0.1-0.1c0,0,0.1-0.1,0.1-0.1v-30.5c0-0.1,0-0.1-0.1-0.1C29.7,226.5,29.7,226.4,29.6,226.4z"
		/>
	<path class="st0" d="M9.7,219h12.1h0.8v0.8v5.4v0.8h-0.8H9.7H8.9v-0.8v-5.4V219H9.7L9.7,219z M21,220.7H10.5v3.8H21V220.7z"/>
	<path class="st0" d="M7.2,228.9h17.2h0.8v0.8v6.3v0.8h-0.8H7.2H6.3v-0.8v-6.3v-0.8H7.2L7.2,228.9z M23.5,230.6H8v4.7h15.5V230.6z"
		/>
	<rect x="6.3" y="239.6" class="st1" width="1.9" height="1.9"/>
	<rect x="10.5" y="239.6" class="st1" width="1.9" height="1.9"/>
	<rect x="14.8" y="239.6" class="st1" width="1.9" height="1.9"/>
	<rect x="19.1" y="239.6" class="st1" width="1.9" height="1.9"/>
	<rect x="23.3" y="239.6" class="st1" width="1.9" height="1.9"/>
	<rect x="6.3" y="243.3" class="st1" width="1.9" height="1.9"/>
	<rect x="10.5" y="243.3" class="st1" width="1.9" height="1.9"/>
	<rect x="14.8" y="243.3" class="st1" width="1.9" height="1.9"/>
	<rect x="19.1" y="243.3" class="st1" width="1.9" height="1.9"/>
	<rect x="23.3" y="243.3" class="st1" width="1.9" height="1.9"/>
	<rect x="6.3" y="247" class="st1" width="1.9" height="1.9"/>
	<rect x="10.5" y="247" class="st1" width="1.9" height="1.9"/>
	<rect x="14.8" y="247" class="st1" width="1.9" height="1.9"/>
	<rect x="19.1" y="247" class="st1" width="1.9" height="1.9"/>
	<rect x="23.3" y="247" class="st1" width="1.9" height="1.9"/>
	<rect x="6.3" y="250.7" class="st1" width="1.9" height="1.9"/>
	<rect x="10.5" y="250.7" class="st1" width="1.9" height="1.9"/>
	<rect x="14.8" y="250.7" class="st1" width="1.9" height="1.9"/>
	<rect x="19.1" y="250.7" class="st1" width="1.9" height="1.9"/>
	<rect x="23.3" y="250.7" class="st1" width="1.9" height="1.9"/>
	<rect x="8.5" y="254.3" class="st0" width="14.5" height="1.7"/>
</g>
<g>
	<path class="st0" d="M2.4,109.5h20.9c0.6,0,1.2,0.3,1.7,0.7c0.4,0.4,0.7,1,0.7,1.7v35.3c0,0.6-0.3,1.2-0.7,1.7
		c-0.4,0.4-1,0.7-1.7,0.7H2.4c-0.6,0-1.2-0.3-1.7-0.7c-0.4-0.4-0.7-1-0.7-1.7v-35.3c0-0.6,0.3-1.2,0.7-1.7
		C1.1,109.8,1.7,109.5,2.4,109.5L2.4,109.5z M23.2,111.1H2.4c-0.2,0-0.4,0.1-0.5,0.2c-0.1,0.1-0.2,0.3-0.2,0.5v35.3
		c0,0.2,0.1,0.4,0.2,0.5c0.1,0.1,0.3,0.2,0.5,0.2h20.9c0.2,0,0.4-0.1,0.5-0.2c0.1-0.1,0.2-0.3,0.2-0.5v-35.3c0-0.2-0.1-0.4-0.2-0.5
		C23.6,111.2,23.4,111.1,23.2,111.1z"/>
	<rect x="0.8" y="141.9" class="st0" width="23.9" height="1.6"/>
	<path class="st0" d="M5.2,114.8l-0.6,4.8c0.4,0.6,0.7,0.9,1,0.9c0.3,0,0.7-0.4,1.1-1.1l0.7-1.2l0.7,1.2c0.5,0.7,0.8,1.1,1.1,1.1
		c0.3,0,0.7-0.4,1.1-1.1l0.7-1.2l0.7,1.2c0.4,0.7,0.8,1.1,1.1,1.1c0.3,0,0.7-0.4,1.1-1.1l0.7-1.2l0.7,1.2c0.5,0.7,0.8,1.1,1.1,1.1
		c0.3,0,0.7-0.4,1.1-1.1l0.7-1.2l0.7,1.2c0.4,0.7,0.8,1.1,1.1,1.1c0.3,0,0.6-0.3,1-0.9l-0.6-4.5l1.6-0.2l0.7,4.8l-0.1,0.5
		c-0.8,1.3-1.6,1.9-2.5,1.9c-0.6,0-1.2-0.3-1.8-0.9c-0.6,0.6-1.2,0.9-1.8,0.9c-0.6,0-1.3-0.3-1.8-0.9c-0.6,0.6-1.2,0.9-1.8,0.9
		c-0.6,0-1.2-0.3-1.8-0.9c-0.6,0.6-1.2,0.9-1.8,0.9c-0.6,0-1.3-0.3-1.8-0.9c-0.6,0.6-1.2,0.9-1.8,0.9c-0.9,0-1.7-0.6-2.5-1.9
		l-0.1-0.5l0.6-5L5.2,114.8z"/>
	<rect x="0.8" y="113.9" class="st0" width="23.9" height="1.6"/>
	<circle class="st1" cx="12.6" cy="145.8" r="1"/>
	<rect x="11.2" y="111.7" class="st0" width="3.1" height="1.6"/>
	<polygon class="st0" points="5.4,120.6 5.4,129.5 20.2,129.5 20.2,120.8 21.9,120.8 21.9,130.3 21.9,131.1 21,131.1 4.5,131.1 
		3.7,131.1 3.7,130.3 3.7,120.6 	"/>
	<rect x="10.3" y="120.1" class="st0" width="1.6" height="10.2"/>
</g>
<g>
	<path class="st0" d="M1,0h41.9h1v1V39v1h-1H1H0v-1V1V0H1L1,0z M41.9,1.9h-40v36.2h40V1.9z"/>
	<rect x="1" y="5.7" class="st0" width="41.9" height="1.9"/>
	<circle class="st1" cx="36.7" cy="3.8" r="0.9"/>
	<circle class="st1" cx="33.3" cy="3.8" r="0.9"/>
	<circle class="st1" cx="29.9" cy="3.8" r="0.9"/>
	<path class="st0" d="M6.9,6.8L5.7,16c0.9,1.4,1.7,2.1,2.4,2.1c0.8,0,1.7-0.8,2.6-2.4l0.8-1.3l0.8,1.3c1,1.6,1.9,2.4,2.6,2.4
		c0.8,0,1.6-0.8,2.6-2.4l0.8-1.4l0.8,1.4c0.9,1.6,1.8,2.4,2.6,2.4c0.8,0,1.7-0.8,2.6-2.4l0.8-1.3l0.8,1.3c1,1.6,1.9,2.4,2.6,2.4
		c0.8,0,1.6-0.8,2.6-2.4l0.8-1.4l0.8,1.4c0.9,1.6,1.8,2.4,2.6,2.4c0.7,0,1.6-0.7,2.5-2.1l-1.2-8.8L38.8,7l1.2,9.1l-0.1,0.6
		c-1.3,2.2-2.8,3.3-4.3,3.3c-1.2,0-2.3-0.7-3.4-2.1C31.1,19.3,30,20,28.8,20c-1.2,0-2.4-0.7-3.5-2.1c-1.1,1.4-2.3,2.1-3.5,2.1
		c-1.2,0-2.3-0.7-3.4-2.1c-1.1,1.4-2.2,2.1-3.4,2.1c-1.2,0-2.4-0.7-3.5-2.1C10.5,19.3,9.4,20,8.2,20c-1.5,0-2.9-1.1-4.2-3.3
		l-0.1-0.6L5,6.6L6.9,6.8z"/>
	<rect x="8.6" y="26.7" class="st0" width="26.7" height="1.9"/>
	<rect x="8.6" y="31.4" class="st0" width="26.7" height="1.9"/>
</g>
</svg>
