<?xml version="1.0" encoding="utf-8"?>
<!-- Generator: Adobe Illustrator 16.0.0, SVG Export Plug-In . SVG Version: 6.00 Build 0)  -->
<!DOCTYPE svg PUBLIC "-//W3C//DTD SVG 1.1//EN" "http://www.w3.org/Graphics/SVG/1.1/DTD/svg11.dtd">
<svg version="1.1" id="Layer_1" xmlns="http://www.w3.org/2000/svg" xmlns:xlink="http://www.w3.org/1999/xlink" x="0px" y="0px"
	 width="14.234px" height="14.234px" viewBox="0 0 14.234 14.234" enable-background="new 0 0 14.234 14.234" xml:space="preserve">
<path fill="#B2B3B3" d="M12.931,5.997l-4.2,0.007l0.007-4.2c0.001-0.267-0.094-0.497-0.283-0.687
	c-0.19-0.19-0.419-0.284-0.687-0.283L5.825,0.836C5.559,0.837,5.329,0.934,5.139,1.125c-0.191,0.19-0.288,0.42-0.287,0.685
	L4.843,6.012L0.642,6.02c-0.266,0-0.495,0.097-0.686,0.288c-0.19,0.19-0.287,0.419-0.288,0.686l-0.002,1.943
	c-0.001,0.267,0.093,0.495,0.283,0.686c0.19,0.189,0.419,0.285,0.686,0.284l4.201-0.008l-0.008,4.2
	c-0.001,0.267,0.093,0.495,0.284,0.687c0.189,0.188,0.419,0.285,0.686,0.283l1.942-0.003c0.267-0.002,0.497-0.097,0.687-0.287
	s0.286-0.421,0.287-0.687l0.008-4.201l4.201-0.009c0.266,0,0.496-0.096,0.687-0.286c0.191-0.19,0.286-0.421,0.287-0.688l0.003-1.942
	c0.002-0.267-0.094-0.498-0.283-0.687C13.426,6.089,13.196,5.995,12.931,5.997L12.931,5.997z"/>
</svg>
