<?xml version="1.0" encoding="utf-8"?>
<!-- Generator: Adobe Illustrator 16.0.0, SVG Export Plug-In . SVG Version: 6.00 Build 0)  -->
<!DOCTYPE svg PUBLIC "-//W3C//DTD SVG 1.1//EN" "http://www.w3.org/Graphics/SVG/1.1/DTD/svg11.dtd">
<svg version="1.1" id="Layer_1" xmlns="http://www.w3.org/2000/svg" xmlns:xlink="http://www.w3.org/1999/xlink" x="0px" y="0px"
	 width="42.99px" height="31.975px" viewBox="0 0 42.99 31.975" enable-background="new 0 0 42.99 31.975" xml:space="preserve">
<path fill-rule="evenodd" clip-rule="evenodd" fill="#64CDF5" d="M2.071,4.056l5.865,0.081l6.88,18.854
	c0.104,0.286,0.265,0.533,0.463,0.737c0.375,0.424,0.27,0.577,0.485,0.748l19.876-0.057c0.224-0.621,0.289-0.982,0.72-2.02
	c0.437-1.053,0.982-2.051,0.768-2.064l-18.937-0.053l-0.969-2.658l20.974-0.004c0.295-0.803,0.558-1.108,0.941-2.074
	c0.42-1.061,0.986-2.1,0.764-2.084l-24.189,0.026l-1.055-2.892h26.484c0.346-0.844,0.437-0.61,0.87-1.752
	c0.405-1.066,0.736-1.527,0.982-2.437L13.148,6.46l-1.855-5.084c-0.299-0.818-1.057-1.331-1.87-1.353C9.32,0.008,9.214,0,9.107,0
	L0.039,0.029c-0.206,0.021,0.37,1.124,0.963,2.219C1.543,3.251,1.961,4.018,2.071,4.056z M31.399,26.05
	c-1.619,0-2.933,1.326-2.933,2.962c0,1.637,1.313,2.963,2.933,2.963s2.933-1.326,2.933-2.963
	C34.332,27.376,33.019,26.05,31.399,26.05z M16.146,25.991c-1.619,0-2.932,1.326-2.932,2.962s1.313,2.963,2.932,2.963
	c1.62,0,2.933-1.327,2.933-2.963S17.766,25.991,16.146,25.991z"/>
</svg>
