<?xml version="1.0" encoding="utf-8"?>
<!-- Generator: Adobe Illustrator 16.0.0, SVG Export Plug-In . SVG Version: 6.00 Build 0)  -->
<!DOCTYPE svg PUBLIC "-//W3C//DTD SVG 1.1//EN" "http://www.w3.org/Graphics/SVG/1.1/DTD/svg11.dtd">
<svg version="1.1" id="Layer_1" xmlns="http://www.w3.org/2000/svg" xmlns:xlink="http://www.w3.org/1999/xlink" x="0px" y="0px"
	 width="12.285px" height="10.01px" viewBox="0 0 12.285 10.01" enable-background="new 0 0 12.285 10.01" xml:space="preserve">
<path fill="#B2B3B3" d="M12.133,8.156c-0.102-0.1-0.221-0.148-0.359-0.148H0.512c-0.139,0-0.259,0.049-0.36,0.148
	C0.05,8.255,0,8.372,0,8.508v1.001c0,0.136,0.05,0.253,0.152,0.353c0.101,0.099,0.221,0.148,0.36,0.148h11.262
	c0.139,0,0.258-0.05,0.359-0.148c0.102-0.1,0.152-0.217,0.152-0.353V8.508C12.285,8.372,12.234,8.255,12.133,8.156z M12.133,4.152
	c-0.102-0.099-0.221-0.149-0.359-0.149H0.512c-0.139,0-0.259,0.051-0.36,0.149C0.05,4.251,0,4.368,0,4.504v1.001
	c0,0.136,0.05,0.253,0.152,0.352c0.101,0.099,0.221,0.149,0.36,0.149h11.262c0.139,0,0.258-0.051,0.359-0.149
	s0.152-0.216,0.152-0.352V4.504C12.285,4.368,12.234,4.251,12.133,4.152z M12.133,0.147C12.031,0.049,11.912,0,11.773,0H0.512
	c-0.139,0-0.259,0.049-0.36,0.147C0.05,0.247,0,0.364,0,0.5v1.001c0,0.136,0.05,0.253,0.152,0.352c0.101,0.1,0.221,0.148,0.36,0.148
	h11.262c0.139,0,0.258-0.049,0.359-0.148c0.102-0.099,0.152-0.216,0.152-0.352V0.5C12.285,0.364,12.234,0.247,12.133,0.147z"/>
</svg>
