<?xml version="1.0" encoding="utf-8"?>
<!-- Generator: Adobe Illustrator 19.1.0, SVG Export Plug-In . SVG Version: 6.00 Build 0)  -->
<svg version="1.1" id="Layer_1" xmlns="http://www.w3.org/2000/svg" xmlns:xlink="http://www.w3.org/1999/xlink" x="0px" y="0px"
	 viewBox="0 0 75 75" style="enable-background:new 0 0 75 75;" xml:space="preserve">
<style type="text/css">
	.st0{fill:none;stroke:#167DBA;stroke-width:3;stroke-miterlimit:10;}
	.st1{fill-rule:evenodd;clip-rule:evenodd;fill:#167DBA;}
</style>
<g>
	<circle class="st0" cx="37.5" cy="37.5" r="36"/>
	<g>
		<path class="st1" d="M55.6,24c0.7,0,1.3,0.6,1.3,1.3c0,0.7-0.6,1.3-1.3,1.3c-0.7,0-1.3-0.6-1.3-1.3C54.3,24.6,54.9,24,55.6,24
			L55.6,24z M18.1,51.4h8.2c0.2,0.7,0.6,1.4,1,2H17.1c-0.6,0-1-0.5-1-1c0-10.2,0-19.2,0-29.3c0-0.6,0.5-1,1-1c13.3,0,27.6,0,40.9,0
			c0.6,0,1,0.5,1,1v29.3c0,0.6-0.5,1-1,1H47.6c0.1-0.3,0.2-0.7,0.2-1c0-0.4-0.1-0.7-0.2-1h9.3V28.6c-12.6,0-26.2,0-38.9,0
			C18.1,36.6,18.1,43.4,18.1,51.4L18.1,51.4z M47.5,24c0.7,0,1.3,0.6,1.3,1.3c0,0.7-0.6,1.3-1.3,1.3c-0.7,0-1.3-0.6-1.3-1.3
			C46.2,24.6,46.8,24,47.5,24L47.5,24z M51.6,24c0.7,0,1.3,0.6,1.3,1.3c0,0.7-0.6,1.3-1.3,1.3c-0.7,0-1.3-0.6-1.3-1.3
			C50.2,24.6,50.8,24,51.6,24L51.6,24z"/>
		<path class="st1" d="M45.5,46.8l-14,1.6C30.6,48.4,30,49,30,49.9c0,0.8,0.6,1.5,1.5,1.5h13.2c0.6,0,1,0.4,1,1c0,0.6-0.5,1-1,1
			H31.5c-1.9,0-3.5-1.6-3.5-3.5c0-1.4,0.8-2.7,2.1-3.3l-2.3-10.3h-1.7c-0.6,0-1-0.4-1-1c0-0.6,0.5-1,1-1h2.5c0.5,0,0.9,0.4,1,0.9
			l0.5,2.2l17,0c0.7,0,1.2,0.6,1,1.2L46.3,46C46.2,46.4,45.9,46.7,45.5,46.8L45.5,46.8z M43.2,54.9c-1.1,0-2,0.9-2,2
			c0,1.1,0.9,2,2,2c1.1,0,2-0.9,2-2C45.2,55.8,44.3,54.9,43.2,54.9L43.2,54.9z M31.3,54.9c-1.1,0-2,0.9-2,2c0,1.1,0.9,2,2,2
			c1.1,0,2-0.9,2-2C33.3,55.8,32.4,54.9,31.3,54.9L31.3,54.9z"/>
	</g>
</g>
<text transform="matrix(1 0 0 1 306 396)" style="font-family:'MyriadPro-Regular'; font-size:12px;">Easily integrate orders and shipping</text>
</svg>
