<?xml version="1.0" encoding="utf-8"?>
<!-- Generator: Adobe Illustrator 16.0.0, SVG Export Plug-In . SVG Version: 6.00 Build 0)  -->
<!DOCTYPE svg PUBLIC "-//W3C//DTD SVG 1.1//EN" "http://www.w3.org/Graphics/SVG/1.1/DTD/svg11.dtd">
<svg version="1.1" id="Layer_1" xmlns="http://www.w3.org/2000/svg" xmlns:xlink="http://www.w3.org/1999/xlink" x="0px" y="0px"
	 width="16.002px" height="16.006px" viewBox="0 0 16.002 16.006" enable-background="new 0 0 16.002 16.006" xml:space="preserve">
<g>
	<g>
		<path fill="#666766" d="M15.782,2.34l-2.125-2.127c-0.283-0.283-0.778-0.284-1.063,0L1.438,11.377
			c-0.225,0.227-0.272,0.56-0.151,0.835l-1.262,3.283c-0.053,0.139-0.02,0.296,0.085,0.4c0.072,0.072,0.168,0.11,0.266,0.11
			c0.046,0,0.091-0.008,0.135-0.024l3.279-1.263c0.096,0.042,0.198,0.068,0.305,0.068c0.201,0,0.39-0.078,0.531-0.22L15.782,3.402
			C16.075,3.109,16.075,2.633,15.782,2.34z M1.847,12.85l1.307,1.309L1.03,14.976L1.847,12.85z M4.094,14.035
			C4.094,14.035,4.094,14.035,4.094,14.035v0.376V14.035l-2.125-2.126L13.126,0.745l0.797,0.797L2.766,12.706l0.531,0.531
			L14.454,2.074l0.797,0.797L4.094,14.035z"/>
	</g>
</g>
</svg>
