<?xml version="1.0" encoding="utf-8"?>
<!-- Generator: Adobe Illustrator 19.1.0, SVG Export Plug-In . SVG Version: 6.00 Build 0)  -->
<svg version="1.1" id="Layer_1" xmlns="http://www.w3.org/2000/svg" xmlns:xlink="http://www.w3.org/1999/xlink" x="0px" y="0px"
	 viewBox="-72 163 75 75" style="enable-background:new -72 163 75 75;" xml:space="preserve">
<style type="text/css">
	.st0{fill:none;stroke:#00ABA9;stroke-width:3;stroke-miterlimit:10;}
	.st1{fill:#00ABA9;}
</style>
<g>
	<circle class="st0" cx="-34.5" cy="200.5" r="36"/>
	<path class="st1" d="M-27.7,189.6l-3.2-1.3c-0.5-0.2-1-0.7-1.1-1.3l-0.3-1.3c-0.1-0.4-0.5-0.7-0.9-0.7h-2.5c-0.4,0-0.8,0.3-0.9,0.7
		l-0.3,1.3c-0.1,0.6-0.6,1.1-1.1,1.3l-3.3,1.3c-0.4,0.2-0.7,0.6-0.7,1v3c0,0.6,0.5,1.1,1.1,1.1c1.3,1.7,1.7,3.9,1.3,6l-0.8,3.4
		c-0.1,0.4,0,0.9,0.3,1.2c0.3,0.3,0.7,0.5,1.1,0.5h3.1v7.6c-1.9,0.2-3.3,0.6-3.3,1.2c0,0.7,2.1,1.3,4.8,1.3c2.6,0,4.8-0.6,4.8-1.3
		c0-0.5-1.4-1-3.2-1.2V206h3c0.4,0,0.8-0.2,1.1-0.5c0.3-0.3,0.4-0.8,0.3-1.2l-0.8-3.4c-0.5-2.1,0-4.3,1.3-6c0.6,0,1.2-0.5,1.2-1.1
		v-3C-27,190.2-27.3,189.8-27.7,189.6z"/>
</g>
<text transform="matrix(1 0 0 1 -34 918)" style="font-family:'MyriadPro-Regular'; font-size:12px;">Easily integrate orders and shipping</text>
</svg>
