<?xml version="1.0" encoding="utf-8"?>
<!-- Generator: Adobe Illustrator 16.0.0, SVG Export Plug-In . SVG Version: 6.00 Build 0)  -->
<!DOCTYPE svg PUBLIC "-//W3C//DTD SVG 1.1//EN" "http://www.w3.org/Graphics/SVG/1.1/DTD/svg11.dtd">
<svg version="1.1" id="Layer_1" xmlns="http://www.w3.org/2000/svg" xmlns:xlink="http://www.w3.org/1999/xlink" x="0px" y="0px"
	 width="36px" height="36px" viewBox="0 0 36 36" enable-background="new 0 0 36 36" xml:space="preserve">
<g>
	<g>
		<g>
			<path fill="#666766" d="M27.2,11.834L25.803,8l-9.964,3.834H8V26h20V11.834H27.2z M25.311,9.083l1.002,2.752h-0.887l-0.616-1.692
				l-4.488,1.648c-0.027,0.01-0.048,0.029-0.071,0.044h-2.091L25.311,9.083z M24.539,11.834h-1.92l1.693-0.622L24.539,11.834z
				 M27.167,25.167H8.833V12.668h18.334V25.167z M26.333,13.501H9.667v10.833h16.666V13.501z M10.5,14.334h1.625
				c-0.167,0.815-0.81,1.458-1.625,1.625V14.334z M10.5,23.5v-1.624c0.815,0.166,1.458,0.809,1.625,1.624H10.5z M25.5,23.5h-2.041
				c0.194-0.95,1.035-1.666,2.041-1.666V23.5z M25.5,21c-1.466,0-2.67,1.09-2.875,2.5h-9.667c-0.185-1.272-1.186-2.273-2.458-2.458
				v-4.25c1.272-0.185,2.273-1.185,2.458-2.458h9.667c0.204,1.41,1.409,2.5,2.875,2.5V21z M25.5,16.001
				c-1.006,0-1.848-0.717-2.041-1.667H25.5V16.001z M18.324,18.611l-0.005-1.26c0.129,0.091,0.2,0.199,0.211,0.222
				c0.102,0.205,0.349,0.289,0.555,0.19c0.207-0.1,0.294-0.351,0.194-0.558c-0.117-0.243-0.445-0.613-0.964-0.753l-0.002-0.397
				c-0.001-0.23-0.187-0.471-0.416-0.471c-0.001,0-0.002,0-0.002,0c-0.23,0-0.416,0.255-0.415,0.485l0.002,0.397
				c-0.505,0.161-0.898,0.567-0.993,1.112c-0.119,0.695,0.276,1.295,1.005,1.561l0.006,1.354c-0.24-0.105-0.346-0.266-0.35-0.271
				c-0.094-0.209-0.34-0.278-0.551-0.185c-0.21,0.093-0.305,0.321-0.211,0.532c0.112,0.252,0.485,0.646,1.115,0.785l0.002,0.459
				c0.001,0.229,0.187,0.438,0.417,0.438c0,0,0.001,0,0.002,0c0.229,0,0.415-0.238,0.414-0.469l-0.002-0.433
				c0.5-0.144,0.9-0.548,0.988-1.09C19.368,19.989,19.401,19.181,18.324,18.611z M17.31,17.729c0.02-0.117,0.082-0.233,0.176-0.326
				l0.003,0.802C17.347,18.078,17.277,17.917,17.31,17.729z M18.332,20.427l-0.004-0.789c0.132,0.151,0.202,0.314,0.174,0.487
				C18.482,20.246,18.417,20.348,18.332,20.427z"/>
		</g>
	</g>
	<circle fill="none" stroke="#E9E9E9" stroke-width="2" stroke-miterlimit="10" cx="18" cy="18" r="17"/>
</g>
</svg>
