<?xml version="1.0" encoding="utf-8"?>
<!-- Generator: Adobe Illustrator 19.1.0, SVG Export Plug-In . SVG Version: 6.00 Build 0)  -->
<svg version="1.1" id="Layer_1" xmlns="http://www.w3.org/2000/svg" xmlns:xlink="http://www.w3.org/1999/xlink" x="0px" y="0px"
	 viewBox="-72 163 75 75" style="enable-background:new -72 163 75 75;" xml:space="preserve">
<style type="text/css">
	.st0{fill:none;stroke:#00ABA9;stroke-width:3;stroke-miterlimit:10;}
	.st1{fill:#00ABA9;}
</style>
<g>
	<circle class="st0" cx="-34.5" cy="200.5" r="36"/>
</g>
<text transform="matrix(1 0 0 1 -34 918)" style="font-family:'MyriadPro-Regular'; font-size:12px;">Easily integrate orders and shipping</text>
<g>
	<g>
		<path class="st1" d="M-24,193.3c0,0-0.1,0-0.1,0l-3.3,0.2l0.2-3.3c0-1-0.4-2-1.2-2.6v-1.1h-19.1c-0.5,0-0.9,0.4-0.9,0.9v3.1h12
			c-0.1,0.3-0.2,0.6-0.2,0.9c-0.1,1.1,0.4,2.2,1.4,2.8l0.5,0.4h-13.6v19.1c0,0.5,0.4,0.9,0.9,0.9h19.1v-13.6l0.4,0.5
			c0.6,0.9,1.5,1.4,2.5,1.4c0.1,0,0.1,0,0.2,0c0.3,0,0.6-0.1,0.9-0.2v12h3.1c0.5,0,0.9-0.4,0.9-0.9v-19.1h-1.1
			C-22.2,193.7-23,193.3-24,193.3z M-27.8,194.6c0.2,0.2,0.2,0.4,0.2,0.6c0,0.2-0.1,0.4-0.2,0.6l-1.1,1.1c-0.3,0.3-0.9,0.3-1.2,0
			l-0.8-0.8c-0.2-0.2-0.2-0.4-0.2-0.6s0.1-0.4,0.2-0.6l1.1-1.1c0.2-0.2,0.4-0.2,0.6-0.2c0.2,0,0.4,0.1,0.6,0.2L-27.8,194.6z
			 M-22.1,197.2l-1.6,3.4c-0.3,0.7-1,1.1-1.7,1.2c-0.1,0-0.1,0-0.1,0c-0.7,0-1.3-0.3-1.7-0.9l-1.5-2.2l-2.9,6.8
			c-0.1,0.2-0.2,0.3-0.4,0.3h0c-0.2,0-0.4-0.1-0.4-0.3L-33,204l-1.4,0.5c-0.1,0-0.1,0-0.2,0c-0.1,0-0.2,0-0.3-0.1l0,0
			c-0.1-0.1-0.1-0.4-0.1-0.5l3.4-6.3l-6.3,3.4c-0.1,0-0.1,0.1-0.2,0.1c-0.1,0-0.2,0-0.3-0.1l0,0c-0.1-0.1-0.2-0.3-0.1-0.5l0.5-1.4
			l-1.4-0.5c-0.2-0.1-0.3-0.2-0.3-0.4c0-0.2,0.1-0.4,0.3-0.4l6.8-2.9l-2.2-1.5c-0.6-0.4-1-1.1-0.9-1.9c0.1-0.7,0.5-1.4,1.2-1.7
			l3.4-1.6c0.3-0.1,0.6-0.2,0.9-0.2c0.4,0,0.8,0.1,1.1,0.3c0.6,0.4,0.9,1.1,0.9,1.8l-0.1,2.6c-0.7-0.3-1.5-0.2-2.1,0.4l-1.1,1.1
			c-0.4,0.4-0.5,0.8-0.5,1.3c0,0.5,0.2,1,0.5,1.3l0.8,0.8c0.4,0.4,0.8,0.5,1.3,0.5c0.5,0,1-0.2,1.3-0.5l1.1-1.1
			c0.4-0.4,0.5-0.8,0.5-1.3c0-0.3-0.1-0.5-0.2-0.8l2.6-0.1c0,0,0.1,0,0.1,0c0.7,0,1.3,0.3,1.7,0.9
			C-21.9,195.8-21.8,196.6-22.1,197.2z M-21.4,186.5h-3.1v4h4v-3.1C-20.5,186.9-20.9,186.5-21.4,186.5z"/>
	</g>
</g>
</svg>
