<?xml version="1.0" encoding="utf-8"?>
<!-- Generator: Adobe Illustrator 19.1.0, SVG Export Plug-In . SVG Version: 6.00 Build 0)  -->
<svg version="1.1" id="Layer_1" xmlns="http://www.w3.org/2000/svg" xmlns:xlink="http://www.w3.org/1999/xlink" x="0px" y="0px"
	 viewBox="0 0 75 75" style="enable-background:new 0 0 75 75;" xml:space="preserve">
<style type="text/css">
	.st0{fill:none;stroke:#167DBA;stroke-width:3;stroke-miterlimit:10;}
	.st1{fill-rule:evenodd;clip-rule:evenodd;fill:#167DBA;}
	.st2{fill:#167DBA;}
</style>
<g>
	<circle class="st0" cx="37.5" cy="37.5" r="36"/>
	<g>
		<path class="st1" d="M44.5,35.1c0-2.2,2-3.4,3.9-3.4v-0.9h1.7v0.9c1.7,0,3.2,1,3.6,2.6c0.1,0.4-0.2,0.7-0.6,0.7h-1.6
			c-0.3,0-0.5-0.2-0.6-0.4c-0.1-0.2-0.1-0.4-0.3-0.5c-0.5-0.5-2.5-0.5-3.1-0.1c-0.4,0.3-0.5,1.1,0,1.4c0.5,0.4,2.4,0.7,3.2,1
			c1,0.3,1.7,0.7,2.2,1.1c0.6,0.6,0.9,1.3,0.9,2.2c0,2.5-1.8,3.4-4,3.5v1.3h-1.7v-1.3c-1.9-0.1-3.5-1.2-3.8-3c0-0.2,0-0.3,0.1-0.5
			c0.1-0.1,0.3-0.2,0.4-0.2h1.7c0.3,0,0.5,0.2,0.6,0.4c0.1,0.3,0.2,0.6,0.4,0.7c0.5,0.7,2.7,0.5,3.2,0.1c0.5-0.3,0.5-1.1,0-1.5
			c-0.3-0.3-0.8-0.4-1.4-0.6C47.4,38.2,44.5,37.8,44.5,35.1L44.5,35.1z M48.8,25.2c6.9,0,12.4,5.6,12.4,12.5
			c0,6.9-5.6,12.5-12.4,12.5c-1.6,0-3.1-0.3-4.6-0.9c0.2-1,0.3-2,0.3-3.1c0-5.6-2.8-10.6-7.1-13.6C39.4,28.2,43.8,25.2,48.8,25.2
			L48.8,25.2z"/>
		<path class="st2" d="M22.5,43.1c0-2.5,2.2-4,4.6-4v-1.3h2v1.3c2.3,0,3.9,1.3,4.2,3.4c0.1,0.4-0.2,0.7-0.6,0.7h-2
			c-0.3,0-0.5-0.2-0.6-0.5c-0.2-1.1-0.9-1.3-2.1-1.3c-0.8,0-1.5,0.1-1.8,0.3c-0.5,0.4-0.5,1.3,0,1.7c0.6,0.5,2.8,0.8,3.8,1.1
			c1.2,0.4,2,0.8,2.6,1.3c0.7,0.7,1.1,1.5,1.1,2.7c0,2.8-2.2,4.2-4.7,4.3v1.5h-2v-1.5c-2.3-0.1-4.2-1.8-4.6-4
			c-0.1-0.4,0.2-0.7,0.6-0.7h2.4c0.3,0,0.5,0.2,0.6,0.5c0.1,1.1,0.5,1.5,2,1.5c0.9,0,1.8-0.1,2.1-0.4c0.6-0.4,0.6-1.3,0.1-1.8
			c-0.3-0.2-0.6-0.4-1-0.5c-1.3-0.4-3.1-0.6-4.5-1.3C23.3,45.6,22.5,44.6,22.5,43.1L22.5,43.1z"/>
		<path class="st1" d="M28,34c6.7,0,12.1,5.4,12.1,12.1c0,6.7-5.4,12.1-12.1,12.1c-6.7,0-12.1-5.4-12.1-12.1C16,39.4,21.4,34,28,34
			L28,34z M28,31.8c7.9,0,14.3,6.4,14.3,14.3S35.9,60.4,28,60.4c-7.9,0-14.3-6.4-14.3-14.3S20.1,31.8,28,31.8L28,31.8z"/>
		<path class="st1" d="M27.2,25.9c0-1.9,1.6-3,3.3-3v-0.7h1.5v0.7c1.5,0,2.9,1,3.2,2.5c0.1,0.2-0.1,0.5-0.4,0.5h-1.6
			c-0.2,0-0.3-0.1-0.4-0.3c0-0.2-0.1-0.4-0.2-0.5c-0.4-0.5-2.2-0.5-2.7-0.1c-0.4,0.3-0.4,0.9,0,1.2c0.5,0.3,2.1,0.6,2.8,0.8
			c1.5,0.5,2.7,1.1,2.7,2.9c0,0.5-0.1,0.9-0.2,1.2c-0.7-0.3-1.4-0.6-2.2-0.9c0-0.3-0.1-0.5-0.3-0.7c-0.3-0.2-0.7-0.4-1.2-0.5
			C29.6,28.6,27.2,28.3,27.2,25.9L27.2,25.9z M31.2,16.6c5.2,0,9.5,3.4,11,8.1c-0.7,0.4-1.4,0.8-2,1.2c-1-4.1-4.7-7.1-9-7.1
			c-5.1,0-9.3,4.2-9.3,9.3c0,0.9,0.1,1.7,0.3,2.5c-0.7,0.3-1.4,0.6-2,0.9c-0.3-1.1-0.5-2.2-0.5-3.4C19.7,21.8,24.8,16.6,31.2,16.6
			L31.2,16.6z"/>
	</g>
</g>
<text transform="matrix(1 0 0 1 306 396)" style="font-family:'MyriadPro-Regular'; font-size:12px;">Easily integrate orders and shipping</text>
</svg>
