<?xml version="1.0" encoding="utf-8"?>
<!-- Generator: Adobe Illustrator 16.0.0, SVG Export Plug-In . SVG Version: 6.00 Build 0)  -->
<!DOCTYPE svg PUBLIC "-//W3C//DTD SVG 1.1//EN" "http://www.w3.org/Graphics/SVG/1.1/DTD/svg11.dtd">
<svg version="1.1" id="Layer_1" xmlns="http://www.w3.org/2000/svg" xmlns:xlink="http://www.w3.org/1999/xlink" x="0px" y="0px"
	 width="36px" height="36px" viewBox="0 0 36 36" enable-background="new 0 0 36 36" xml:space="preserve">
<g>
	<g>
		<g>
			<path fill-rule="evenodd" clip-rule="evenodd" fill="#666766" d="M27.956,20.51l-2.319-9.084c-0.026-0.1-0.081-0.189-0.158-0.258
				l-2.816-2.519c-0.13-0.117-0.313-0.162-0.482-0.119l-11.744,2.93c-0.154,0.039-0.284,0.145-0.35,0.289l-1.398,3.033
				c-0.05,0.107-0.062,0.229-0.032,0.343l2.449,9.589c0.035,0.134,0.121,0.249,0.241,0.319c0.082,0.049,0.176,0.074,0.27,0.074
				c0.043,0,0.087-0.006,0.129-0.017l3.064-0.765c0.281-0.07,0.452-0.354,0.381-0.632c-0.07-0.278-0.357-0.446-0.64-0.378
				l-2.553,0.638l-2.274-8.907l1.217-2.639l11.225-2.801l2.49,2.226l2.152,8.427l-2.554,0.637c-0.282,0.07-0.453,0.354-0.382,0.633
				c0.071,0.278,0.358,0.447,0.64,0.377l3.063-0.765C27.856,21.071,28.027,20.788,27.956,20.51z M19.827,19.158
				c-2.323,0-4.214,1.867-4.214,4.164c0,2.296,1.891,4.164,4.214,4.164s4.213-1.868,4.213-4.164
				C24.04,21.025,22.15,19.158,19.827,19.158z M19.827,26.445c-1.743,0-3.16-1.4-3.16-3.123s1.417-3.123,3.16-3.123
				c1.742,0,3.16,1.4,3.16,3.123S21.569,26.445,19.827,26.445z M22.967,11.728c-0.08-0.277-0.374-0.436-0.651-0.357l-11.06,3.124
				c-0.279,0.079-0.441,0.367-0.362,0.643c0.066,0.229,0.277,0.378,0.507,0.378c0.048,0,0.097-0.007,0.145-0.021l11.06-3.123
				C22.885,12.292,23.047,12.004,22.967,11.728z M7.714,16.035H4.027v1.041h3.687V16.035z M5.607,19.158H8.24v-1.041H5.607V19.158z
				 M19.827,21.761c-0.871,0-1.58,0.7-1.58,1.562s0.709,1.562,1.58,1.562s1.58-0.7,1.58-1.562S20.698,21.761,19.827,21.761z
				 M19.827,23.843c-0.291,0-0.526-0.233-0.526-0.521s0.235-0.521,0.526-0.521c0.29,0,0.526,0.233,0.526,0.521
				S20.117,23.843,19.827,23.843z"/>
		</g>
	</g>
	<circle fill="none" stroke="#E9E9E9" stroke-width="2" stroke-miterlimit="10" cx="18" cy="18" r="17"/>
</g>
</svg>
