<?xml version="1.0" encoding="utf-8"?>
<!-- Generator: Adobe Illustrator 19.1.0, SVG Export Plug-In . SVG Version: 6.00 Build 0)  -->
<svg version="1.1" id="Layer_1" xmlns="http://www.w3.org/2000/svg" xmlns:xlink="http://www.w3.org/1999/xlink" x="0px" y="0px"
	 viewBox="0 0 75 75" style="enable-background:new 0 0 75 75;" xml:space="preserve">
<style type="text/css">
	.st0{fill:none;stroke:#167DBA;stroke-width:3;stroke-miterlimit:10;}
	.st1{fill-rule:evenodd;clip-rule:evenodd;fill:#167DBA;}
</style>
<g>
	<circle class="st0" cx="37.5" cy="37.5" r="36"/>
	<g>
		<path class="st1" d="M27.5,38.9h10.9v1.3H27.5V38.9L27.5,38.9z M27.5,42.7h10.9v1.3H27.5V42.7L27.5,42.7z M49.2,50.3v-2.2H53v2.2
			H49.2L49.2,50.3z M52.2,45.6H41.9c-0.4,0-0.8-0.4-0.8-0.8v-6.7c0-0.4,0.4-0.8,0.8-0.8h10.3c0.4,0,0.8,0.4,0.8,0.8v6.7
			C53,45.3,52.6,45.6,52.2,45.6L52.2,45.6z M53,53.4h-3.7v-1.3H53V53.4L53,53.4z M40,53.4H27.5v-1.3H40V53.4L40,53.4z M27.5,50.3
			v-2.2h4.4v2.2H27.5L27.5,50.3z M33.8,50.3v-2.2h5.3v2.2H33.8L33.8,50.3z M41.2,50.3v-2.2h5.3v2.2H41.2L41.2,50.3z M26.6,35
			c-0.9,0-1.6,0.7-1.6,1.6v17.5c0,0.9,0.7,1.6,1.6,1.6h27.5c0.9,0,1.6-0.7,1.6-1.6V36.6c0-0.9-0.7-1.6-1.6-1.6H26.6L26.6,35z
			 M26.6,33.1h27.5c1.9,0,3.4,1.5,3.4,3.4v17.5c0,1.9-1.5,3.4-3.4,3.4H26.6c-1.9,0-3.4-1.5-3.4-3.4V36.6
			C23.1,34.7,24.7,33.1,26.6,33.1L26.6,33.1z"/>
		<path class="st1" d="M20.5,26.5c-0.8,0.2-1.3,1.1-1.1,1.9l0.5,1.8l29.6-7.9L49,20.5c-0.2-0.8-1.1-1.3-1.9-1.1L20.5,26.5L20.5,26.5
			z M52,31.6l-1-3.8l-14.1,3.8H26.6c-2.8,0-5,2.2-5,5v7.1l-3.9-14.7c-0.5-1.8,0.6-3.7,2.4-4.2l26.6-7.1c1.8-0.5,3.7,0.6,4.2,2.4
			l3.1,11.5H52L52,31.6z"/>
	</g>
</g>
<text transform="matrix(1 0 0 1 306 396)" style="font-family:'MyriadPro-Regular'; font-size:12px;">Easily integrate orders and shipping</text>
</svg>
