<?xml version="1.0" encoding="utf-8"?>
<!-- Generator: Adobe Illustrator 19.1.0, SVG Export Plug-In . SVG Version: 6.00 Build 0)  -->
<svg version="1.1" id="Layer_1" xmlns="http://www.w3.org/2000/svg" xmlns:xlink="http://www.w3.org/1999/xlink" x="0px" y="0px"
	 viewBox="0 0 36 39.6" style="enable-background:new 0 0 36 39.6;" xml:space="preserve">
<style type="text/css">
	.st0{fill:none;}
	.st1{fill-rule:evenodd;clip-rule:evenodd;fill:#167DBA;}
	.st2{fill-rule:evenodd;clip-rule:evenodd;fill:#3BBFC4;}
</style>
<g>
	<path class="st0" d="M34.9,11.4c0,0-1.2-6.7-7.8-8.6c-1-0.4-2.2-0.7-3.4-0.7c-2.6,0-4.9,1.2-6.4,3c-1.1-1-2.4-1.8-4.2-2.3
		c-1-0.4-2.2-0.7-3.4-0.7c-4.7,0-8.5,3.8-8.5,8.4c0,4.7,3.8,8.4,8.5,8.4c1.5,0,2.9-0.4,4.1-1c0.4,0,0.9,0.1,1,0.5
		c0.1,0.8,0,11-11.5,14.9c0,0-1.9,1.3-0.2,3.7c0,0,0.8,0.9,3.7-0.7c2.4-1.4,12.7-6.1,14.3-17.8c0.9,0.3,1.8,0.5,2.7,0.5
		c1.5,0,2.9-0.4,4.1-1c0.4,0,0.9,0.1,1,0.5c0.1,0.8,0,11-11.5,14.9c0,0-1.9,1.3-0.2,3.7c0,0,0.8,0.9,3.7-0.7
		C23.6,34.7,37.4,28.4,34.9,11.4z"/>
</g>
<g>
	<g>
		<path class="st1" d="M35.7,10.4c0,0-1.4-7.5-8.8-9.7c-1.2-0.5-2.4-0.8-3.8-0.8c-5.3,0-9.5,4.2-9.5,9.5c0,5.2,4.3,9.5,9.5,9.5
			c1.7,0,3.2-0.4,4.6-1.2c0.5,0,1,0.1,1.1,0.6c0.1,0.9,0,12.4-13,16.8c0,0-2.1,1.5-0.3,4.1c0,0,0.9,1,4.1-0.8
			C22.9,36.6,38.4,29.5,35.7,10.4z"/>
	</g>
</g>
<g>
	<g>
		<path class="st2" d="M22.1,10.4c0,0-1.4-7.5-8.8-9.7c-1.2-0.5-2.4-0.8-3.8-0.8C4.3-0.1,0,4.2,0,9.4c0,5.2,4.3,9.5,9.5,9.5
			c1.7,0,3.2-0.4,4.6-1.2c0.5,0,1,0.1,1.1,0.6c0.1,0.9,0,12.4-13,16.8c0,0-2.1,1.5-0.3,4.1c0,0,0.9,1,4.1-0.8
			C9.3,36.6,24.9,29.5,22.1,10.4z"/>
	</g>
</g>
</svg>
