<?xml version="1.0" encoding="utf-8"?>
<!-- Generator: Adobe Illustrator 16.0.0, SVG Export Plug-In . SVG Version: 6.00 Build 0)  -->
<!DOCTYPE svg PUBLIC "-//W3C//DTD SVG 1.1//EN" "http://www.w3.org/Graphics/SVG/1.1/DTD/svg11.dtd">
<svg version="1.1" id="Layer_1" xmlns="http://www.w3.org/2000/svg" xmlns:xlink="http://www.w3.org/1999/xlink" x="0px" y="0px"
	 width="12.027px" height="11.979px" viewBox="0 0 12.027 11.979" enable-background="new 0 0 12.027 11.979" xml:space="preserve">
<path fill="#B2B3B3" d="M11.742,8.954L8.768,5.989l2.975-2.965c0.189-0.188,0.285-0.417,0.285-0.686s-0.096-0.497-0.285-0.685
	l-1.375-1.373C10.178,0.093,9.947,0,9.678,0s-0.5,0.094-0.688,0.281L6.014,3.246L3.037,0.281C2.849,0.093,2.618,0,2.349,0
	S1.85,0.093,1.66,0.281L0.284,1.653C0.095,1.841,0,2.07,0,2.338s0.095,0.498,0.284,0.686L3.26,5.989L0.284,8.954
	C0.095,9.142,0,9.37,0,9.64c0,0.268,0.095,0.498,0.284,0.686l1.376,1.371c0.189,0.188,0.419,0.283,0.688,0.283
	s0.5-0.096,0.688-0.283l2.977-2.965l2.977,2.965c0.188,0.188,0.418,0.283,0.688,0.283s0.5-0.096,0.689-0.283l1.375-1.371
	c0.189-0.188,0.285-0.418,0.285-0.686C12.027,9.37,11.932,9.142,11.742,8.954L11.742,8.954z"/>
</svg>
