<?xml version="1.0" encoding="utf-8"?>
<!-- Generator: Adobe Illustrator 19.1.0, SVG Export Plug-In . SVG Version: 6.00 Build 0)  -->
<svg version="1.1" id="Layer_1" xmlns="http://www.w3.org/2000/svg" xmlns:xlink="http://www.w3.org/1999/xlink" x="0px" y="0px"
	 viewBox="-72 163 75 75" style="enable-background:new -72 163 75 75;" xml:space="preserve">
<style type="text/css">
	.st0{fill:none;stroke:#00ABA9;stroke-width:3;stroke-miterlimit:10;}
	.st1{fill:#00ABA9;}
</style>
<g>
	<circle class="st0" cx="-34.5" cy="200.5" r="36"/>
</g>
<text transform="matrix(1 0 0 1 -34 918)" style="font-family:'MyriadPro-Regular'; font-size:12px;">Easily integrate orders and shipping</text>
<path class="st1" d="M-18.9,209.6l-4.1-4.1c-0.9-0.9-2.4-0.9-3.3,0l-4.1-4.1c3-4.5,2.5-10.6-1.4-14.6c-4.5-4.5-11.8-4.5-16.3,0
	c-4.5,4.5-4.5,11.8,0,16.3c3.9,3.9,10,4.4,14.5,1.5l4.1,4.1c-0.4,0.4-0.7,1-0.7,1.6s0.2,1.2,0.7,1.6l4.1,4.1c0.9,0.9,2,1.4,3.3,1.4
	s2.4-0.5,3.3-1.4C-17.1,214.3-17.1,211.4-18.9,209.6z M-34.2,200.7c-3.1,3.1-8.3,3.1-11.4,0c-3.1-3.1-3.1-8.3,0-11.4
	c3.1-3.1,8.3-3.1,11.4,0C-31.1,192.5-31.1,197.6-34.2,200.7z"/>
</svg>
