<?xml version="1.0" encoding="utf-8"?>
<!-- Generator: Adobe Illustrator 19.1.0, SVG Export Plug-In . SVG Version: 6.00 Build 0)  -->
<svg version="1.1" id="Layer_1" xmlns="http://www.w3.org/2000/svg" xmlns:xlink="http://www.w3.org/1999/xlink" x="0px" y="0px"
	 viewBox="0 0 75 75" style="enable-background:new 0 0 75 75;" xml:space="preserve">
<style type="text/css">
	.st0{fill:none;stroke:#167DBA;stroke-width:3;stroke-miterlimit:10;}
	.st1{fill:#167DBA;}
	.st2{fill-rule:evenodd;clip-rule:evenodd;fill:#167DBA;}
</style>
<g>
	<circle class="st0" cx="37.5" cy="37.5" r="36"/>
	<g>
		<path class="st1" d="M36.8,22.9c0-0.4,0.3-0.7,0.7-0.7c0.4,0,0.7,0.3,0.7,0.7v3.3c0,0.4-0.3,0.7-0.7,0.7c-0.4,0-0.7-0.3-0.7-0.7
			V22.9L36.8,22.9z M27.3,30.6h2.3c1,0,1.8,0.2,2.3,0.5c0.5,0.3,0.7,0.8,0.7,1.4c0,0.4-0.1,0.8-0.3,1.1c-0.2,0.3-0.5,0.5-0.9,0.6
			v0.1c0.5,0.1,0.8,0.3,1,0.6c0.2,0.3,0.3,0.7,0.3,1.1c0,0.7-0.3,1.2-0.8,1.6c-0.5,0.4-1.2,0.6-2.1,0.6h-2.6c-0.2,0-0.3-0.1-0.3-0.3
			v-6.8C26.9,30.7,27.1,30.6,27.3,30.6L27.3,30.6z M28.9,33.5l0.7,0c0.3,0,0.5-0.1,0.7-0.2c0.2-0.1,0.2-0.3,0.2-0.5
			c0-0.4-0.3-0.6-1-0.6l-0.6,0V33.5L28.9,33.5z M28.9,35v1.6l0.8,0c0.6,0,1-0.3,1-0.8c0-0.2-0.1-0.4-0.3-0.6
			c-0.2-0.1-0.4-0.2-0.7-0.2L28.9,35L28.9,35z M40.5,30.9v4.2c0,1-0.3,1.7-0.8,2.3c-0.6,0.5-1.4,0.8-2.4,0.8c-1,0-1.8-0.3-2.4-0.8
			c-0.6-0.5-0.8-1.3-0.8-2.3v-4.2c0-0.2,0.1-0.3,0.3-0.3h1.4c0.2,0,0.3,0.1,0.3,0.3V35c0,0.5,0.1,0.9,0.3,1.2
			c0.2,0.2,0.5,0.4,0.9,0.4c0.4,0,0.7-0.1,0.9-0.4c0.2-0.2,0.3-0.6,0.3-1.2v-4.1c0-0.2,0.1-0.3,0.3-0.3h1.4
			C40.3,30.6,40.5,30.7,40.5,30.9L40.5,30.9z M44.8,33.4l1.2-2.6c0.1-0.1,0.2-0.2,0.3-0.2h1.4c0.1,0,0.2,0.1,0.3,0.2
			c0.1,0.1,0.1,0.2,0,0.3l-2.2,4c0,0.1,0,0.1,0,0.2v2.5c0,0.2-0.1,0.3-0.3,0.3h-1.4c-0.2,0-0.3-0.1-0.3-0.3v-2.4c0-0.1,0-0.1,0-0.2
			l-2.2-4.1c-0.1-0.1-0.1-0.2,0-0.3c0.1-0.1,0.2-0.2,0.3-0.2h1.5c0.1,0,0.2,0.1,0.3,0.2L44.8,33.4L44.8,33.4z M38.2,45.9
			c0,0.1,0,0.2-0.1,0.3c-0.4,0-0.7,0.1-1.1,0.2c-0.1-0.1-0.2-0.3-0.2-0.5v-3.3c0-0.4,0.3-0.7,0.7-0.7c0.4,0,0.7,0.3,0.7,0.7V45.9
			L38.2,45.9z M32,43.9c-0.3,0.3-0.7,0.3-0.9,0c-0.3-0.3-0.3-0.7,0-0.9l2.3-2.3c0.3-0.3,0.7-0.3,0.9,0c0.3,0.3,0.3,0.7,0,0.9
			L32,43.9L32,43.9z M31.1,25.8c-0.3-0.3-0.3-0.7,0-0.9c0.3-0.3,0.7-0.3,0.9,0l2.3,2.3c0.3,0.3,0.3,0.7,0,0.9
			c-0.3,0.3-0.7,0.3-0.9,0L31.1,25.8L31.1,25.8z M43,24.9c0.3-0.3,0.7-0.3,0.9,0c0.3,0.3,0.3,0.7,0,0.9l-2.3,2.3
			c-0.3,0.3-0.7,0.3-0.9,0c-0.3-0.3-0.3-0.7,0-0.9L43,24.9L43,24.9z"/>
		<path class="st2" d="M40.5,41.2c-0.2-0.9,0.4-1.7,1.3-1.9c0.9-0.2,1.7,0.4,1.9,1.3c0.4,2.1,0.6,4.2,0.8,6.3
			c0.3-0.3,0.7-0.5,1.2-0.5c0.6,0,1.2,0.4,1.4,0.9c0.3-0.3,0.7-0.4,1.1-0.4c0.6,0,1.2,0.4,1.4,0.9c0.2-0.2,0.4-0.3,0.7-0.4
			c0.9-0.3,1.8,0.2,2,1.1c1,3.3,0.6,7.4,0.1,10.8c-1.2,1.3-6.6,2-10.2,0.8c-0.9-2.2-2-5.8-5.2-9c-0.7-0.6-0.7-1.6-0.1-2.3
			c0.6-0.7,1.6-0.7,2.3-0.1c1,0.9,1.8,1.8,2.4,2.7c0-0.7-0.1-1.4-0.1-2.1C41.3,46.5,41,43.9,40.5,41.2L40.5,41.2z M58.6,21.1
			c0-1.5-1.2-2.8-2.7-2.8H19.2c-1.5,0-2.8,1.3-2.8,2.8v26.5c0,1.5,1.3,2.8,2.8,2.8h15.4c-0.1-0.7,0-1.3,0.2-2H21.3
			c-0.4,0-0.7-0.3-0.7-0.7V21c0-0.4,0.3-0.7,0.7-0.7h32.3c0.4,0,0.7,0.3,0.7,0.7v26.7c0,0.1,0,0.1,0,0.2c0.2,0.8,0.4,1.6,0.5,2.4
			h1.2c1.5,0,2.7-1.3,2.7-2.8C58.6,38.8,58.6,30,58.6,21.1L58.6,21.1z M55.5,34.4c0,1.3,2,1.3,2,0C57.5,33.1,55.5,33.1,55.5,34.4
			L55.5,34.4z"/>
	</g>
</g>
<text transform="matrix(1 0 0 1 306 396)" style="font-family:'MyriadPro-Regular'; font-size:12px;">Easily integrate orders and shipping</text>
</svg>
