<?xml version="1.0" encoding="utf-8"?>
<!-- Generator: Adobe Illustrator 19.1.0, SVG Export Plug-In . SVG Version: 6.00 Build 0)  -->
<svg version="1.1" id="Layer_1" xmlns="http://www.w3.org/2000/svg" xmlns:xlink="http://www.w3.org/1999/xlink" x="0px" y="0px"
	 viewBox="0 0 75 75" style="enable-background:new 0 0 75 75;" xml:space="preserve">
<style type="text/css">
	.st0{fill:none;stroke:#167DBA;stroke-width:3;stroke-miterlimit:10;}
	.st1{fill:#167DBA;}
</style>
<g>
	<circle class="st0" cx="37.5" cy="37.5" r="36"/>
	<path class="st1" d="M20.5,32.8l-2.8-3.5c-0.4-0.5-0.3-1.2,0.2-1.5c0.5-0.4,1.1-0.3,1.5,0.2l2.8,3.5c0.4,0.5,0.3,1.2-0.2,1.5
		c-0.2,0.2-0.4,0.2-0.7,0.2C21.1,33.2,20.7,33.1,20.5,32.8z M27.9,28c0.2,0.4,0.6,0.7,1,0.7c0.1,0,0.2,0,0.4-0.1
		c0.6-0.2,0.9-0.8,0.7-1.4l-1.5-4.2c-0.2-0.6-0.8-0.9-1.4-0.7c-0.6,0.2-0.9,0.8-0.7,1.4L27.9,28z M37.5,27.2
		C37.5,27.2,37.5,27.2,37.5,27.2c0.6,0,1.1-0.5,1.1-1.1l0-4.5c0-0.6-0.5-1.1-1.1-1.1h0c-0.6,0-1.1,0.5-1.1,1.1l0,4.5
		C36.4,26.8,36.9,27.2,37.5,27.2z M45.7,28.7c0.1,0,0.2,0.1,0.4,0.1c0.4,0,0.9-0.3,1-0.7l1.5-4.2c0.2-0.6-0.1-1.2-0.7-1.4
		c-0.6-0.2-1.2,0.1-1.4,0.7l-1.5,4.2C44.9,27.9,45.2,28.5,45.7,28.7z M57.1,27.9c-0.5-0.4-1.1-0.3-1.5,0.2l-2.8,3.5
		c-0.4,0.5-0.3,1.2,0.2,1.5c0.2,0.2,0.4,0.2,0.7,0.2c0.3,0,0.6-0.1,0.8-0.4l2.8-3.5C57.6,28.9,57.6,28.2,57.1,27.9z M56.3,40.6
		c0.8,1.1,0.8,2.6,0,3.7c-2.1,3.1-8.2,10.2-18.9,10.2c-10.6,0-16.7-7.1-18.9-10.1c-0.8-1.1-0.8-2.6,0-3.7c2.1-3,8.2-10.1,18.9-10.1
		C48.1,30.4,54.2,37.5,56.3,40.6z M54.5,41.8c-1.9-2.8-7.4-9.2-17.1-9.2c-9.6,0-15.2,6.4-17.1,9.2c-0.3,0.4-0.3,0.8,0,1.2
		c1.9,2.8,7.5,9.2,17.1,9.2c9.7,0,15.2-6.4,17.1-9.2C54.8,42.7,54.8,42.2,54.5,41.8z M44,42.4c0,3.6-2.9,6.5-6.5,6.5
		C33.9,49,31,46,31,42.4c0-3.6,2.9-6.5,6.5-6.5C41.1,35.9,44,38.8,44,42.4z M41.8,42.4c0-2.4-1.9-4.4-4.3-4.4c-2.4,0-4.3,2-4.3,4.4
		c0,2.4,1.9,4.4,4.3,4.4C39.9,46.8,41.8,44.8,41.8,42.4z"/>
</g>
<text transform="matrix(1 0 0 1 306 396)" style="font-family:'MyriadPro-Regular'; font-size:12px;">Easily integrate orders and shipping</text>
</svg>
