<?xml version="1.0" encoding="utf-8"?>
<!-- Generator: Adobe Illustrator 19.1.0, SVG Export Plug-In . SVG Version: 6.00 Build 0)  -->
<svg version="1.1" id="Layer_1" xmlns="http://www.w3.org/2000/svg" xmlns:xlink="http://www.w3.org/1999/xlink" x="0px" y="0px"
	 viewBox="-72 163 75 75" style="enable-background:new -72 163 75 75;" xml:space="preserve">
<style type="text/css">
	.st0{fill:none;stroke:#00ABA9;stroke-width:3;stroke-miterlimit:10;}
	.st1{fill:#00ABA9;}
</style>
<g>
	<circle class="st0" cx="-34.5" cy="200.5" r="36"/>
	<path class="st1" d="M-15.9,205.4c-4.4-1.8-10.8-2.8-17.8-3v-3.5c0-0.8-0.6-1.4-1.4-1.4c-0.9,0-1.7-0.8-1.7-1.7
		c0-0.9,0.8-1.7,1.7-1.7s1.7,0.8,1.7,1.7c0,0.8,0.6,1.4,1.4,1.4c0.8,0,1.4-0.6,1.4-1.4c0-2.5-2-4.5-4.5-4.5c-2.5,0-4.5,2-4.5,4.5
		c0,2.3,1.7,3.7,3.1,4.3v2.3c-7,0.1-13.3,1.2-17.7,3c-1.4,0.6-2.1,2.2-1.5,3.6s2.2,2.1,3.6,1.5c4-1.6,10.4-2.6,17.1-2.6
		c6.7,0,13,1,17.1,2.6c0.3,0.1,0.7,0.2,1,0.2c1.1,0,2.2-0.7,2.6-1.8C-13.7,207.6-14.4,205.9-15.9,205.4z"/>
</g>
<text transform="matrix(1 0 0 1 -34 918)" style="font-family:'MyriadPro-Regular'; font-size:12px;">Easily integrate orders and shipping</text>
</svg>
