<?xml version="1.0" encoding="utf-8"?>
<!-- Generator: Adobe Illustrator 19.1.0, SVG Export Plug-In . SVG Version: 6.00 Build 0)  -->
<svg version="1.1" id="Layer_1" xmlns="http://www.w3.org/2000/svg" xmlns:xlink="http://www.w3.org/1999/xlink" x="0px" y="0px"
	 viewBox="-72 163 75 75" style="enable-background:new -72 163 75 75;" xml:space="preserve">
<style type="text/css">
	.st0{fill:none;stroke:#00ABA9;stroke-width:3;stroke-miterlimit:10;}
	.st1{fill:#00ABA9;}
</style>
<g>
	<circle class="st0" cx="-34.5" cy="200.5" r="36"/>
</g>
<text transform="matrix(1 0 0 1 -34 918)" style="font-family:'MyriadPro-Regular'; font-size:12px;">Easily integrate orders and shipping</text>
<g>
	<g>
		<path class="st1" d="M-17.9,213.1l-20-20c-0.9-0.9-2.3-0.9-3.2,0l-0.8,0.8c-0.9,0.9-0.9,2.3,0,3.2l20,20c0.9,0.9,2.3,0.9,3.2,0
			l0.8-0.8C-17,215.4-17,214-17.9,213.1z M-34.7,202.7l-5.6-5.6l2.4-2.4l5.6,5.6L-34.7,202.7z M-44,192.3c0.4,0.4,0.9,0.4,1.3,0
			c0.4-0.4,0.4-0.9,0-1.3l-3.8-3.8c-0.4-0.4-0.9-0.4-1.3,0c-0.4,0.4-0.4,0.9,0,1.3L-44,192.3z M-34.8,192.5l3.8-3.8
			c0.4-0.4,0.4-0.9,0-1.3c-0.4-0.4-0.9-0.4-1.3,0l-3.8,3.8c-0.4,0.4-0.4,0.9,0,1.3C-35.7,192.9-35.2,192.9-34.8,192.5z M-43.9,199
			l-3.8,3.8c-0.4,0.4-0.4,0.9,0,1.3c0.4,0.4,0.9,0.4,1.3,0l3.8-3.8c0.4-0.4,0.4-0.9,0-1.3C-42.9,198.7-43.5,198.7-43.9,199z
			 M-44.5,195.7c0-0.3-0.4-0.6-0.9-0.6h-5.4c-0.5,0-0.9,0.3-0.9,0.6s0.4,0.6,0.9,0.6l5.4,0C-44.9,196.3-44.5,196-44.5,195.7z
			 M-39.3,190.5c0.3,0,0.6-0.4,0.6-0.9v-5.4c0-0.5-0.3-0.9-0.6-0.9c-0.3,0-0.6,0.4-0.6,0.9v5.4C-39.9,190.1-39.7,190.5-39.3,190.5z"
			/>
	</g>
</g>
</svg>
