<?xml version="1.0" encoding="utf-8"?>
<!-- Generator: Adobe Illustrator 19.1.0, SVG Export Plug-In . SVG Version: 6.00 Build 0)  -->
<svg version="1.1" id="Layer_1" xmlns="http://www.w3.org/2000/svg" xmlns:xlink="http://www.w3.org/1999/xlink" x="0px" y="0px"
	 viewBox="0 0 75 75" style="enable-background:new 0 0 75 75;" xml:space="preserve">
<style type="text/css">
	.st0{fill:#187DBA;}
	.st1{fill:none;stroke:#167DBA;stroke-width:3;stroke-miterlimit:10;}
</style>
<g>
	<path class="st0" d="M34.7,37.7l-4.6,5c-0.3,0.3-0.7,0.4-1,0.2l-2.6-1v6l8.3,2.7V37.7L34.7,37.7z M24.5,41.2l-5.3-2.1
		c-0.6-0.2-0.8-1-0.3-1.5l5.2-5.7l-6.3-5.2c-0.6-0.5-0.4-1.5,0.4-1.6l14.7-3c0.3-0.1,0.6,0,0.8,0.2l6,5l4.9-3.1
		c0.2-0.1,0.5-0.2,0.7-0.1l10.7,2.8c0.8,0.2,1,1.2,0.3,1.7l-5,3.2l5.7,4.5c0.6,0.5,0.4,1.5-0.4,1.6l-6,1.5l0,8.9
		c0,0.4-0.3,0.8-0.7,0.9l-14.1,3.4c-0.2,0.1-0.4,0-0.7,0l-10-3.2c-0.4-0.1-0.7-0.5-0.7-0.9V41.2L24.5,41.2z M26,31.1l11.9-2.8
		l-5-4.2l-12.3,2.5L26,31.1L26,31.1z M41.6,28.5l7.8,2.5l4.2-2.7l-8.3-2.2L41.6,28.5L41.6,28.5z M49.4,32.7l-11.9,2.9l5.1,4.1
		l11.9-2.9L49.4,32.7L49.4,32.7z M34.2,35.5l-8.2-2.8l-4.7,5.2l7.9,3.1L34.2,35.5L34.2,35.5z"/>
	<circle class="st1" cx="37.5" cy="37.5" r="36"/>
</g>
</svg>
