<?xml version="1.0" encoding="utf-8"?>
<!-- Generator: Adobe Illustrator 19.1.0, SVG Export Plug-In . SVG Version: 6.00 Build 0)  -->
<svg version="1.1" id="Layer_1" xmlns="http://www.w3.org/2000/svg" xmlns:xlink="http://www.w3.org/1999/xlink" x="0px" y="0px"
	 viewBox="-72 163 75 75" style="enable-background:new -72 163 75 75;" xml:space="preserve">
<style type="text/css">
	.st0{fill:none;stroke:#00ABA9;stroke-width:3;stroke-miterlimit:10;}
	.st1{fill:#00ABA9;}
</style>
<g>
	<circle class="st0" cx="-34.5" cy="200.5" r="36"/>
	<g>
		<g>
			<path class="st1" d="M-21,185h-28c-1.1,0-2,0.9-2,2v28c0,1.1,0.9,2,2,2h28c1.1,0,2-0.9,2-2v-28C-19,185.9-19.9,185-21,185z
				 M-22,214h-26v-18h26V214z M-22,193h-26v-5h26V193z M-45.5,192c0.8,0,1.5-0.7,1.5-1.5s-0.7-1.5-1.5-1.5s-1.5,0.7-1.5,1.5
				S-46.3,192-45.5,192z M-40.5,192c0.8,0,1.5-0.7,1.5-1.5s-0.7-1.5-1.5-1.5s-1.5,0.7-1.5,1.5S-41.3,192-40.5,192z"/>
		</g>
	</g>
</g>
<text transform="matrix(1 0 0 1 -34 918)" style="font-family:'MyriadPro-Regular'; font-size:12px;">Easily integrate orders and shipping</text>
</svg>
