<?xml version="1.0" encoding="utf-8"?>
<!DOCTYPE svg PUBLIC "-//W3C//DTD SVG 1.1//EN" "http://www.w3.org/Graphics/SVG/1.1/DTD/svg11.dtd">
<svg version="1.1" baseProfile="full"
 xmlns="http://www.w3.org/2000/svg"
 xmlns:xlink="http://www.w3.org/1999/xlink"
 xmlns:ev="http://www.w3.org/2001/xml-events" 
  height="20px" 
  width="14px" 
>
<path fill="rgb( 51, 51, 51 )"
 d="M14,16.448 C14,16.448 14,18.224 14,18.224 C14,19.286 13.37,20 12.433,20 C11.939,20 11.54,19.793 11.263,19.45 C10.935,19.787 10.474,20 9.96199999999999,20 C9.42000000000002,20 8.93900000000002,19.759 8.60700000000003,19.386 C8.27600000000001,19.759 7.79500000000002,20 7.25299999999999,20 C7.24799999999999,20 7.24400000000003,19.997 7.23899999999998,19.997 C7.23500000000001,19.997 7.23099999999999,20 7.226,20 C6.68400000000003,20 6.202,19.759 5.87099999999998,19.386 C5.54000000000002,19.759 5.05799999999999,20 4.51600000000002,20 C3.97399999999999,20 3.493,19.759 3.161,19.386 C2.82999999999998,19.759 2.34899999999999,20 1.80599999999998,20 C0.81,20 0,19.203 0,18.224 C0,18.224 0,16.448 0,16.448 C0,15.129 0.67599999999999,13.895 1.32999999999998,12.702 C1.99099999999999,11.499 2.673,10.254 2.70999999999998,8.88900000000001 C2.78300000000002,6.149 0.95999999999998,2.017 0.94099999999997,1.97499999999999 C0.84399999999999,1.75899999999999 0.93799999999999,1.506 1.15300000000002,1.40000000000001 C1.15300000000002,1.40000000000001 3.86200000000002,0.06800000000001 3.86200000000002,0.06800000000001 C4.00200000000001,0 4.16800000000001,0.006 4.30200000000002,0.08799999999999 C4.435,0.16900000000001 4.51600000000002,0.31200000000001 4.51600000000002,0.465 C4.51600000000002,1.27000000000001 5.72399999999999,2.24100000000001 7.22399999999999,2.24100000000001 C8.733,2.24100000000001 9.90300000000002,1.286 9.90300000000002,0.465 C9.90300000000002,0.31100000000001 9.98399999999998,0.16800000000001 10.119,0.08699999999999 C10.253,0.005 10.42,0 10.56,0.06999999999999 C10.56,0.06999999999999 13.21,1.40199999999999 13.21,1.40199999999999 C13.426,1.511 13.516,1.768 13.413,1.98500000000001 C13.394,2.02600000000001 11.456,6.15799999999999 11.53,8.88900000000001 C11.566,10.261 12.189,11.507 12.79,12.712 C13.385,13.904 14,15.137 14,16.448 ZM12.418,2.001 C12.418,2.001 10.683,1.12899999999999 10.683,1.12899999999999 C10.264,2.25 8.82900000000001,3.12799999999999 7.22699999999998,3.12899999999999 C7.22699999999998,3.12899999999999 7.226,3.12899999999999 7.226,3.12899999999999 C7.22500000000002,3.12899999999999 7.22500000000002,3.12899999999999 7.22399999999999,3.12899999999999 C7.22399999999999,3.12899999999999 7.22399999999999,3.12899999999999 7.22300000000001,3.12899999999999 C7.22300000000001,3.12899999999999 7.22199999999998,3.12899999999999 7.22199999999998,3.12899999999999 C5.63499999999999,3.12700000000001 4.16899999999998,2.233 3.73899999999998,1.12200000000001 C3.73899999999998,1.12200000000001 1.93400000000003,2.00899999999999 1.93400000000003,2.00899999999999 C2.38400000000001,3.09399999999999 3.56700000000001,6.19499999999999 3.60199999999998,8.613 C4.47300000000001,8.989 7.70800000000003,10.177 10.612,8.517 C10.621,8.512 10.632,8.518 10.642,8.51300000000001 C10.715,6.108 11.945,3.07400000000001 12.418,2.001 ZM10.694,9.46199999999999 C9.51100000000002,10.053 8.31200000000001,10.276 7.22199999999998,10.276 C5.61500000000001,10.276 4.26100000000002,9.839 3.529,9.547 C3.339,10.851 2.73700000000002,12.008 2.12599999999998,13.124 C1.49700000000001,14.27 0.90300000000002,15.353 0.90300000000002,16.448 C0.90300000000002,16.448 0.90300000000002,18.224 0.90300000000002,18.224 C0.90300000000002,18.713 1.30900000000003,19.112 1.80599999999998,19.112 C2.30399999999997,19.112 2.70999999999998,18.713 2.70999999999998,18.224 C2.70999999999998,17.978 2.91199999999998,17.78 3.161,17.78 C3.411,17.78 3.613,17.978 3.613,18.224 C3.613,18.713 4.01799999999997,19.112 4.51600000000002,19.112 C5.01400000000001,19.112 5.41899999999998,18.713 5.41899999999998,18.224 C5.41899999999998,17.978 5.62099999999998,17.78 5.87099999999998,17.78 C6.12099999999998,17.78 6.32299999999998,17.978 6.32299999999998,18.224 C6.32299999999998,18.713 6.72800000000001,19.112 7.226,19.112 C7.23099999999999,19.112 7.23500000000001,19.114 7.23899999999998,19.114 C7.24400000000003,19.114 7.24799999999999,19.112 7.25299999999999,19.112 C7.75099999999998,19.112 8.15600000000001,18.713 8.15600000000001,18.224 C8.15600000000001,17.978 8.358,17.78 8.608,17.78 C8.85700000000003,17.78 9.05900000000003,17.978 9.05900000000003,18.224 C9.05900000000003,18.713 9.464,19.112 9.96199999999999,19.112 C10.46,19.112 10.866,18.713 10.866,18.224 C10.866,17.978 11.068,17.78 11.317,17.78 C11.567,17.78 11.769,17.978 11.769,18.224 C11.769,18.491 11.834,19.112 12.433,19.112 C13.032,19.112 13.097,18.491 13.097,18.224 C13.097,18.224 13.097,16.448 13.097,16.448 C13.097,15.343 12.554,14.255 11.979,13.104 C11.413,11.969 10.855,10.791 10.694,9.46199999999999 Z "/>
</svg>
