<?xml version="1.0" encoding="utf-8"?>
<!-- Generator: Adobe Illustrator 19.1.0, SVG Export Plug-In . SVG Version: 6.00 Build 0)  -->
<svg version="1.1" id="Layer_1" xmlns="http://www.w3.org/2000/svg" xmlns:xlink="http://www.w3.org/1999/xlink" x="0px" y="0px"
	 width="75px" height="75px" viewBox="-268 359 75 75" style="enable-background:new -268 359 75 75;" xml:space="preserve">
<style type="text/css">
	.st0{fill:none;stroke:#167DBA;stroke-width:3;stroke-miterlimit:10;}
	.st1{fill-rule:evenodd;clip-rule:evenodd;fill:#2779B8;}
</style>
<g>
	<circle class="st0" cx="-230.5" cy="396.5" r="36"/>
	<g>
		<g>
			<path class="st1" d="M-214,379.5c0.1-0.3,0.1-0.6,0-0.9l-1.3-3c-0.4-0.9-1.4-1.5-2.3-1.5H-243c-0.9,0-1.9,0.5-2.3,1.3l-1.6,2.6
				c-0.2,0.3-0.2,0.6-0.2,0.9c0,0.1,0,0.1,0,0.2v37c0,1.6,1.3,2.9,2.9,2.9h27.4c1.6,0,2.9-1.3,2.9-2.9v-36.2
				C-213.9,379.7-213.9,379.6-214,379.5z M-243.2,376.7c0-0.1,0.2-0.1,0.2-0.1h25.3c0,0,0.1,0,0.1,0.1l0.7,1.6h-27.3L-243.2,376.7z
				 M-216.4,416c0,0.2-0.2,0.4-0.4,0.4h-27.4c-0.2,0-0.4-0.2-0.4-0.4v-36.2l28.3,0V416z M-239.6,413.1h18.3c1.4,0,2.5-1.1,2.5-2.5
				v-25.8c0-1.4-1.1-2.5-2.5-2.5h-18.3c-1.4,0-2.5,1.1-2.5,2.5v25.8C-242.1,412-241,413.1-239.6,413.1z M-240.5,384.8
				c0-0.5,0.4-0.8,0.8-0.8h18.3c0.5,0,0.8,0.4,0.8,0.8v4.6h-4.2v-0.2c0-1.3-1-2.3-2.3-2.3c-1.3,0-2.3,1-2.3,2.3v0.2h-5v-0.2
				c0-1.3-1-2.3-2.3-2.3s-2.3,1-2.3,2.3v0.2l-1.7,0V384.8z M-226.3,389.2v2.5c0,0.3-0.3,0.6-0.6,0.6c-0.3,0-0.6-0.3-0.6-0.6v-2.5
				c0-0.3,0.3-0.6,0.6-0.6C-226.6,388.6-226.3,388.9-226.3,389.2z M-235.9,389.2v2.5c0,0.3-0.3,0.6-0.6,0.6s-0.6-0.3-0.6-0.6v-2.5
				c0-0.3,0.3-0.6,0.6-0.6S-235.9,388.9-235.9,389.2z M-240.5,391.1h1.7v0.6c0,1.3,1,2.3,2.3,2.3s2.3-1,2.3-2.3v-0.6h5v0.6
				c0,1.3,1,2.3,2.3,2.3c1.3,0,2.3-1,2.3-2.3v-0.6h4.2v5h-8.8c-0.1-1.2-1.1-2.1-2.3-2.1s-2.2,0.9-2.3,2.1h-6.7V391.1z M-230.9,396.3
				v2.5c0,0.3-0.3,0.6-0.6,0.6c-0.3,0-0.6-0.3-0.6-0.6v-2.5c0-0.3,0.3-0.6,0.6-0.6C-231.2,395.7-230.9,395.9-230.9,396.3z
				 M-240.5,397.7h6.7v1c0,1.3,1,2.3,2.3,2.3s2.3-1,2.3-2.3v-1h8.7v5.8h-1.7v-0.6c0-1.3-1-2.3-2.3-2.3s-2.3,1-2.3,2.3v0.6h-6.7v-0.6
				c0-1.3-1-2.3-2.3-2.3c-1.3,0-2.3,1-2.3,2.3v0.6h-2.5V397.7z M-223.8,402.9v2.5c0,0.3-0.3,0.6-0.6,0.6s-0.6-0.3-0.6-0.6v-2.5
				c0-0.3,0.3-0.6,0.6-0.6S-223.8,402.6-223.8,402.9z M-235.1,402.9v2.5c0,0.3-0.3,0.6-0.6,0.6s-0.6-0.3-0.6-0.6v-2.5
				c0-0.3,0.3-0.6,0.6-0.6S-235.1,402.6-235.1,402.9z M-240.5,405.2h2.5v0.2c0,1.3,1,2.3,2.3,2.3c1.3,0,2.3-1,2.3-2.3v-0.2h6.7v0.2
				c0,1.3,1,2.3,2.3,2.3s2.3-1,2.3-2.3v-0.2h1.7v3.3h-20V405.2z M-240.5,410.2h20v0.4c0,0.5-0.4,0.8-0.8,0.8h-18.3
				c-0.5,0-0.8-0.4-0.8-0.8V410.2z"/>
		</g>
	</g>
</g>
</svg>
