<?xml version="1.0" encoding="utf-8"?>
<!-- Generator: Adobe Illustrator 19.1.0, SVG Export Plug-In . SVG Version: 6.00 Build 0)  -->
<svg version="1.1" id="Layer_1" xmlns="http://www.w3.org/2000/svg" xmlns:xlink="http://www.w3.org/1999/xlink" x="0px" y="0px"
	 width="75px" height="75px" viewBox="-268 359 75 75" style="enable-background:new -268 359 75 75;" xml:space="preserve">
<style type="text/css">
	.st0{fill:none;stroke:#167DBA;stroke-width:3;stroke-miterlimit:10;}
	.st1{fill:#2779B8;}
</style>
<g>
	<circle class="st0" cx="-230.5" cy="396.5" r="36"/>
	<g>
		<g>
			<path class="st1" d="M-230.7,403c-0.5,0-0.9,0.4-0.9,0.9s0.4,0.9,0.9,0.9s0.9-0.4,0.9-0.9S-230.2,403-230.7,403z M-215.2,383.6
				h-30.7c-0.4,0-0.7,0.3-0.7,0.7v16.8c0,0.4,0.3,0.7,0.7,0.7h30.7c0.4,0,0.7-0.3,0.7-0.7v-16.8C-214.4,384-214.8,383.6-215.2,383.6
				z M-215.9,400.4h-29.2v-15.3h29.2V400.4z M-210.1,381c0-2.6-2.1-4.7-4.7-4.7h-31.4c-2.6,0-4.7,2.1-4.7,4.7v22.6
				c0,0.1,0,0.3,0.1,0.4c0.4,2.3,2.3,4,4.7,4h12.6l-0.5,3.1c-0.2-0.1-0.4-0.2-0.6-0.2c-2.1,0-3.8,1.7-3.8,3.8c0,2.1,1.7,3.8,3.8,3.8
				h8.4c2.1,0,3.8-1.7,3.8-3.8c0-2.1-1.7-3.8-3.8-3.8c-0.2,0-0.4,0.1-0.6,0.2l-0.5-3.1h12.6c2.4,0,4.3-1.7,4.7-4
				c0-0.1,0.1-0.2,0.1-0.4L-210.1,381C-210.1,381-210.1,381-210.1,381z M-226.7,415c0.2-0.2,0.3-0.6,0.3-0.9l-0.2-1
				c0.1,0,0.2,0.1,0.3,0.1c0.9,0,1.6,0.7,1.6,1.6c0,0.9-0.7,1.6-1.6,1.6h-8.4c-0.9,0-1.6-0.7-1.6-1.6c0-0.9,0.7-1.6,1.6-1.6
				c0.1,0,0.2,0,0.3-0.1l-0.2,1c0,0.3,0,0.6,0.3,0.9c0.2,0.2,0.5,0.4,0.8,0.4h5.8C-227.3,415.4-227,415.3-226.7,415z M-232.1,413.2
				l0.8-5.1h1.8l0.8,5.1H-232.1z M-212.2,403.3c0,0.2,0,0.3-0.1,0.5c-0.2,1.2-1.3,2-2.5,2h-31.4c-1.2,0-2.3-0.9-2.5-2
				c0-0.2-0.1-0.3-0.1-0.5v-19c0-1.6,1.3-2.9,2.9-2.9h30.7c1.6,0,2.9,1.3,2.9,2.9V403.3z M-212.2,381.1c-0.8-0.7-1.8-1.1-2.9-1.1
				h-30.7c-1.1,0-2.1,0.4-2.9,1.1v0c0-1.4,1.1-2.6,2.6-2.6h31.4C-213.4,378.5-212.2,379.7-212.2,381.1L-212.2,381.1z M-236.7,392.4
				v3.7c0,1.4,1.1,2.6,2.6,2.6h7.3c1.4,0,2.6-1.1,2.6-2.6v-3.7c0.4,0,0.7-0.3,0.7-0.7s-0.3-0.7-0.7-0.7h-0.6l-3.3-3.3
				c-0.3-0.3-0.7-0.3-1,0s-0.3,0.7,0,1l2.2,2.2h-6.5l2.2-2.2c0.3-0.3,0.3-0.7,0-1s-0.7-0.3-1,0l-3.3,3.3h-1.2
				c-0.4,0-0.7,0.3-0.7,0.7S-237.1,392.4-236.7,392.4z M-235.2,392.4h9.5v3.7c0,0.6-0.5,1.1-1.1,1.1h-7.3c-0.6,0-1.1-0.5-1.1-1.1
				V392.4z M-233.1,396.4c0.4,0,0.7-0.3,0.7-0.7v-1.8c0-0.4-0.3-0.7-0.7-0.7c-0.4,0-0.7,0.3-0.7,0.7v1.8
				C-233.8,396.1-233.5,396.4-233.1,396.4z M-230.5,396.4c0.4,0,0.7-0.3,0.7-0.7v-1.8c0-0.4-0.3-0.7-0.7-0.7s-0.7,0.3-0.7,0.7v1.8
				C-231.2,396.1-230.9,396.4-230.5,396.4z M-227.9,396.4c0.4,0,0.7-0.3,0.7-0.7v-1.8c0-0.4-0.3-0.7-0.7-0.7c-0.4,0-0.7,0.3-0.7,0.7
				v1.8C-228.7,396.1-228.3,396.4-227.9,396.4z"/>
		</g>
	</g>
</g>
</svg>
