<?xml version="1.0" encoding="utf-8"?>
<!-- Generator: Adobe Illustrator 19.1.0, SVG Export Plug-In . SVG Version: 6.00 Build 0)  -->
<svg version="1.1" id="Layer_1" xmlns="http://www.w3.org/2000/svg" xmlns:xlink="http://www.w3.org/1999/xlink" x="0px" y="0px"
	 width="75px" height="75px" viewBox="-268 359 75 75" style="enable-background:new -268 359 75 75;" xml:space="preserve">
<style type="text/css">
	.st0{fill:none;stroke:#167DBA;stroke-width:3;stroke-miterlimit:10;}
	.st1{fill:#2779B8;}
</style>
<g>
	<circle class="st0" cx="-230.5" cy="396.5" r="36"/>
	<g>
		<g>
			<path class="st1" d="M-212.2,392.7c0,0,0-0.1,0-0.1v-2.1c0-0.1,0-0.2-0.1-0.3l-3-8.6l-0.2-0.6c-0.4-1.2-1.6-2.1-2.9-2.1h-24
				c-0.2,0-0.3,0-0.5,0c0,0-0.1,0-0.1,0c-0.1,0-0.2,0-0.3,0.1c0,0,0,0,0,0c-0.9,0.3-1.6,1-2,1.8l-0.2,0.6l-3.3,8.7
				c-0.1,0.1-0.1,0.3-0.1,0.4l0.1,2.1c0,1.7,0.9,3.5,2.1,4.5v10.6c0,0.1,0,0.2,0,0.4h-1.1c-0.6,0-1.1,0.5-1.1,1.1v3.9
				c0,0.6,0.5,1.1,1.1,1.1h34.6c0.6,0,1.1-0.5,1.1-1.1v-3.9c0-0.6-0.5-1.1-1.1-1.1h-1.1v-10.9C-213.1,396.2-212.2,394.5-212.2,392.7
				z M-218.3,381c0.3,0,0.7,0.3,0.9,0.6l0.2,0.6l2.6,7.6h-6.3l-2.1-8.8H-218.3z M-229.8,381h5.2l2.1,8.8h-7.3V381z M-229.8,392.4
				v-0.5h7.4v0.7c0,1.9-1.8,3.5-3.8,3.5c-1.9,0-3.6-1.7-3.6-3.7C-229.8,392.5-229.8,392.5-229.8,392.4
				C-229.8,392.4-229.8,392.4-229.8,392.4z M-226.2,397.6c1.8,0,3.5-1,4.4-2.5c0.5,0.9,1.3,1.6,2.2,2v8.6h-11.6V396
				c0.3-0.3,0.5-0.6,0.7-0.9C-229.6,396.5-228,397.6-226.2,397.6z M-231.9,407.1h13c0.4,0,0.7-0.3,0.7-0.7v-8.9c0.2,0,0.4,0,0.6,0
				c0.4,0,0.8-0.1,1.1-0.1v10.4c0,0.2-0.2,0.4-0.4,0.4h-17.6v-10.6c0.6-0.1,1.2-0.2,1.8-0.5v9.3
				C-232.6,406.8-232.3,407.1-231.9,407.1z M-231.2,392.5c0,2-1.6,3.7-3.6,3.7c-2,0-3.8-1.6-3.8-3.5v-0.7h7.4v0.5
				C-231.2,392.4-231.2,392.4-231.2,392.5C-231.2,392.5-231.2,392.5-231.2,392.5z M-235.8,397.4v10.7h-5.6v-11
				c0.9-0.4,1.7-1.1,2.2-2C-238.5,396.3-237.2,397.2-235.8,397.4z M-231.2,381v8.8h-7.3l2.4-8.8H-231.2z M-243.4,382.2l0.2-0.6
				c0.1-0.3,0.6-0.6,0.9-0.6h4.8l-2.4,8.8h-6.3L-243.4,382.2z M-246.4,391.9h6.3v0.7c0,2-1.5,3.5-3.4,3.5c-0.5,0-1-0.1-1.5-0.3
				c-0.1-0.2-0.4-0.3-0.6-0.3c-0.7-0.6-1.2-1.8-1.2-2.9l0-0.7C-246.6,391.9-246.5,391.9-246.4,391.9z M-242.8,397.5v10.6h-1.4
				c-0.2,0-0.4-0.2-0.4-0.4v-10.4c0.4,0.1,0.8,0.2,1.2,0.2C-243.2,397.6-243,397.5-242.8,397.5z M-214.3,412h-32.4v-1.8h31
				c0.1,0,0.2,0,0.2,0c0,0,0.1,0,0.1,0h1.1V412z M-214.3,392.6c0,1.1-0.6,2.4-1.4,3c-0.6,0.3-1.2,0.6-1.9,0.6
				c-1.9,0-3.4-1.5-3.4-3.5v-0.7h6.3c0.1,0,0.2,0,0.4,0L-214.3,392.6C-214.3,392.6-214.3,392.6-214.3,392.6z M-237.2,402.8
				c0.4,0,0.7-0.3,0.7-0.7s-0.3-0.7-0.7-0.7s-0.7,0.3-0.7,0.7S-237.6,402.8-237.2,402.8z"/>
		</g>
	</g>
</g>
</svg>
