<?xml version="1.0" encoding="utf-8"?>
<!-- Generator: Adobe Illustrator 19.1.0, SVG Export Plug-In . SVG Version: 6.00 Build 0)  -->
<svg version="1.1" id="Layer_1" xmlns="http://www.w3.org/2000/svg" xmlns:xlink="http://www.w3.org/1999/xlink" x="0px" y="0px"
	 width="75px" height="75px" viewBox="-268 359 75 75" style="enable-background:new -268 359 75 75;" xml:space="preserve">
<style type="text/css">
	.st0{fill:none;stroke:#167DBA;stroke-width:3;stroke-miterlimit:10;}
	.st1{fill:#167DBA;}
</style>
<g>
	<circle class="st0" cx="-230.5" cy="396.5" r="36"/>
	<g>
		<g>
			<path class="st1" d="M-213,406.5c-0.3,0-0.6,0-1,0c-1.3,0-3.1,0.2-5.3,0.5c-2.2-4.2-6.7-11.4-10.9-12.3c0-1.2,0.1-2.4,0.4-3.6
				c0.1-0.6,0.3-1.1,0.6-1.7c1.2,0.8,2.5,1.1,3.8,1.1c2.1,0,4.2-0.9,5.6-2.7c3.8-5,2.1-14.2,2.1-14.2s-9,0.7-13,5.4
				c-3-1.6-7-1.7-8.3-1.7c-0.3,0-0.4,0-0.4,0s-0.5,7.3,3,10.8c1.1,1.1,2.5,1.6,3.9,1.6c0.4,0,0.8-0.1,1.3-0.1
				c-0.1,0.4-0.2,0.7-0.3,1.1c-0.4,1.4-0.5,2.8-0.5,4.2c-3.5,0.9-7,5.9-9.4,9.9c-0.8,0-1.5-0.1-2.2-0.1c-0.3,0-0.7,0-1,0
				c-7.3,0-8.8,4.5-8.8,4.5v4.7c0,2.7,8.3,4,8.3,4c6.6,1.3,14.7,1.7,14.7,1.7s22.2-8.7,22.8-9.2C-207.1,409.8-207.4,407-213,406.5z
				 M-232.6,387.7c-1,0-1.9-0.4-2.5-1.1c-1.1-1.1-1.9-3.1-2.2-5.6c-0.1-0.7-0.2-1.4-0.2-1.9c0.8,0.1,1.7,0.2,2.7,0.4
				c1.1,0.2,2.2,0.6,3,1c-0.4,0.9-0.6,1.8-0.7,2.7c-0.3-0.4-0.5-0.6-0.5-0.6c-0.2-0.2-0.4-0.3-0.7-0.3c-0.5,0-1,0.4-1,0.9
				c0,0.3,0.1,0.5,0.2,0.7c1.1,1.2,2.2,2.6,3,3.6C-231.8,387.6-232.2,387.7-232.6,387.7z M-229.4,380.4c1.7-2.1,4.7-3.4,7-4
				c1.1-0.3,2.2-0.6,3.1-0.7c0.1,0.9,0.1,1.9,0.1,3.1c-0.1,2.4-0.5,5.6-2.1,7.8c-1,1.3-2.4,2-4,2c-1.1,0-2.1-0.3-3-1
				c0.3-0.5,0.6-1,0.9-1.5c1.9-2.7,4.2-4.3,4.2-4.3h0c0.3-0.2,0.5-0.6,0.4-0.9c-0.1-0.5-0.6-0.9-1.1-0.8c-0.1,0-0.3,0.1-0.4,0.2v0
				c-0.1,0.1-2.5,1.7-4.6,4.7c-0.3,0.4-0.5,0.8-0.8,1.2c-0.4-0.6-0.6-1.3-0.7-2C-230.6,382.8-230.3,381.5-229.4,380.4z
				 M-238.4,403.4c1.4-2.1,2.7-3.8,4-4.9c1.3-1.2,2.5-1.9,3.4-1.9c0,0,0,0,0,0h0c0.9,0,2.1,0.6,3.4,1.9c1.2,1.2,2.6,2.8,4,4.9
				c0.9,1.4,1.7,2.7,2.3,3.9c-1.2,0.2-2.4,0.4-3.7,0.6c-0.6-1.8-4.6-2.6-4.6-2.6s-4.9-0.3-9.7-0.5
				C-239,404.3-238.7,403.8-238.4,403.4z M-219.3,413c-3.9,1.5-8.1,3.2-11.5,4.6c-1.7-0.1-8.5-0.6-14-1.7l0,0l0,0
				c0,0-1.6-0.3-3.3-0.8c-2.4-0.7-3.2-1.3-3.4-1.5v-4.1c0.1-0.3,0.5-0.7,1-1.2c0.6-0.5,1.3-0.9,2.1-1.2c1.1-0.4,2.3-0.6,3.8-0.6
				c0.3,0,0.6,0,0.9,0c5.1,0.3,12.7,0.7,13.9,0.8c0.2,0.1,0.8,0.2,1.5,0.4c0.6,0.2,1,0.5,1.3,0.6c-2,0.5-8,1.8-12.3,1.9
				c-0.5,0-0.9,0.4-0.9,1c0,0.5,0.4,1,1,1c2.3,0,5.2-0.4,8.8-1.1c2.1-0.4,3.7-0.8,4.3-0.9l1.6-0.3c5.3-0.9,8.7-1.4,10.7-1.4
				c0.3,0,0.6,0,0.8,0c1.7,0.1,2.6,0.5,3.1,0.8C-211.9,410-215.4,411.4-219.3,413z"/>
		</g>
	</g>
</g>
</svg>
