<?xml version="1.0" encoding="utf-8"?>
<!-- Generator: Adobe Illustrator 19.1.0, SVG Export Plug-In . SVG Version: 6.00 Build 0)  -->
<svg version="1.1" id="Layer_1" xmlns="http://www.w3.org/2000/svg" xmlns:xlink="http://www.w3.org/1999/xlink" x="0px" y="0px"
	 width="75px" height="75px" viewBox="-268 359 75 75" style="enable-background:new -268 359 75 75;" xml:space="preserve">
<style type="text/css">
	.st0{fill:none;stroke:#167DBA;stroke-width:3;stroke-miterlimit:10;}
	.st1{fill:#167DBA;}
</style>
<g>
	<circle class="st0" cx="-230.5" cy="396.5" r="36"/>
	<g>
		<g>
			<path class="st1" d="M-238.4,401.1c1.7,0,3-1.3,3-3s-1.3-3-3-3c-1.7,0-3,1.3-3,3S-240,401.1-238.4,401.1z M-238.4,396.6
				c0.8,0,1.5,0.7,1.5,1.5c0,0.8-0.7,1.5-1.5,1.5c-0.8,0-1.5-0.7-1.5-1.5C-239.9,397.3-239.2,396.6-238.4,396.6z M-232.2,401.3
				c-1.7,0-3,1.3-3,3c0,1.7,1.3,3,3,3c1.7,0,3-1.3,3-3C-229.2,402.6-230.6,401.3-232.2,401.3z M-232.2,405.8c-0.8,0-1.5-0.7-1.5-1.5
				c0-0.8,0.7-1.5,1.5-1.5c0.8,0,1.5,0.7,1.5,1.5C-230.7,405.1-231.4,405.8-232.2,405.8z M-230.1,396c-0.3-0.3-0.8-0.3-1,0l-9.4,9.4
				c-0.3,0.3-0.3,0.8,0,1c0.1,0.1,0.3,0.2,0.5,0.2s0.4-0.1,0.5-0.2l9.4-9.4C-229.8,396.7-229.8,396.3-230.1,396z M-214.8,375.2
				c-4-0.4-6.9,1.4-8.5,5.5c-0.1,0.3-0.2,0.5-0.3,0.8h-7.9c-0.3,0-0.6,0.1-0.8,0.3l-19.8,19.8c-0.4,0.4-0.4,1.1,0,1.6l14.3,14.3
				c0.2,0.2,0.5,0.3,0.8,0.3c0.3,0,0.6-0.1,0.8-0.3l19.9-19.7c0.2-0.2,0.3-0.5,0.3-0.8v-5.9c2.4-0.9,7.4-3.3,7.4-8.5
				C-208.6,379.4-210.5,375.7-214.8,375.2z M-223.8,390.8C-223.8,390.8-223.8,390.7-223.8,390.8c0,0,0.1,0.2,0.1,0.3
				c0,0.5-0.2,1-0.5,1.3h0c-0.3,0.3-0.8,0.5-1.3,0.5s-1-0.2-1.3-0.5c-0.3-0.3-0.5-0.8-0.5-1.3c0-0.5,0.2-1,0.5-1.3
				c0.3-0.3,0.8-0.5,1.3-0.5c-0.1,0.3-0.2,0.6-0.3,0.9c-0.2,0.6,0.1,1.2,0.7,1.4c0.1,0,0.2,0.1,0.3,0.1
				C-224.4,391.6-223.9,391.3-223.8,390.8z M-218.2,396.5l-18.8,18.6l-12.8-12.8l18.7-18.7h6.7c-0.2,0.8-0.4,1.5-0.5,2.2
				c-0.1,0.6-0.2,1.2-0.4,1.9c-0.1,0-0.2,0-0.4,0c-0.9,0-1.7,0.3-2.3,1c-0.6,0.6-1,1.5-1,2.3c0,0.9,0.3,1.7,1,2.3
				c0.6,0.6,1.5,1,2.3,1s1.7-0.3,2.3-1h0c0.6-0.6,1-1.5,1-2.3c0-0.9-0.3-1.7-0.9-2.3c0.3-1,0.4-1.8,0.6-2.5c0.2-0.8,0.3-1.6,0.6-2.6
				h3.4c0.3,0,0.4,0.2,0.4,0.4V396.5z M-216,388.7v-4.6c0,0,0-0.1,0-0.1c-0.2-1.4-1.1-2.3-2.5-2.4c0,0-0.1,0-0.1,0h-2.6
				c1.2-3.1,3.2-4.4,6.2-4.1c3.3,0.3,4.2,3.5,4.2,5.2C-210.8,385.2-212.4,387.1-216,388.7z"/>
		</g>
	</g>
</g>
</svg>
