<?xml version="1.0" encoding="utf-8"?>
<!-- Generator: Adobe Illustrator 19.1.0, SVG Export Plug-In . SVG Version: 6.00 Build 0)  -->
<svg version="1.1" id="Layer_1" xmlns="http://www.w3.org/2000/svg" xmlns:xlink="http://www.w3.org/1999/xlink" x="0px" y="0px"
	 width="75px" height="75px" viewBox="-268 359 75 75" style="enable-background:new -268 359 75 75;" xml:space="preserve">
<style type="text/css">
	.st0{fill:none;stroke:#167DBA;stroke-width:3;stroke-miterlimit:10;}
	.st1{fill:#2779B8;}
</style>
<g>
	<circle class="st0" cx="-230.5" cy="396.5" r="36"/>
	<g>
		<path class="st1" d="M-216.5,374.5h-28c-1.7,0-3,1.3-3,3v38c0,1.7,1.3,3,3,3h28c1.7,0,3-1.3,3-3v-38
			C-213.5,375.8-214.8,374.5-216.5,374.5z M-215.5,415.5c0,0.6-0.4,1-1,1h-28c-0.6,0-1-0.4-1-1v-38c0-0.6,0.4-1,1-1h28
			c0.6,0,1,0.4,1,1V415.5z"/>
		<circle class="st1" cx="-223.5" cy="384.5" r="1"/>
		<circle class="st1" cx="-227.5" cy="384.5" r="1"/>
		<circle class="st1" cx="-231.5" cy="384.5" r="1"/>
		<path class="st1" d="M-218.5,378.5h-24c-0.6,0-1,0.4-1,1v10c0,0.6,0.4,1,1,1h24c0.6,0,1-0.4,1-1v-10
			C-217.5,378.9-217.9,378.5-218.5,378.5z M-219.5,388.5h-22v-8h22V388.5z"/>
		<path class="st1" d="M-234.5,396.5h-2v-2c0-0.6-0.4-1-1-1s-1,0.4-1,1v2h-2c-0.6,0-1,0.4-1,1s0.4,1,1,1h2v2c0,0.6,0.4,1,1,1
			s1-0.4,1-1v-2h2c0.6,0,1-0.4,1-1S-233.9,396.5-234.5,396.5z"/>
		<path class="st1" d="M-220.5,396.5h-6c-0.6,0-1,0.4-1,1s0.4,1,1,1h6c0.6,0,1-0.4,1-1S-219.9,396.5-220.5,396.5z"/>
		<path class="st1" d="M-220.5,406.5h-6c-0.6,0-1,0.4-1,1s0.4,1,1,1h6c0.6,0,1-0.4,1-1S-219.9,406.5-220.5,406.5z"/>
		<path class="st1" d="M-220.5,410.5h-6c-0.6,0-1,0.4-1,1s0.4,1,1,1h6c0.6,0,1-0.4,1-1S-219.9,410.5-220.5,410.5z"/>
		<path class="st1" d="M-233.8,405.8c-0.4-0.4-1-0.4-1.4,0l-2.3,2.3l-2.3-2.3c-0.4-0.4-1-0.4-1.4,0c-0.4,0.4-0.4,1,0,1.4l2.3,2.3
			l-2.3,2.3c-0.4,0.4-0.4,1,0,1.4c0.2,0.2,0.5,0.3,0.7,0.3s0.5-0.1,0.7-0.3l2.3-2.3l2.3,2.3c0.2,0.2,0.5,0.3,0.7,0.3
			s0.5-0.1,0.7-0.3c0.4-0.4,0.4-1,0-1.4l-2.3-2.3l2.3-2.3C-233.4,406.8-233.4,406.2-233.8,405.8z"/>
	</g>
</g>
</svg>
