<?xml version="1.0" encoding="utf-8"?>
<!-- Generator: Adobe Illustrator 19.1.0, SVG Export Plug-In . SVG Version: 6.00 Build 0)  -->
<svg version="1.1" id="Layer_1" xmlns="http://www.w3.org/2000/svg" xmlns:xlink="http://www.w3.org/1999/xlink" x="0px" y="0px"
	 width="75px" height="75px" viewBox="-268 359 75 75" style="enable-background:new -268 359 75 75;" xml:space="preserve">
<style type="text/css">
	.st0{fill:none;stroke:#167DBA;stroke-width:3;stroke-miterlimit:10;}
	.st1{fill-rule:evenodd;clip-rule:evenodd;fill:#167DBA;}
</style>
<g>
	<circle class="st0" cx="-230.5" cy="396.5" r="36"/>
	<g>
		<g>
			<path class="st1" d="M-209,406.8c-0.6,0-1.1,0.5-1.1,1.1v1.1h-1.1c-0.6,0-1.1,0.5-1.1,1.1s0.5,1.1,1.1,1.1h2.3
				c0.6,0,1.1-0.5,1.1-1.1v-2.3C-207.8,407.3-208.3,406.8-209,406.8z M-231.5,409.1h-4.1c-0.6,0-1.1,0.5-1.1,1.1s0.5,1.1,1.1,1.1
				h4.1c0.6,0,1.1-0.5,1.1-1.1S-230.9,409.1-231.5,409.1z M-239.6,409.1h-4.1c-0.6,0-1.1,0.5-1.1,1.1s0.5,1.1,1.1,1.1h4.1
				c0.6,0,1.1-0.5,1.1-1.1S-239,409.1-239.6,409.1z M-223.4,409.1h-4.1c-0.6,0-1.1,0.5-1.1,1.1s0.5,1.1,1.1,1.1h4.1
				c0.6,0,1.1-0.5,1.1-1.1S-222.8,409.1-223.4,409.1z M-215.3,409.1h-4.1c-0.6,0-1.1,0.5-1.1,1.1s0.5,1.1,1.1,1.1h4.1
				c0.6,0,1.1-0.5,1.1-1.1S-214.7,409.1-215.3,409.1z M-247.7,409.1h-1.1v-1.1c0-0.6-0.5-1.1-1.1-1.1c-0.6,0-1.1,0.5-1.1,1.1v2.3
				c0,0.6,0.5,1.1,1.1,1.1h2.3c0.6,0,1.1-0.5,1.1-1.1S-247.1,409.1-247.7,409.1z M-250,404.8c0.6,0,1.1-0.5,1.1-1.1v-4.3
				c0-0.6-0.5-1.1-1.1-1.1c-0.6,0-1.1,0.5-1.1,1.1v4.3C-251.2,404.3-250.7,404.8-250,404.8z M-250,396.3c0.6,0,1.1-0.5,1.1-1.1v-4.3
				c0-0.6-0.5-1.1-1.1-1.1c-0.6,0-1.1,0.5-1.1,1.1v4.3C-251.2,395.8-250.7,396.3-250,396.3z M-247.7,383.2h-2.3
				c-0.6,0-1.1,0.5-1.1,1.1v2.3c0,0.6,0.5,1.1,1.1,1.1c0.6,0,1.1-0.5,1.1-1.1v-1.1h1.1c0.6,0,1.1-0.5,1.1-1.1
				S-247.1,383.2-247.7,383.2z M-215.3,383.2h-4.1c-0.6,0-1.1,0.5-1.1,1.1s0.5,1.1,1.1,1.1h4.1c0.6,0,1.1-0.5,1.1-1.1
				S-214.7,383.2-215.3,383.2z M-243.7,385.5h4.1c0.6,0,1.1-0.5,1.1-1.1s-0.5-1.1-1.1-1.1h-4.1c-0.6,0-1.1,0.5-1.1,1.1
				S-244.3,385.5-243.7,385.5z M-209,383.2h-2.3c-0.6,0-1.1,0.5-1.1,1.1s0.5,1.1,1.1,1.1h1.1v1.1c0,0.6,0.5,1.1,1.1,1.1
				c0.6,0,1.1-0.5,1.1-1.1v-2.3C-207.8,383.7-208.3,383.2-209,383.2z M-209,389.8c-0.6,0-1.1,0.5-1.1,1.1v4.3c0,0.6,0.5,1.1,1.1,1.1
				c0.6,0,1.1-0.5,1.1-1.1v-4.3C-207.8,390.3-208.3,389.8-209,389.8z M-209,398.3c-0.6,0-1.1,0.5-1.1,1.1v4.3c0,0.6,0.5,1.1,1.1,1.1
				c0.6,0,1.1-0.5,1.1-1.1v-4.3C-207.8,398.8-208.3,398.3-209,398.3z M-244.3,390.5v14.1c0,0.4,0.3,0.8,0.8,0.8
				c0.4,0,0.8-0.3,0.8-0.8v-14.1c0-0.4-0.3-0.8-0.8-0.8C-244,389.7-244.3,390-244.3,390.5z M-217.7,389.7c-0.4,0-0.8,0.3-0.8,0.8
				v14.1c0,0.4,0.3,0.8,0.8,0.8c0.4,0,0.8-0.3,0.8-0.8v-14.1C-217,390-217.3,389.7-217.7,389.7z M-216.2,390.5v14.1
				c0,0.4,0.3,0.8,0.8,0.8c0.4,0,0.8-0.3,0.8-0.8v-14.1c0-0.4-0.3-0.8-0.8-0.8C-215.9,389.7-216.2,390-216.2,390.5z M-225.3,390.5
				v14.1c0,0.4,0.3,0.8,0.8,0.8c0.4,0,0.8-0.3,0.8-0.8v-14.1c0-0.4-0.3-0.8-0.8-0.8C-225,389.7-225.3,390-225.3,390.5z
				 M-240.5,389.7c-0.6,0-1.1,0.5-1.1,1.1v13.3c0,0.6,0.5,1.1,1.1,1.1s1.1-0.5,1.1-1.1v-13.3C-239.4,390.2-239.9,389.7-240.5,389.7z
				 M-226.8,404.1v-13.3c0-0.6-0.5-1.1-1.1-1.1s-1.1,0.5-1.1,1.1v13.3c0,0.6,0.5,1.1,1.1,1.1S-226.8,404.8-226.8,404.1z
				 M-219.2,404.1v-13.3c0-0.6-0.5-1.1-1.1-1.1c-0.6,0-1.1,0.5-1.1,1.1v13.3c0,0.6,0.5,1.1,1.1,1.1
				C-219.7,405.3-219.2,404.8-219.2,404.1z M-228.8,387.6l3.8-1.9l7.9,3.9c0.2,0.1,0.3,0.1,0.5,0.1c0.4,0,0.8-0.2,1-0.6
				c0.3-0.6,0.1-1.2-0.5-1.5l-6.2-3.1c0,0,0-0.1,0-0.1c0,0,0,0,0-0.1l6.2-3.1c0.6-0.3,0.8-1,0.5-1.5c-0.3-0.6-1-0.8-1.5-0.5
				l-7.9,3.9l-3.8-1.9c0-0.2,0.1-0.4,0.1-0.7c0-2.7-2.2-4.9-4.9-4.9s-4.9,2.2-4.9,4.9c0,1.5,0.7,2.9,1.8,3.8
				c-1.1,0.9-1.8,2.3-1.8,3.8c0,0.7,0.1,1.3,0.4,1.9c-0.2,0.2-0.4,0.5-0.4,0.8v13.3c0,0.6,0.5,1.1,1.1,1.1s1.1-0.5,1.1-1.1v-11.8
				c0.7,0.4,1.4,0.7,2.3,0.8v11.4c0,0.4,0.3,0.8,0.8,0.8s0.8-0.3,0.8-0.8V393c0.3-0.1,0.5-0.1,0.8-0.2v11.8c0,0.4,0.3,0.8,0.8,0.8
				c0.4,0,0.8-0.3,0.8-0.8v-12.8c0.9-0.9,1.5-2.2,1.5-3.6C-228.7,388-228.8,387.8-228.8,387.6z M-233.7,390.8
				c-1.5,0-2.7-1.2-2.7-2.7c0-1.5,1.2-2.7,2.7-2.7c1.5,0,2.7,1.2,2.7,2.7C-231,389.6-232.2,390.8-233.7,390.8z M-233.7,383.2
				c-1.5,0-2.7-1.2-2.7-2.7c0-1.5,1.2-2.7,2.7-2.7c1.5,0,2.7,1.2,2.7,2.7C-231,382-232.2,383.2-233.7,383.2z M-230.4,384.5
				c0,0,0-0.1,0-0.1s0-0.1,0-0.1c0.3-0.3,0.6-0.6,0.8-0.9l2.1,1l-2,1C-229.8,385.1-230.1,384.8-230.4,384.5z"/>
		</g>
	</g>
</g>
</svg>
