<?xml version="1.0" encoding="utf-8"?>
<!-- Generator: Adobe Illustrator 19.1.0, SVG Export Plug-In . SVG Version: 6.00 Build 0)  -->
<svg version="1.1" id="Layer_1" xmlns="http://www.w3.org/2000/svg" xmlns:xlink="http://www.w3.org/1999/xlink" x="0px" y="0px"
	 width="75px" height="75px" viewBox="-268 359 75 75" style="enable-background:new -268 359 75 75;" xml:space="preserve">
<style type="text/css">
	.st0{fill:none;stroke:#167DBA;stroke-width:3;stroke-miterlimit:10;}
	.st1{fill:#167DBA;}
</style>
<g>
	<circle class="st0" cx="-230.5" cy="396.5" r="36"/>
	<path class="st1" d="M-251.5,412.5h1c1.7,0,3-1.3,3-3v-10c0-0.6,0.4-1,1-1h2c0.6,0,1,0.4,1,1v10c0,1.7,1.3,3,3,3s3-1.3,3-3v-18
		c0-0.6,0.4-1,1-1h2c0.6,0,1,0.4,1,1v18c0,1.7,1.3,3,3,3s3-1.3,3-3v-26c0-0.6,0.4-1,1-1h2c0.6,0,1,0.4,1,1v26c0,1.7,1.3,3,3,3
		s3-1.3,3-3v-14c0-0.6,0.4-1,1-1h2c0.6,0,1,0.4,1,1v14c0,1.7,1.3,3,3,3h1c0.6,0,1-0.4,1-1s-0.4-1-1-1h-1c-0.6,0-1-0.4-1-1v-14
		c0-1.7-1.3-3-3-3h-2c-1.7,0-3,1.3-3,3v14c0,0.6-0.4,1-1,1c-0.6,0-1-0.4-1-1v-26c0-1.7-1.3-3-3-3h-2c-1.7,0-3,1.3-3,3v26
		c0,0.6-0.4,1-1,1s-1-0.4-1-1v-18c0-1.7-1.3-3-3-3h-2c-1.7,0-3,1.3-3,3v18c0,0.6-0.4,1-1,1s-1-0.4-1-1v-10c0-1.7-1.3-3-3-3h-2
		c-1.7,0-3,1.3-3,3v10c0,0.6-0.4,1-1,1h-1c-0.6,0-1,0.4-1,1S-252.1,412.5-251.5,412.5z"/>
</g>
</svg>
