<?xml version="1.0" encoding="utf-8"?>
<!-- Generator: Adobe Illustrator 19.1.0, SVG Export Plug-In . SVG Version: 6.00 Build 0)  -->
<svg version="1.1" id="Layer_1" xmlns="http://www.w3.org/2000/svg" xmlns:xlink="http://www.w3.org/1999/xlink" x="0px" y="0px"
	 width="75px" height="75px" viewBox="-268 359 75 75" style="enable-background:new -268 359 75 75;" xml:space="preserve">
<style type="text/css">
	.st0{fill:none;stroke:#167DBA;stroke-width:3;stroke-miterlimit:10;}
	.st1{fill:#167DBA;}
</style>
<g>
	<circle class="st0" cx="-230.5" cy="396.5" r="36"/>
	<g>
		<g>
			<polygon class="st1" points="-237.9,385.4 -238.8,384.4 -242.4,387.4 -243.3,386.5 -244.3,387.4 -242.5,389.2 			"/>
			<rect x="-235.6" y="384.9" class="st1" width="10.2" height="1.4"/>
			<rect x="-235.6" y="387.6" class="st1" width="11.6" height="1.4"/>
			<polygon class="st1" points="-237.9,392.2 -238.8,391.2 -242.4,394.2 -243.3,393.3 -244.3,394.3 -242.5,396.1 			"/>
			<rect x="-235.6" y="391.7" class="st1" width="14.3" height="1.4"/>
			<rect x="-235.6" y="394.5" class="st1" width="2.7" height="1.4"/>
			<rect x="-231.5" y="394.5" class="st1" width="10.2" height="1.4"/>
			<polygon class="st1" points="-237.9,399.1 -238.8,398 -242.4,401 -243.3,400.1 -244.3,401.1 -242.5,402.9 			"/>
			<rect x="-235.6" y="398.5" class="st1" width="14.3" height="1.4"/>
			<rect x="-235.6" y="401.3" class="st1" width="10.2" height="1.4"/>
			<rect x="-224" y="401.3" class="st1" width="2.7" height="1.4"/>
			<rect x="-224" y="384.9" class="st1" width="2.7" height="1.4"/>
			<path class="st1" d="M-210.4,406.7h-1.4h-1.4h-1.4h-1.4v-28c0-1.9-1.5-3.4-3.4-3.4h-28c-1.9,0-3.4,1.5-3.4,3.4
				c0,1.9,1.5,3.4,3.4,3.4v35.5h28.6v-4.1h2.7v-2.7h1.4h1.4h1.4h1.4c1.1,0,2-0.9,2-2C-208.4,407.6-209.3,406.7-210.4,406.7z
				 M-217.2,378.8v28h-1.4v-25.9h-0.7c-1.1,0-2-0.9-2-2c0-1.1,0.9-2,2-2S-217.2,377.6-217.2,378.8z M-249.3,378.8c0-1.1,0.9-2,2-2
				h25.3c-0.4,0.6-0.7,1.3-0.7,2c0,0.8,0.3,1.5,0.7,2h-25.3C-248.4,380.8-249.3,379.9-249.3,378.8z M-245.9,416.3v-34.1h25.9v24.6
				h-19.2l-6.1,2l6.1,2h19.2v5.5L-245.9,416.3L-245.9,416.3z M-241,408.8l1.3-0.4v0.8L-241,408.8z M-217.2,412.2h-1.4v-1.4h1.4
				V412.2z M-215.9,409.5h-22.5v-1.4h22.5V409.5L-215.9,409.5z M-213.1,409.5h-1.4v-1.4h1.4V409.5z M-210.4,409.5h-1.4v-1.4h1.4
				c0.4,0,0.7,0.3,0.7,0.7C-209.7,409.2-210,409.5-210.4,409.5z"/>
		</g>
	</g>
</g>
</svg>
