<?xml version="1.0" encoding="utf-8"?>
<!-- Generator: Adobe Illustrator 19.1.0, SVG Export Plug-In . SVG Version: 6.00 Build 0)  -->
<svg version="1.1" id="Layer_1" xmlns="http://www.w3.org/2000/svg" xmlns:xlink="http://www.w3.org/1999/xlink" x="0px" y="0px"
	 width="75px" height="75px" viewBox="-268 359 75 75" style="enable-background:new -268 359 75 75;" xml:space="preserve">
<style type="text/css">
	.st0{fill:none;stroke:#167DBA;stroke-width:3;stroke-miterlimit:10;}
	.st1{fill:#2779B8;}
</style>
<g>
	<circle class="st0" cx="-230.5" cy="396.5" r="36"/>
	<g>
		<g>
			<path class="st1" d="M-212.9,415.7c-2.9-7.7-10.5-8.7-12.8-8.8c0-0.1,0-0.3,0-0.4V404c0.1,0,0.2-0.1,0.2-0.1
				c2.4,2.3,5.5,3.4,9.4,3.4h1.2l0-17.9c0-0.4,0-0.8-0.1-1.1l0,0c-0.6-8.3-7.5-14.8-15.8-14.8c-8.3,0-15.3,6.5-15.8,14.8l0,0
				c0,0.3-0.1,0.7-0.1,1.1v17.9h1.2c3.9,0,7-1.2,9.4-3.4c0.2,0.1,0.4,0.2,0.6,0.3v2.3c0,0.1,0,0.3,0,0.4c-2.6,0.1-9.9,1.2-12.8,8.8
				c-0.2,0.6,0.1,1.3,0.7,1.6c0.1,0.1,0.3,0.1,0.4,0.1c0.5,0,0.9-0.3,1.1-0.8c2.9-7.5,11-7.3,11.3-7.3c0,0,0.1,0,0.1,0
				c0.9,1.2,2.3,2,3.9,2c1.6,0,3.1-0.8,3.9-2.1c0.1,0,0.2,0,0.3,0c0.1,0,8.3-0.3,11.1,7.3c0.2,0.5,0.6,0.8,1.1,0.8
				c0.1,0,0.3,0,0.4-0.1C-213,417.1-212.7,416.4-212.9,415.7z M-240.5,393.8v-3.1c4.3-0.3,9.9-1.6,14.1-6.2c1.7,1.7,3.5,3.4,5.6,4.6
				v4.7c0,5.4-4.4,9.8-9.8,9.8C-236.1,403.6-240.5,399.2-240.5,393.8z M-244.2,404.9l0-15.4c0-0.2,0-0.4,0-0.6l0-0.3
				c0.5-7,6.4-12.5,13.4-12.5c7,0,12.9,5.5,13.4,12.5l0,0.3c0,0.2,0,0.4,0,0.6v15.4c-2.5-0.2-4.5-1-6.1-2.4c2.5-2.1,4.1-5.3,4.1-8.8
				v-5.2c0-0.3-0.2-0.6-0.4-0.7c-2.3-1.2-4.4-3.3-6.2-5.2c-0.2-0.2-0.4-0.2-0.6-0.2c-0.2,0-0.4,0.1-0.6,0.3c-4.1,5-10,6.2-14.3,6.4
				c-0.4,0-0.8,0.4-0.8,0.8v3.9c0,3.5,1.6,6.7,4.1,8.8C-239.6,403.9-241.7,404.7-244.2,404.9z M-230.5,409c-1.3,0-2.4-1.1-2.4-2.4
				V405c0.7,0.1,1.5,0.2,2.2,0.2c0.9,0,1.8-0.1,2.6-0.3v1.7C-228.1,407.9-229.2,409-230.5,409z"/>
		</g>
	</g>
</g>
</svg>
