<?xml version="1.0" encoding="utf-8"?>
<!-- Generator: Adobe Illustrator 19.1.0, SVG Export Plug-In . SVG Version: 6.00 Build 0)  -->
<svg version="1.1" id="Layer_1" xmlns="http://www.w3.org/2000/svg" xmlns:xlink="http://www.w3.org/1999/xlink" x="0px" y="0px"
	 width="75px" height="75px" viewBox="-268 359 75 75" style="enable-background:new -268 359 75 75;" xml:space="preserve">
<style type="text/css">
	.st0{fill:none;stroke:#167DBA;stroke-width:3;stroke-miterlimit:10;}
	.st1{fill:#167DBA;}
</style>
<g>
	<circle class="st0" cx="-230.5" cy="396.5" r="36"/>
	<g>
		<g>
			<path class="st1" d="M-222.5,390.8c1.4,0,2.6-1.2,2.6-2.6v-11.5c0-1.4-1.2-2.6-2.6-2.6h-16c-1.4,0-2.6,1.2-2.6,2.6v11.5
				c0,1.4,1.2,2.6,2.6,2.6h7v2.2h-2.2c-0.5,0-1,0.4-1,1s0.4,1,1,1h6.4c0.5,0,1-0.4,1-1s-0.4-1-1-1h-2.2v-2.2H-222.5z M-238.5,388.9
				c-0.4,0-0.7-0.3-0.7-0.7v-11.5c0-0.4,0.3-0.7,0.7-0.7h15.9c0.4,0,0.7,0.3,0.7,0.7v11.5c0,0.4-0.3,0.7-0.7,0.7H-238.5z"/>
			<path class="st1" d="M-235.9,398.1h-16c-1.4,0-2.6,1.2-2.6,2.6v11.5c0,1.4,1.2,2.6,2.6,2.6h7v2.2h-2.2c-0.5,0-1,0.4-1,1
				s0.4,1,1,1h6.4c0.5,0,1-0.4,1-1s-0.4-1-1-1h-2.2v-2.2h7c1.4,0,2.6-1.2,2.6-2.6v-11.5C-233.3,399.2-234.5,398.1-235.9,398.1z
				 M-235.2,412.1c0,0.4-0.3,0.7-0.7,0.7h-16c-0.4,0-0.7-0.3-0.7-0.7v-11.5c0-0.4,0.3-0.7,0.7-0.7h15.9c0.4,0,0.7,0.3,0.7,0.7
				L-235.2,412.1L-235.2,412.1z"/>
			<path class="st1" d="M-209.1,398.1h-16c-1.4,0-2.6,1.2-2.6,2.6v11.5c0,1.4,1.2,2.6,2.6,2.6h7v2.2h-2.2c-0.5,0-1,0.4-1,1
				s0.4,1,1,1h6.4c0.5,0,1-0.4,1-1s-0.4-1-1-1h-2.2v-2.2h7c1.4,0,2.6-1.2,2.6-2.6v-11.5C-206.5,399.2-207.7,398.1-209.1,398.1z
				 M-208.4,412.1c0,0.4-0.3,0.7-0.7,0.7h-16c-0.4,0-0.7-0.3-0.7-0.7v-11.5c0-0.4,0.3-0.7,0.7-0.7h15.9c0.4,0,0.7,0.3,0.7,0.7
				L-208.4,412.1L-208.4,412.1z"/>
			<path class="st1" d="M-251.8,380.9V394c0,0.5,0.4,1,1,1s1-0.4,1-1v-12.1h5.2c0.5,0,1-0.4,1-1c0-0.5-0.4-1-1-1h-6.2
				C-251.4,380-251.8,380.4-251.8,380.9z"/>
			<path class="st1" d="M-210.2,395c0.5,0,1-0.4,1-1v-13.1c0-0.5-0.4-1-1-1h-6.2c-0.5,0-1,0.4-1,1c0,0.5,0.4,1,1,1h5.2V394
				C-211.1,394.5-210.7,395-210.2,395z"/>
		</g>
	</g>
</g>
</svg>
