<?xml version="1.0" encoding="utf-8"?>
<!-- Generator: Adobe Illustrator 19.1.0, SVG Export Plug-In . SVG Version: 6.00 Build 0)  -->
<svg version="1.1" id="Layer_1" xmlns="http://www.w3.org/2000/svg" xmlns:xlink="http://www.w3.org/1999/xlink" x="0px" y="0px"
	 width="16px" height="16px" viewBox="0 0 16 16" style="enable-background:new 0 0 16 16;" xml:space="preserve">
<style type="text/css">
	.st0{fill:#243C4F;}
</style>
<path class="st0" d="M14,4.4L11.6,2h-3L7.5,3.2C4.6,2.9,2.2,4.6,2.2,4.6c-0.1,0.1-0.1,0.2,0,0.3C2.2,5,2.2,5,2.3,5c0,0,0.1,0,0.1,0
	c0,0,2.1-1.4,4.7-1.4L3.3,7.4l0,0L2,8.6L7.3,14l2.1-2.1c0.4,0.2,1,0.3,1.5,0.3c0.7,0,1.5-0.2,1.9-0.7c1.6-1.6,0.9-3.3,0.7-3.7
	L14,7.4L14,4.4L14,4.4z M11.5,2.5l2.1,2.1v2.6l-4.2,4.1C8.6,10.7,8.3,9.5,8.7,8c0-0.1,0-0.2-0.2-0.3c-0.1,0-0.2,0-0.3,0.2
	c-0.6,2.2,0.2,3.2,0.9,3.7l-0.5,0.5L3.9,7.4l3.8-3.7c0.9,0.1,1.8,0.4,2.8,1c0,0,0,0.1,0,0.1c0,0.5,0.4,0.8,0.8,0.8
	c0.5,0,0.8-0.4,0.8-0.8c0-0.5-0.4-0.8-0.8-0.8c-0.3,0-0.5,0.1-0.6,0.3C9.7,3.7,8.9,3.4,8,3.3l0.8-0.8H11.5z M10.9,4.9
	C11,5,11.1,5,11.2,4.9c0.1-0.1,0.1-0.2,0-0.3c-0.1,0-0.1-0.1-0.2-0.1c0.1-0.1,0.2-0.1,0.3-0.1c0.2,0,0.4,0.2,0.4,0.4
	c0,0.2-0.2,0.4-0.4,0.4C11.1,5.2,10.9,5.1,10.9,4.9C10.9,4.9,10.9,4.9,10.9,4.9z M2.6,8.6l1-1l4.8,4.7l-1,1L2.6,8.6z M12.6,11.2
	c-0.5,0.5-1.8,0.8-2.8,0.3l3.5-3.5C13.5,8.6,13.8,9.9,12.6,11.2z"/>
</svg>
