<?xml version="1.0" encoding="utf-8"?>
<!-- Generator: Adobe Illustrator 19.1.0, SVG Export Plug-In . SVG Version: 6.00 Build 0)  -->
<svg version="1.1" id="Layer_1" xmlns="http://www.w3.org/2000/svg" xmlns:xlink="http://www.w3.org/1999/xlink" x="0px" y="0px"
	 width="16px" height="16px" viewBox="0 0 16 16" style="enable-background:new 0 0 16 16;" xml:space="preserve">
<style type="text/css">
	.st0{fill:#243C4F;}
</style>
<g>
	<g>
		<path class="st0" d="M14,2H2C1.7,2,1.4,2.3,1.4,2.6v8.9c0,0.3,0.3,0.6,0.6,0.6h5.3c0,0.5-0.4,0.9-0.9,0.9H6.1V14h3.8v-0.9H9.6
			c-0.5,0-0.9-0.4-0.9-0.9H14c0.3,0,0.6-0.3,0.6-0.6V2.6C14.6,2.3,14.3,2,14,2z M2,2.6H14l0,7.1H2V2.6z M8.6,13.4H7.4
			c0.3-0.2,0.5-0.5,0.6-0.9H8C8.1,12.8,8.3,13.2,8.6,13.4z M2,11.5v-1.2H14l0,1.2H2z M12.3,4.2H3.7c-0.1,0-0.3,0.1-0.3,0.1v0.9
			c0,0.1,0.1,0.1,0.3,0.1h8.6c0.1,0,0.3-0.1,0.3-0.1V4.3C12.6,4.2,12.4,4.2,12.3,4.2z M12.1,5H3.9V4.4h8.1V5z M12.3,7.6H3.7
			c-0.1,0-0.3,0.1-0.3,0.1v0.6c0,0.1,0.1,0.1,0.3,0.1h8.6c0.1,0,0.3-0.1,0.3-0.1V7.7C12.6,7.7,12.4,7.6,12.3,7.6z M12.1,8.2H3.9V7.9
			h8.1V8.2z M3.7,6H8C8.1,6,8.3,6,8.3,5.9S8.1,5.7,8,5.7H3.7c-0.1,0-0.3,0.1-0.3,0.1S3.6,6,3.7,6z M12.3,6.3H3.7
			c-0.1,0-0.3,0.1-0.3,0.1s0.1,0.1,0.3,0.1h8.6c0.1,0,0.3-0.1,0.3-0.1S12.4,6.3,12.3,6.3z M12.3,6.9H3.7C3.6,6.9,3.4,6.9,3.4,7
			s0.1,0.1,0.3,0.1h8.6c0.1,0,0.3-0.1,0.3-0.1S12.4,6.9,12.3,6.9z"/>
	</g>
</g>
</svg>
