<?xml version="1.0" encoding="utf-8"?>
<!-- Generator: Adobe Illustrator 19.1.0, SVG Export Plug-In . SVG Version: 6.00 Build 0)  -->
<svg version="1.1" id="Layer_1" xmlns="http://www.w3.org/2000/svg" xmlns:xlink="http://www.w3.org/1999/xlink" x="0px" y="0px"
	 width="16px" height="16px" viewBox="0 0 16 16" style="enable-background:new 0 0 16 16;" xml:space="preserve">
<style type="text/css">
	.st0{fill:#243C4F;}
</style>
<g>
	<g>
		<path class="st0" d="M11.8,7.7H8.4c-0.1,0-0.2,0.1-0.2,0.2v1.9C8.2,10,8.3,10,8.4,10h3.4C11.9,10,12,10,12,9.8V7.9
			C12,7.8,11.9,7.7,11.8,7.7z M11.6,9.6h-3V8.1h3V9.6z M2.7,7.2h1.7c0.1,0,0.2-0.1,0.2-0.2c0-0.1-0.1-0.2-0.2-0.2H2.7
			C2.6,6.8,2.5,6.9,2.5,7C2.5,7.2,2.6,7.2,2.7,7.2z M6.9,6.8H5.2C5.1,6.8,5,6.9,5,7c0,0.1,0.1,0.2,0.2,0.2h1.7
			c0.1,0,0.2-0.1,0.2-0.2C7.2,6.9,7.1,6.8,6.9,6.8z M5.5,7.7H2.7c-0.1,0-0.2,0.1-0.2,0.2c0,0.1,0.1,0.2,0.2,0.2h2.8
			c0.1,0,0.2-0.1,0.2-0.2C5.7,7.8,5.6,7.7,5.5,7.7z M6.9,7.7H6.3c-0.1,0-0.2,0.1-0.2,0.2c0,0.1,0.1,0.2,0.2,0.2h0.6
			c0.1,0,0.2-0.1,0.2-0.2C7.2,7.8,7.1,7.7,6.9,7.7z M14.2,5c-0.1-0.2-0.3-0.3-0.6-0.3l-0.5-0.1v-1c0-0.5-0.4-0.9-0.8-0.9H2.5
			C2,2.7,1.6,3.1,1.6,3.6v6.9c0,0.4,0.3,0.7,0.6,0.8c0,0.4,0.3,0.8,0.7,0.9l9.8,1.1h0.1c0.4,0,0.8-0.3,0.8-0.7l0.6-6.9
			C14.4,5.4,14.3,5.2,14.2,5z M2.1,3.6c0-0.2,0.2-0.4,0.4-0.4h9.7c0.2,0,0.4,0.2,0.4,0.4v0.2H2.1V3.6z M2.1,4.2h10.6v1.3H2.1V4.2z
			 M2.1,10.5V6h10.6v4.5c0,0.2-0.2,0.4-0.4,0.4H2.5C2.3,10.9,2.1,10.7,2.1,10.5z M13.3,12.5c0,0.2-0.2,0.4-0.5,0.4l-9.8-1.1
			c-0.2,0-0.4-0.2-0.4-0.4h9.5c0.5,0,0.8-0.4,0.8-0.9V5l0.5,0c0.1,0,0.2,0.1,0.3,0.2c0.1,0.1,0.1,0.2,0.1,0.3L13.3,12.5z"/>
	</g>
</g>
</svg>
