<?xml version="1.0" encoding="utf-8"?>
<!-- Generator: Adobe Illustrator 19.1.0, SVG Export Plug-In . SVG Version: 6.00 Build 0)  -->
<svg version="1.1" id="Layer_1" xmlns="http://www.w3.org/2000/svg" xmlns:xlink="http://www.w3.org/1999/xlink" x="0px" y="0px"
	 width="16px" height="16px" viewBox="0 0 16 16" style="enable-background:new 0 0 16 16;" xml:space="preserve">
<style type="text/css">
	.st0{fill:#243C4F;}
</style>
<g>
	<g>
		<path class="st0" d="M13.7,5.4c-1-2.2-3.2-3.6-5.6-3.7c-2.5,0-4.8,1.4-5.8,3.7C1.5,5.5,1,6.1,1,6.9v2.2c0,0.7,0.6,1.4,1.3,1.5
			c1,2.2,3.2,3.7,5.7,3.7c2.5,0,4.7-1.4,5.7-3.7c0.7-0.1,1.3-0.7,1.3-1.5V6.9C15,6.1,14.5,5.5,13.7,5.4z M8.1,2.3
			c2.1,0,4.1,1.3,5,3.1H2.9C3.9,3.5,5.9,2.2,8.1,2.3z M8,13.7c-2.2,0-4.2-1.2-5.1-3.1h10.3C12.2,12.5,10.2,13.7,8,13.7z M14.5,9.1
			c0,0.5-0.4,0.9-0.9,0.9H2.5c-0.5,0-0.9-0.4-0.9-0.9V6.9c0-0.5,0.4-0.9,0.9-0.9h11.1c0.5,0,0.9,0.4,0.9,0.9V9.1z M4.9,8.4L4.4,7
			H3.8L3.3,8.4L2.9,7H2.2L3,9.3h0.7L4.1,8l0.4,1.3h0.7L6,7H5.3L4.9,8.4z M8.8,8.4L8.3,7H7.7L7.2,8.4L6.8,7H6.1l0.8,2.3h0.7L8,8
			l0.4,1.3h0.7L9.9,7H9.2L8.8,8.4z M12.6,8.4L12.2,7h-0.6l-0.5,1.4L10.7,7H10l0.8,2.3h0.7L11.9,8l0.4,1.3H13L13.8,7h-0.7L12.6,8.4z"
			/>
	</g>
</g>
</svg>
