<?xml version="1.0" encoding="utf-8"?>
<!-- Generator: Adobe Illustrator 19.1.0, SVG Export Plug-In . SVG Version: 6.00 Build 0)  -->
<svg version="1.1" id="Layer_1" xmlns="http://www.w3.org/2000/svg" xmlns:xlink="http://www.w3.org/1999/xlink" x="0px" y="0px"
	 width="16px" height="16px" viewBox="0 0 16 16" style="enable-background:new 0 0 16 16;" xml:space="preserve">
<style type="text/css">
	.st0{fill:#243C4F;}
</style>
<g>
	<g>
		<path class="st0" d="M15,12.3h-0.2c0.1-0.2,0.2-0.4,0.2-0.7V7.5c0-0.7-0.5-1.2-1.2-1.2h-0.9c0-0.1-0.1-0.2-0.2-0.2h-1.4
			c-0.1,0-0.2,0.1-0.2,0.2h-0.2c0.1-0.2,0.2-0.4,0.2-0.7V2.2c0-0.7-0.5-1.2-1.2-1.2H9c0-0.1-0.1-0.2-0.2-0.2H7.3C7.1,0.8,7,0.9,7,1
			H6.3C5.6,1,5.1,1.6,5.1,2.2v2.6H3.9C3.8,4.9,3.7,5,3.7,5.1H2.2C1.6,5.1,1,5.6,1,6.3v5.3c0,0.3,0.1,0.5,0.2,0.7H1
			c-0.1,0-0.2,0.1-0.2,0.2V14c0,0.1,0.1,0.2,0.2,0.2h0.2V15c0,0.1,0.1,0.2,0.2,0.2h1.9c0.1,0,0.2-0.1,0.2-0.2v-0.7h3.1V15
			c0,0.1,0.1,0.2,0.2,0.2H9c0.1,0,0.2-0.1,0.2-0.2v-0.7h3.1V15c0,0.1,0.1,0.2,0.2,0.2h1.9c0.1,0,0.2-0.1,0.2-0.2v-0.7H15
			c0.1,0,0.2-0.1,0.2-0.2v-1.4C15.2,12.4,15.1,12.3,15,12.3z M11.4,6.6h0.9v1.2L12,7.5c-0.1,0-0.2,0-0.3,0l-0.3,0.2V6.6z M10.9,6.8
			v1.4c0,0.1,0,0.2,0.1,0.2c0.1,0,0.2,0,0.2,0L11.8,8l0.6,0.4c0.1,0,0.2,0,0.2,0c0.1,0,0.1-0.1,0.1-0.2V6.8h1c0.4,0,0.7,0.3,0.7,0.7
			v4.1c0,0.4-0.3,0.7-0.7,0.7H9c0.1-0.2,0.2-0.4,0.2-0.7c0,0,0,0,0-0.1V6.8H10.9z M7.5,1.3h0.9v1.2L8.1,2.3c-0.1,0-0.2,0-0.3,0
			L7.5,2.5V1.3z M5.6,2.2c0-0.4,0.3-0.7,0.7-0.7H7V3c0,0.1,0,0.2,0.1,0.2c0.1,0,0.2,0,0.2,0L8,2.8l0.6,0.4c0.1,0,0.2,0,0.2,0
			C8.9,3.1,9,3.1,9,3V1.5h0.7c0.4,0,0.7,0.3,0.7,0.7v3.4c0,0.4-0.3,0.7-0.7,0.7H9.2c0-0.7-0.5-1.2-1.2-1.2H6.6
			c0-0.1-0.1-0.2-0.2-0.2H5.6V2.2z M4.2,5.4h1.9v1.9L5.3,6.6C5.2,6.5,5.1,6.5,5,6.6L4.2,7.3V5.4z M1.5,6.3c0-0.4,0.3-0.7,0.7-0.7
			h1.4v2.2c0,0.1,0,0.2,0.1,0.2C3.9,8,4,8,4.1,8l1.1-0.8l1,0.8C6.2,8,6.3,8,6.4,8c0,0,0,0,0.1,0c0.1,0,0.1-0.1,0.1-0.2V5.6H8
			c0.4,0,0.7,0.3,0.7,0.7v5.3c0,0.4-0.3,0.7-0.7,0.7H2.2c-0.4,0-0.7-0.3-0.7-0.7V6.3z M3.2,14.7H1.8v-0.5h1.4V14.7z M8.7,14.7H7.3
			v-0.5h1.4V14.7z M14.2,14.7h-1.4v-0.5h1.4V14.7z M14.7,13.8H1.3v-1h13.4V13.8z M8,11.4H7c-0.1,0-0.2,0.1-0.2,0.2s0.1,0.2,0.2,0.2
			h1c0.1,0,0.2-0.1,0.2-0.2S8.1,11.4,8,11.4z M6.6,10.9H8c0.1,0,0.2-0.1,0.2-0.2c0-0.1-0.1-0.2-0.2-0.2H6.6c-0.1,0-0.2,0.1-0.2,0.2
			C6.3,10.8,6.4,10.9,6.6,10.9z M13.8,11.6h-0.5c-0.1,0-0.2,0.1-0.2,0.2c0,0.1,0.1,0.2,0.2,0.2h0.5c0.1,0,0.2-0.1,0.2-0.2
			C14,11.7,13.9,11.6,13.8,11.6z M12.8,11.4h1c0.1,0,0.2-0.1,0.2-0.2s-0.1-0.2-0.2-0.2h-1c-0.1,0-0.2,0.1-0.2,0.2
			S12.7,11.4,12.8,11.4z"/>
	</g>
</g>
</svg>
