<?xml version="1.0" encoding="utf-8"?>
<!-- Generator: Adobe Illustrator 19.1.0, SVG Export Plug-In . SVG Version: 6.00 Build 0)  -->
<svg version="1.1" id="Layer_1" xmlns="http://www.w3.org/2000/svg" xmlns:xlink="http://www.w3.org/1999/xlink" x="0px" y="0px"
	 width="16px" height="16px" viewBox="0 0 16 16" style="enable-background:new 0 0 16 16;" xml:space="preserve">
<style type="text/css">
	.st0{fill:#243C4F;}
</style>
<g>
	<g>
		<path class="st0" d="M13.6,2.8h-2.8l-0.1-0.4c0-0.1-0.2-0.2-0.3-0.2H9.3c-0.1-0.6-0.6-1-1.3-1c-0.6,0-1.2,0.4-1.3,1H5.4
			c-0.1,0-0.2,0.1-0.3,0.2L4.9,2.8H2.4c-0.2,0-0.3,0.1-0.3,0.3v11.5c0,0.2,0.1,0.3,0.3,0.3h11.2c0.2,0,0.3-0.1,0.3-0.3V3.1
			C13.9,2.9,13.7,2.8,13.6,2.8z M5.6,2.8h1.5c0.1,0,0.2,0,0.2-0.1c0.1-0.1,0.1-0.1,0.1-0.2c0,0,0,0,0,0C7.3,2,7.7,1.7,8,1.7
			c0.4,0,0.7,0.3,0.7,0.7c0,0,0,0,0,0c0,0.1,0,0.2,0.1,0.2C8.9,2.7,8.9,2.8,9,2.8h1.1l0.4,1.1H5.2L5.6,2.8z M12.1,4.5v8.6H3.9V4.5
			H12.1z M13.3,14.3H2.7V3.3h2L4.6,3.9h-1C3.4,3.9,3.3,4,3.3,4.2v9.2c0,0.2,0.1,0.3,0.3,0.3h8.8c0.2,0,0.3-0.1,0.3-0.3V4.2
			c0-0.2-0.1-0.3-0.3-0.3h-1.3L11,3.3h2.3V14.3z M7.7,7.4h2.6c0.2,0,0.3-0.1,0.3-0.3s-0.1-0.3-0.3-0.3H7.7c-0.2,0-0.3,0.1-0.3,0.3
			S7.5,7.4,7.7,7.4z M5.6,8.5h4.7c0.2,0,0.3-0.1,0.3-0.3s-0.1-0.3-0.3-0.3H5.6c-0.2,0-0.3,0.1-0.3,0.3S5.5,8.5,5.6,8.5z M5.6,9.7
			h4.7c0.2,0,0.3-0.1,0.3-0.3s-0.1-0.3-0.3-0.3H5.6c-0.2,0-0.3,0.1-0.3,0.3S5.5,9.7,5.6,9.7z M5.6,10.8h4.7c0.2,0,0.3-0.1,0.3-0.3
			c0-0.2-0.1-0.3-0.3-0.3H5.6c-0.2,0-0.3,0.1-0.3,0.3C5.4,10.7,5.5,10.8,5.6,10.8z M5.6,12h4.7c0.2,0,0.3-0.1,0.3-0.3
			c0-0.2-0.1-0.3-0.3-0.3H5.6c-0.2,0-0.3,0.1-0.3,0.3C5.4,11.8,5.5,12,5.6,12z"/>
	</g>
</g>
</svg>
