<?xml version="1.0" encoding="utf-8"?>
<!-- Generator: Adobe Illustrator 19.1.0, SVG Export Plug-In . SVG Version: 6.00 Build 0)  -->
<svg version="1.1" id="Layer_1" xmlns="http://www.w3.org/2000/svg" xmlns:xlink="http://www.w3.org/1999/xlink" x="0px" y="0px"
	 width="16px" height="16px" viewBox="0 0 16 16" style="enable-background:new 0 0 16 16;" xml:space="preserve">
<style type="text/css">
	.st0{fill:#243C4F;}
</style>
<g>
	<g>
		<path class="st0" d="M12.1,1.2c-1.5,0-2.7,1.2-2.7,2.7c0,0.5,0.1,0.9,0.3,1.3L9.2,6.5c0,0.1,0,0.2,0,0.2c0,0,0.1,0.1,0.2,0.1
			c0,0,0.1,0,0.1,0l1.4-0.5c0.4,0.2,0.8,0.3,1.3,0.3c1.5,0,2.7-1.2,2.7-2.7S13.6,1.2,12.1,1.2z M12.1,6.2c-0.4,0-0.8-0.1-1.2-0.3
			c-0.1,0-0.1,0-0.2,0l-1,0.4l0.4-1c0-0.1,0-0.1,0-0.2C9.9,4.7,9.8,4.3,9.8,3.9c0-1.3,1-2.3,2.3-2.3s2.3,1,2.3,2.3
			C14.4,5.2,13.4,6.2,12.1,6.2z M9.9,12.2l-2-0.6c-0.1,0-0.2-0.1-0.2-0.2v-0.8l0.1-0.1c0.2-0.2,0.3-0.4,0.4-0.7l0.5-3.3
			c0.1-0.6-0.1-1.2-0.5-1.6s-1-0.7-1.6-0.7H5.1C4.5,4.1,4,4.4,3.6,4.8C3.2,5.3,3,5.9,3.1,6.5l0.5,3.3c0,0.3,0.2,0.5,0.4,0.7l0.1,0.1
			v0.8c0,0.1-0.1,0.2-0.2,0.2l-2,0.6c-0.5,0.1-0.8,0.6-0.8,1.1v0.9c0,0.4,0.3,0.7,0.7,0.7h8.2c0.4,0,0.7-0.3,0.7-0.7v-0.9
			C10.7,12.7,10.4,12.3,9.9,12.2z M3.7,7.8L3.5,6.4C3.4,6,3.6,5.5,3.9,5.1c0.3-0.4,0.8-0.6,1.2-0.6h1.7c0.5,0,0.9,0.2,1.2,0.6
			C8.3,5.5,8.4,6,8.4,6.4L8.2,7.7L8,6.4c0-0.1,0-0.1-0.1-0.2c-0.1,0-0.1,0-0.2,0c0,0-2,0.7-3.4,0.7c-0.1,0-0.2,0-0.2,0.1L3.7,7.8
			L3.7,7.8z M4,9.7L3.8,8.2h0.1c0.1,0,0.2,0,0.2-0.1l0.4-0.8c1.1,0,2.5-0.4,3.1-0.6L7.8,8c0,0.1,0.1,0.2,0.2,0.2h0.1L7.8,9.7
			c0,0.2-0.1,0.3-0.2,0.4l-0.9,0.8C6.6,10.9,6.5,11,6.4,11H5.5c-0.1,0-0.2,0-0.3-0.1l-0.9-0.8C4.2,10,4.1,9.9,4,9.7z M4.1,12
			c0.3-0.1,0.5-0.3,0.5-0.6v-0.4l0.4,0.3c0.2,0.1,0.4,0.2,0.6,0.2h0.9c0.2,0,0.4-0.1,0.6-0.2l0.4-0.3v0.4c0,0.3,0.2,0.6,0.5,0.6
			l0.1,0c-0.4,0.8-1.2,1.3-2,1.3c-0.8,0-1.6-0.5-2-1.3L4.1,12z M2.8,14.4H1.8c-0.1,0-0.2-0.1-0.2-0.2v-0.9c0-0.1,0-0.2,0.1-0.3
			l0.9,0.8c0.1,0.1,0.2,0.2,0.2,0.4V14.4z M8.7,14v0.4H3.2V14c0-0.3-0.1-0.5-0.3-0.7L2,12.6c0,0,0.1,0,0.1,0l1.4-0.4
			c0.5,1,1.4,1.6,2.4,1.6c1,0,2-0.6,2.4-1.6l1.5,0.4c0,0,0.1,0,0.1,0L9,13.3C8.8,13.5,8.7,13.8,8.7,14z M10.3,14.2
			c0,0.1-0.1,0.2-0.2,0.2H9.1V14c0-0.1,0.1-0.3,0.2-0.4l0.9-0.8c0.1,0.1,0.1,0.2,0.1,0.3V14.2z"/>
	</g>
</g>
</svg>
