<?xml version="1.0" encoding="utf-8"?>
<!-- Generator: Adobe Illustrator 19.1.0, SVG Export Plug-In . SVG Version: 6.00 Build 0)  -->
<svg version="1.1" id="Layer_1" xmlns="http://www.w3.org/2000/svg" xmlns:xlink="http://www.w3.org/1999/xlink" x="0px" y="0px"
	 width="16px" height="16px" viewBox="0 0 16 16" style="enable-background:new 0 0 16 16;" xml:space="preserve">
<style type="text/css">
	.st0{fill:#243C4F;}
</style>
<g>
	<g>
		<path class="st0" d="M13.4,13.3H2.9V3c0-0.1-0.1-0.3-0.3-0.3C2.5,2.7,2.4,2.9,2.4,3v10.3c0,0.3,0.2,0.5,0.5,0.5h10.5
			c0.1,0,0.3-0.1,0.3-0.3C13.6,13.4,13.5,13.3,13.4,13.3z M4.2,12.5h0.5c0.3,0,0.5-0.2,0.5-0.5v-1c0-0.3-0.2-0.5-0.5-0.5H4.2
			c-0.3,0-0.5,0.2-0.5,0.5v1C3.6,12.3,3.9,12.5,4.2,12.5z M4.2,11h0.5l0,1H4.2V11z M6.5,8.8C6.2,8.8,5.9,9,5.9,9.3V12
			c0,0.3,0.2,0.5,0.5,0.5H7c0.3,0,0.5-0.2,0.5-0.5V9.3C7.5,9,7.3,8.8,7,8.8H6.5z M6.5,12V9.3H7L7,12H6.5z M8.8,7
			C8.5,7,8.3,7.2,8.3,7.5V12c0,0.3,0.2,0.5,0.5,0.5h0.5c0.3,0,0.5-0.2,0.5-0.5V7.5C9.8,7.2,9.6,7,9.3,7H8.8z M8.8,12V7.5h0.5l0,4.5
			H8.8z M11.6,5.2h-0.5c-0.3,0-0.5,0.2-0.5,0.5V12c0,0.3,0.2,0.5,0.5,0.5h0.5c0.3,0,0.5-0.2,0.5-0.5V5.7C12.1,5.5,11.9,5.2,11.6,5.2
			z M11.1,12V5.7h0.5l0,6.3H11.1z M3.9,8C3.9,8,3.9,8,3.9,8c0.2,0,3.7-0.6,7.7-4.9v0.6c0,0.1,0.1,0.3,0.3,0.3c0.1,0,0.3-0.1,0.3-0.3
			V2.5c0-0.1-0.1-0.3-0.3-0.3h-1.3c-0.1,0-0.3,0.1-0.3,0.3c0,0.1,0.1,0.3,0.3,0.3h0.7C7.4,6.9,3.9,7.5,3.9,7.5
			c-0.1,0-0.2,0.2-0.2,0.3C3.7,7.9,3.8,8,3.9,8z"/>
	</g>
</g>
</svg>
