<?xml version="1.0" encoding="utf-8"?>
<!-- Generator: Adobe Illustrator 19.1.0, SVG Export Plug-In . SVG Version: 6.00 Build 0)  -->
<svg version="1.1" id="Layer_1" xmlns="http://www.w3.org/2000/svg" xmlns:xlink="http://www.w3.org/1999/xlink" x="0px" y="0px"
	 width="16px" height="16px" viewBox="0 0 16 16" style="enable-background:new 0 0 16 16;" xml:space="preserve">
<style type="text/css">
	.st0{fill-rule:evenodd;clip-rule:evenodd;fill:#243C4F;}
</style>
<g>
	<g>
		<path class="st0" d="M15.1,13.8c-1.1-1-1-2-1-2.2c0.3-0.6,0.4-1.3,0.4-2C14.5,8.3,14,7,13,6.1l-0.4,0.4c0.9,0.8,1.4,1.9,1.4,3.1
			c0,0.6-0.1,1.2-0.4,1.8c0,0,0,0,0,0.1c0,0.1-0.2,1.1,0.8,2.3c-0.8,0.1-1.9,0.1-2.4-0.3c-0.1-0.1-0.2-0.1-0.3,0
			c-0.6,0.3-1.3,0.4-1.9,0.4h0c-1.4,0-2.7-0.6-3.5-1.7l-0.5,0.4c0.9,1.2,2.4,2,4,2h0c0.7,0,1.4-0.1,2-0.4c1,0.7,3.1,0.3,3.3,0.2
			c0.1,0,0.2-0.1,0.2-0.2C15.2,14,15.2,13.9,15.1,13.8z M11.9,6.6c0-2.8-2.3-5.1-5.2-5.1c-2.9,0-5.2,2.3-5.2,5.1
			c0,0.7,0.2,1.4,0.5,2.1C2,8.9,2,9.9,0.9,11c-0.1,0.1-0.1,0.2-0.1,0.3c0,0.1,0.1,0.2,0.2,0.2c0,0,0.8,0.2,1.7,0.2c0,0,0,0,0,0
			c0.8,0,1.4-0.1,1.8-0.4c0.7,0.3,1.4,0.4,2.1,0.4C9.5,11.7,11.9,9.4,11.9,6.6z M4.5,10.6c-0.1,0-0.1,0-0.2,0.1
			c-0.3,0.2-0.8,0.4-1.6,0.4c-0.4,0-0.7,0-1-0.1c1-1.3,0.8-2.4,0.8-2.5c0,0,0,0,0-0.1C2.2,7.9,2.1,7.2,2.1,6.6
			c0-2.5,2.1-4.5,4.6-4.5s4.6,2,4.6,4.5c0,2.5-2.1,4.5-4.6,4.5c-0.7,0-1.4-0.2-2-0.5C4.6,10.6,4.5,10.6,4.5,10.6z"/>
	</g>
</g>
</svg>
