<?xml version="1.0" encoding="utf-8"?>
<!-- Generator: Adobe Illustrator 19.1.0, SVG Export Plug-In . SVG Version: 6.00 Build 0)  -->
<svg version="1.1" id="Layer_1" xmlns="http://www.w3.org/2000/svg" xmlns:xlink="http://www.w3.org/1999/xlink" x="0px" y="0px"
	 width="16px" height="16px" viewBox="0 0 16 16" style="enable-background:new 0 0 16 16;" xml:space="preserve">
<style type="text/css">
	.st0{fill:#243C4F;}
</style>
<g>
	<g>
		<path class="st0" d="M15,6.4C15,6.4,15,6.3,15,6.4c0-0.1-0.1-0.2-0.2-0.3l-2-1.4V3.2c0-0.2-0.2-0.4-0.4-0.4h-2.3l-2-1.4
			c-0.1-0.1-0.3-0.1-0.4,0l-2,1.4H3.5C3.3,2.9,3.2,3,3.2,3.2v1.5l-2,1.4C1,6.2,1,6.3,1,6.4c0,0,0,0,0,0l0,7.8c0,0.1,0,0.2,0.1,0.3
			c0.1,0.1,0.2,0.1,0.3,0.1c0,0,0,0,0,0l13.3,0c0.2,0,0.4-0.2,0.4-0.4L15,6.4z M12.8,5.6L14,6.4l-1.1,0.8V5.6z M8,2.3l0.9,0.6H7.1
			L8,2.3z M3.9,3.6h8.2v4.1L9.4,9.6L8.2,8.8c0,0,0,0,0,0c-0.1-0.1-0.3-0.1-0.4,0L6.6,9.6L3.9,7.7V3.6z M3.2,5.6v1.6L2,6.4L3.2,5.6z
			 M1.7,7.1l4.3,3l-4.3,3.4L1.7,7.1z M2.4,13.8L8,9.5l5.6,4.3L2.4,13.8z M9.9,10.1l4.3-3l0,6.4L9.9,10.1z M5.6,5.8h4.9
			c0.2,0,0.4-0.2,0.4-0.4S10.6,5,10.4,5H5.6C5.4,5,5.2,5.2,5.2,5.4S5.4,5.8,5.6,5.8z M10.8,7.3c0-0.2-0.2-0.4-0.4-0.4H5.6
			c-0.2,0-0.4,0.2-0.4,0.4c0,0.2,0.2,0.4,0.4,0.4h4.9C10.6,7.6,10.8,7.5,10.8,7.3z"/>
	</g>
</g>
</svg>
