<?xml version="1.0" encoding="utf-8"?>
<!-- Generator: Adobe Illustrator 19.1.0, SVG Export Plug-In . SVG Version: 6.00 Build 0)  -->
<svg version="1.1" id="Layer_1" xmlns="http://www.w3.org/2000/svg" xmlns:xlink="http://www.w3.org/1999/xlink" x="0px" y="0px"
	 width="16px" height="16px" viewBox="0 0 16 16" style="enable-background:new 0 0 16 16;" xml:space="preserve">
<style type="text/css">
	.st0{fill:#243C4F;}
</style>
<g>
	<g>
		<path class="st0" d="M8.5,5.1H7.3C7.1,5.1,7,5.2,7,5.4s0.1,0.2,0.2,0.2h0.4l-1.2,7.1c0,0,0,0,0,0c0,0.4,0.3,0.8,0.7,0.8h1.2
			c0.1,0,0.2-0.1,0.2-0.2S8.6,13,8.5,13H8L9.2,6c0,0,0,0,0,0C9.2,5.5,8.9,5.1,8.5,5.1z M7.6,13H7.3C7.2,13,7,12.9,7,12.7l1.2-7.1
			h0.3c0.1,0,0.2,0.1,0.2,0.3L7.6,13z M13.4,2.6C12,1.1,10.1,0.3,8,0.3S4,1.1,2.6,2.6C1.1,4,0.3,5.9,0.3,8s0.8,4,2.2,5.4
			C4,14.9,5.9,15.7,8,15.7s4-0.8,5.4-2.2c1.5-1.5,2.2-3.4,2.2-5.4S14.9,4,13.4,2.6z M13.1,13.1c-1.4,1.4-3.2,2.1-5.1,2.1
			s-3.7-0.7-5.1-2.1C1.5,11.7,0.8,9.9,0.8,8c0-1.9,0.7-3.7,2.1-5.1C4.3,1.5,6.1,0.8,8,0.8s3.7,0.7,5.1,2.1c1.4,1.4,2.1,3.2,2.1,5.1
			C15.2,9.9,14.5,11.7,13.1,13.1z M8.8,2.7C8.4,2.7,8,3.1,8,3.6C8,4,8.4,4.4,8.8,4.4c0.5,0,0.8-0.4,0.8-0.8C9.7,3.1,9.3,2.7,8.8,2.7
			z M8.8,3.9c-0.2,0-0.4-0.2-0.4-0.4s0.2-0.4,0.4-0.4c0.2,0,0.4,0.2,0.4,0.4S9,3.9,8.8,3.9z"/>
	</g>
</g>
</svg>
