<?xml version="1.0" encoding="utf-8"?>
<!-- Generator: Adobe Illustrator 19.1.0, SVG Export Plug-In . SVG Version: 6.00 Build 0)  -->
<svg version="1.1" id="Layer_1" xmlns="http://www.w3.org/2000/svg" xmlns:xlink="http://www.w3.org/1999/xlink" x="0px" y="0px"
	 width="16px" height="16px" viewBox="0 0 16 16" style="enable-background:new 0 0 16 16;" xml:space="preserve">
<style type="text/css">
	.st0{fill:#253C4F;}
	.st1{fill-rule:evenodd;clip-rule:evenodd;fill:#253C4F;}
</style>
<g>
	<path class="st0" d="M1.5,1.8h13h0.3v0.3v11.8v0.3h-0.3h-13H1.2v-0.3V2.1V1.8H1.5L1.5,1.8z M14.2,2.4H1.8v11.2h12.4V2.4z"/>
	<rect x="1.5" y="3.6" class="st0" width="13" height="0.6"/>
	<circle class="st1" cx="8" cy="3" r="0.3"/>
	<circle class="st1" cx="8" cy="3" r="0.3"/>
	<circle class="st1" cx="8" cy="3" r="0.3"/>
	<path class="st0" d="M3.4,3.9L3,6.8c0.3,0.4,0.5,0.6,0.8,0.6c0.2,0,0.5-0.2,0.8-0.7l0.3-0.4l0.3,0.4c0.3,0.5,0.6,0.7,0.8,0.7
		c0.2,0,0.5-0.2,0.8-0.7l0.3-0.4l0.3,0.4C7.5,7.2,7.8,7.4,8,7.4c0.2,0,0.5-0.2,0.8-0.7l0.3-0.4l0.3,0.4c0.3,0.5,0.6,0.7,0.8,0.7
		c0.2,0,0.5-0.2,0.8-0.7l0.3-0.4l0.3,0.4c0.3,0.5,0.6,0.7,0.8,0.7c0.2,0,0.5-0.2,0.8-0.6L12.6,4L13.2,4l0.4,2.8l0,0.2
		c-0.4,0.7-0.9,1-1.3,1c-0.4,0-0.7-0.2-1.1-0.6C10.9,7.8,10.5,8,10.1,8C9.8,8,9.4,7.8,9.1,7.3C8.7,7.8,8.4,8,8,8
		C7.6,8,7.3,7.8,6.9,7.3C6.6,7.8,6.3,8,5.9,8C5.5,8,5.2,7.8,4.8,7.3C4.5,7.8,4.1,8,3.7,8C3.3,8,2.8,7.6,2.4,7l0-0.2l0.4-3L3.4,3.9z"
		/>
	<rect x="3.9" y="10.1" class="st0" width="8.3" height="0.6"/>
	<rect x="3.9" y="11.5" class="st0" width="8.3" height="0.6"/>
</g>
</svg>
