<?xml version="1.0" encoding="utf-8"?>
<!-- Generator: Adobe Illustrator 19.1.0, SVG Export Plug-In . SVG Version: 6.00 Build 0)  -->
<svg version="1.1" id="Layer_1" xmlns="http://www.w3.org/2000/svg" xmlns:xlink="http://www.w3.org/1999/xlink" x="0px" y="0px"
	 width="16px" height="16px" viewBox="0 0 16 16" style="enable-background:new 0 0 16 16;" xml:space="preserve">
<style type="text/css">
	.st0{fill:#243C4F;}
</style>
<g>
	<g>
		<path class="st0" d="M14.3,5.1l-3.4-3.3c-0.1-0.1-0.1-0.1-0.2-0.1h-4c-0.5,0-0.8,0.4-0.8,0.8v3.1H2.5C2,5.6,1.6,6,1.6,6.4v7.2
			c0,0.5,0.4,0.8,0.8,0.8h6.2c0.5,0,0.8-0.4,0.8-0.8v-2.8h4c0.5,0,0.8-0.4,0.8-0.8V5.3C14.4,5.2,14.3,5.2,14.3,5.1z M11,2.6L13.4,5
			H11V2.6z M9,13.7C9,13.8,8.9,14,8.7,14H2.5c-0.2,0-0.3-0.1-0.3-0.3V6.4c0-0.2,0.1-0.3,0.3-0.3h3.4V10c0,0.5,0.4,0.8,0.8,0.8H9
			V13.7z M13.8,10c0,0.2-0.1,0.3-0.3,0.3H6.7c-0.2,0-0.3-0.1-0.3-0.3V2.5c0-0.2,0.1-0.3,0.3-0.3h3.7v3.1c0,0.2,0.1,0.3,0.3,0.3h3.1
			V10z M2.5,3.1h1.9L3.6,3.9L4,4.2l1.2-1.2c0.1-0.1,0.1-0.3,0-0.4L4,1.5L3.6,1.9l0.7,0.7H2.2C2,2.6,1.9,2.7,1.9,2.9v1.7h0.6V3.1z
			 M13.2,12.8h-1.9l0.7-0.7l-0.4-0.4l-1.2,1.2c-0.1,0.1-0.1,0.3,0,0.4l1.2,1.2l0.4-0.4l-0.7-0.7h2.1c0.2,0,0.3-0.1,0.3-0.3v-1.7
			h-0.6V12.8z"/>
	</g>
</g>
</svg>
