<?xml version="1.0" encoding="utf-8"?>
<!-- Generator: Adobe Illustrator 19.1.0, SVG Export Plug-In . SVG Version: 6.00 Build 0)  -->
<svg version="1.1" id="Layer_1" xmlns="http://www.w3.org/2000/svg" xmlns:xlink="http://www.w3.org/1999/xlink" x="0px" y="0px"
	 width="16px" height="16px" viewBox="0 0 16 16" style="enable-background:new 0 0 16 16;" xml:space="preserve">
<style type="text/css">
	.st0{fill-rule:evenodd;clip-rule:evenodd;fill:#243C4F;}
</style>
<g>
	<g>
		<path class="st0" d="M13.4,1.9H2.6c-0.4,0-0.8,0.4-0.8,0.8v10.6c0,0.4,0.4,0.8,0.8,0.8h10.9c0.4,0,0.8-0.4,0.8-0.8V2.7
			C14.2,2.2,13.9,1.9,13.4,1.9z M13.7,13.3c0,0.1-0.1,0.3-0.3,0.3H2.6c-0.1,0-0.3-0.1-0.3-0.3V4.5h11.4V13.3z M13.7,4H2.3V2.7
			c0-0.1,0.1-0.3,0.3-0.3h10.9c0.1,0,0.3,0.1,0.3,0.3V4z M3.1,2.8C2.9,2.8,2.7,3,2.7,3.2s0.2,0.4,0.4,0.4c0.2,0,0.4-0.2,0.4-0.4
			S3.3,2.8,3.1,2.8z M3.1,3.3C3,3.3,3,3.3,3,3.2S3,3.1,3.1,3.1c0.1,0,0.1,0.1,0.1,0.1S3.2,3.3,3.1,3.3z M4.2,2.8
			C4,2.8,3.8,3,3.8,3.2S4,3.6,4.2,3.6c0.2,0,0.4-0.2,0.4-0.4S4.4,2.8,4.2,2.8z M4.2,3.3c-0.1,0-0.1-0.1-0.1-0.1s0.1-0.1,0.1-0.1
			c0.1,0,0.1,0.1,0.1,0.1S4.3,3.3,4.2,3.3z M5.3,2.8C5.1,2.8,4.9,3,4.9,3.2s0.2,0.4,0.4,0.4c0.2,0,0.4-0.2,0.4-0.4S5.5,2.8,5.3,2.8z
			 M5.3,3.3c-0.1,0-0.1-0.1-0.1-0.1s0.1-0.1,0.1-0.1c0.1,0,0.1,0.1,0.1,0.1S5.4,3.3,5.3,3.3z M3.1,8.8h2.4c0.1,0,0.3-0.1,0.3-0.3
			V5.3c0-0.1-0.1-0.3-0.3-0.3H3.1C3,5.1,2.8,5.2,2.8,5.3v3.2C2.8,8.7,3,8.8,3.1,8.8z M3.4,5.6h1.9v2.7H3.4V5.6z M3.1,13.1h2.4
			c0.1,0,0.3-0.1,0.3-0.3V9.6c0-0.1-0.1-0.3-0.3-0.3H3.1C3,9.3,2.8,9.4,2.8,9.6v3.2C2.8,12.9,3,13.1,3.1,13.1z M3.4,9.9h1.9v2.7H3.4
			V9.9z M6.6,8.8h2.4c0.1,0,0.3-0.1,0.3-0.3V5.3c0-0.1-0.1-0.3-0.3-0.3H6.6c-0.1,0-0.3,0.1-0.3,0.3v3.2C6.4,8.7,6.5,8.8,6.6,8.8z
			 M6.9,5.6h1.9v2.7H6.9V5.6z M6.6,13.1h2.4c0.1,0,0.3-0.1,0.3-0.3V9.6c0-0.1-0.1-0.3-0.3-0.3H6.6c-0.1,0-0.3,0.1-0.3,0.3v3.2
			C6.4,12.9,6.5,13.1,6.6,13.1z M6.9,9.9h1.9v2.7H6.9V9.9z M10.2,8.8h2.4c0.1,0,0.3-0.1,0.3-0.3V5.3c0-0.1-0.1-0.3-0.3-0.3h-2.4
			c-0.1,0-0.3,0.1-0.3,0.3v3.2C9.9,8.7,10,8.8,10.2,8.8z M10.4,5.6h1.9v2.7h-1.9V5.6z M10.2,13.1h2.4c0.1,0,0.3-0.1,0.3-0.3V9.6
			c0-0.1-0.1-0.3-0.3-0.3h-2.4c-0.1,0-0.3,0.1-0.3,0.3v3.2C9.9,12.9,10,13.1,10.2,13.1z M10.4,9.9h1.9v2.7h-1.9V9.9z"/>
	</g>
</g>
</svg>
