<?xml version="1.0" encoding="utf-8"?>
<!-- Generator: Adobe Illustrator 19.1.0, SVG Export Plug-In . SVG Version: 6.00 Build 0)  -->
<svg version="1.1" id="Layer_1" xmlns="http://www.w3.org/2000/svg" xmlns:xlink="http://www.w3.org/1999/xlink" x="0px" y="0px"
	 width="16px" height="16px" viewBox="0 0 16 16" style="enable-background:new 0 0 16 16;" xml:space="preserve">
<style type="text/css">
	.st0{fill:#243C4F;}
</style>
<g>
	<g>
		<path class="st0" d="M11.6,2.2H4.4C4,2.2,3.7,2.6,3.7,3v10c0,0.4,0.3,0.8,0.8,0.8h7.1c0.4,0,0.8-0.3,0.8-0.8V3
			C12.3,2.6,12,2.2,11.6,2.2z M11.8,13c0,0.1-0.1,0.3-0.3,0.3H4.4c-0.1,0-0.3-0.1-0.3-0.3V7.5h7.6V13z M11.8,7H4.2V3
			c0-0.1,0.1-0.3,0.3-0.3h7.1c0.1,0,0.3,0.1,0.3,0.3V7z M10.5,5.7H8C7.9,5.7,7.7,5.9,7.7,6S7.9,6.2,8,6.2h2.5c0.1,0,0.3-0.1,0.3-0.3
			S10.7,5.7,10.5,5.7z M5,8.8h0.8C5.9,8.8,6,8.6,6,8.5c0-0.1-0.1-0.3-0.3-0.3H5c-0.1,0-0.3,0.1-0.3,0.3C4.7,8.6,4.8,8.8,5,8.8z
			 M6.7,8.8h0.8c0.1,0,0.3-0.1,0.3-0.3c0-0.1-0.1-0.3-0.3-0.3H6.7c-0.1,0-0.3,0.1-0.3,0.3C6.5,8.6,6.6,8.8,6.7,8.8z M8.5,8.8h0.8
			c0.1,0,0.3-0.1,0.3-0.3c0-0.1-0.1-0.3-0.3-0.3H8.5c-0.1,0-0.3,0.1-0.3,0.3C8.3,8.6,8.4,8.8,8.5,8.8z M10.3,8.8H11
			c0.1,0,0.3-0.1,0.3-0.3c0-0.1-0.1-0.3-0.3-0.3h-0.8c-0.1,0-0.3,0.1-0.3,0.3C10,8.6,10.1,8.8,10.3,8.8z M5,9.8h0.8
			C5.9,9.8,6,9.6,6,9.5S5.9,9.3,5.7,9.3H5c-0.1,0-0.3,0.1-0.3,0.3S4.8,9.8,5,9.8z M6.7,9.8h0.8c0.1,0,0.3-0.1,0.3-0.3
			S7.6,9.3,7.5,9.3H6.7c-0.1,0-0.3,0.1-0.3,0.3S6.6,9.8,6.7,9.8z M8.5,9.8h0.8c0.1,0,0.3-0.1,0.3-0.3S9.4,9.3,9.3,9.3H8.5
			c-0.1,0-0.3,0.1-0.3,0.3S8.4,9.8,8.5,9.8z M10.3,9.8H11c0.1,0,0.3-0.1,0.3-0.3S11.2,9.3,11,9.3h-0.8c-0.1,0-0.3,0.1-0.3,0.3
			S10.1,9.8,10.3,9.8z M5,10.8h0.8c0.1,0,0.3-0.1,0.3-0.3s-0.1-0.3-0.3-0.3H5c-0.1,0-0.3,0.1-0.3,0.3S4.8,10.8,5,10.8z M6.7,10.8
			h0.8c0.1,0,0.3-0.1,0.3-0.3s-0.1-0.3-0.3-0.3H6.7c-0.1,0-0.3,0.1-0.3,0.3S6.6,10.8,6.7,10.8z M8.5,10.8h0.8c0.1,0,0.3-0.1,0.3-0.3
			s-0.1-0.3-0.3-0.3H8.5c-0.1,0-0.3,0.1-0.3,0.3S8.4,10.8,8.5,10.8z M10.3,10.8H11c0.1,0,0.3-0.1,0.3-0.3s-0.1-0.3-0.3-0.3h-0.8
			c-0.1,0-0.3,0.1-0.3,0.3S10.1,10.8,10.3,10.8z M5,11.8h0.8c0.1,0,0.3-0.1,0.3-0.3s-0.1-0.3-0.3-0.3H5c-0.1,0-0.3,0.1-0.3,0.3
			S4.8,11.8,5,11.8z M6.7,11.8h0.8c0.1,0,0.3-0.1,0.3-0.3s-0.1-0.3-0.3-0.3H6.7c-0.1,0-0.3,0.1-0.3,0.3S6.6,11.8,6.7,11.8z
			 M8.5,11.8h0.8c0.1,0,0.3-0.1,0.3-0.3s-0.1-0.3-0.3-0.3H8.5c-0.1,0-0.3,0.1-0.3,0.3S8.4,11.8,8.5,11.8z M10.3,11.8H11
			c0.1,0,0.3-0.1,0.3-0.3s-0.1-0.3-0.3-0.3h-0.8c-0.1,0-0.3,0.1-0.3,0.3S10.1,11.8,10.3,11.8z M5,12.8h0.8c0.1,0,0.3-0.1,0.3-0.3
			c0-0.1-0.1-0.3-0.3-0.3H5c-0.1,0-0.3,0.1-0.3,0.3C4.7,12.6,4.8,12.8,5,12.8z M6.7,12.8h0.8c0.1,0,0.3-0.1,0.3-0.3
			c0-0.1-0.1-0.3-0.3-0.3H6.7c-0.1,0-0.3,0.1-0.3,0.3C6.5,12.6,6.6,12.8,6.7,12.8z M8.5,12.8h0.8c0.1,0,0.3-0.1,0.3-0.3
			c0-0.1-0.1-0.3-0.3-0.3H8.5c-0.1,0-0.3,0.1-0.3,0.3C8.3,12.6,8.4,12.8,8.5,12.8z M10.3,12.8H11c0.1,0,0.3-0.1,0.3-0.3
			c0-0.1-0.1-0.3-0.3-0.3h-0.8c-0.1,0-0.3,0.1-0.3,0.3C10,12.6,10.1,12.8,10.3,12.8z"/>
	</g>
</g>
</svg>
