<?xml version="1.0" encoding="utf-8"?>
<!-- Generator: Adobe Illustrator 19.1.0, SVG Export Plug-In . SVG Version: 6.00 Build 0)  -->
<svg version="1.1" id="Layer_1" xmlns="http://www.w3.org/2000/svg" xmlns:xlink="http://www.w3.org/1999/xlink" x="0px" y="0px"
	 width="16px" height="16px" viewBox="0 0 16 16" style="enable-background:new 0 0 16 16;" xml:space="preserve">
<style type="text/css">
	.st0{fill-rule:evenodd;clip-rule:evenodd;fill:#243C4F;}
</style>
<g>
	<g>
		<path class="st0" d="M12.7,1.1H3.3C2.9,1.1,2.5,1.5,2.5,2v12c0,0.5,0.4,0.9,0.9,0.9h9.3c0.5,0,0.9-0.4,0.9-0.9V2
			C13.5,1.5,13.1,1.1,12.7,1.1z M12.9,14c0,0.2-0.1,0.3-0.3,0.3H3.3c-0.2,0-0.3-0.1-0.3-0.3V2c0-0.2,0.1-0.3,0.3-0.3h9.3
			c0.2,0,0.3,0.1,0.3,0.3V14z M5.7,10.3h2C7.9,10.3,8,10.2,8,10c0-0.2-0.1-0.3-0.3-0.3h-2c-0.2,0-0.3,0.1-0.3,0.3
			C5.4,10.2,5.5,10.3,5.7,10.3z M10.3,11.1H5.7c-0.2,0-0.3,0.1-0.3,0.3c0,0.2,0.1,0.3,0.3,0.3h4.7c0.2,0,0.3-0.1,0.3-0.3
			C10.6,11.3,10.5,11.1,10.3,11.1z M10.3,12.6H5.7c-0.2,0-0.3,0.1-0.3,0.3c0,0.2,0.1,0.3,0.3,0.3h4.7c0.2,0,0.3-0.1,0.3-0.3
			C10.6,12.7,10.5,12.6,10.3,12.6z M8.9,5.9C9.5,5.6,9.9,5,9.9,4.3c0-1-0.8-1.9-1.9-1.9c-1,0-1.9,0.8-1.9,1.9c0,0.7,0.4,1.3,0.9,1.6
			c-1,0.4-1.7,1.3-1.7,2.4c0,0.2,0.1,0.3,0.3,0.3h4.7c0.2,0,0.3-0.1,0.3-0.3C10.6,7.2,9.9,6.3,8.9,5.9z M6.7,4.3C6.7,3.6,7.3,3,8,3
			s1.3,0.6,1.3,1.3C9.3,5,8.7,5.6,8,5.6S6.7,5,6.7,4.3z M6,8c0.1-1,1-1.7,2-1.7S9.9,7,10,8H6z"/>
	</g>
</g>
</svg>
