<?xml version="1.0" encoding="utf-8"?>
<!-- Generator: Adobe Illustrator 19.1.0, SVG Export Plug-In . SVG Version: 6.00 Build 0)  -->
<svg version="1.1" id="Layer_1" xmlns="http://www.w3.org/2000/svg" xmlns:xlink="http://www.w3.org/1999/xlink" x="0px" y="0px"
	 viewBox="0 0 50.9 40" style="enable-background:new 0 0 50.9 40;" xml:space="preserve">
<style type="text/css">
	.st0{fill:#212121;}
	.st1{fill-rule:evenodd;clip-rule:evenodd;fill:#F4F2EE;}
</style>
<g>
	<g>
		<g>
			<path class="st0" d="M10,9.9L8.3,6.2C5.6,0.3,5,0.3,0,0l0,2.4c4.3,0.3,4.1,0.2,6.2,4.8l10.3,22.8l2.7,0h20.1l7.3-12.7l0,0
				l1.3-2.3c1-1.7,1.9-3.4,2.9-5.1L10,9.9L10,9.9z M46.8,12.2L46.4,13l-8.4,14.5H18.1l-7-15.3H46.8z"/>
		</g>
		<polygon class="st0" points="17.1,17 40.9,17 42.3,14.6 16,14.6 		"/>
		<polygon class="st0" points="19,21.3 38.4,21.3 39.8,18.9 17.9,18.9 		"/>
		<polygon class="st0" points="20.9,25.5 35.9,25.5 37.3,23.2 19.8,23.2 		"/>
		<path class="st0" d="M34.9,31.5c-1.2,0-2.2,0.5-3,1.2c-0.8,0.8-1.2,1.8-1.2,3c0,1.2,0.5,2.2,1.2,3c0.8,0.8,1.8,1.2,3,1.2
			c1.2,0,2.2-0.5,3-1.2c0.8-0.8,1.2-1.8,1.2-3c0-1.2-0.5-2.2-1.2-3C37.2,32,36.1,31.5,34.9,31.5L34.9,31.5z M33.6,34.4
			c0.3-0.3,0.8-0.6,1.3-0.6c0.5,0,1,0.2,1.3,0.6c0.3,0.3,0.6,0.8,0.6,1.3c0,0.5-0.2,1-0.6,1.3c-0.3,0.3-0.8,0.6-1.3,0.6
			c-0.5,0-1-0.2-1.3-0.6c-0.3-0.3-0.6-0.8-0.6-1.3C33,35.2,33.2,34.7,33.6,34.4z"/>
		<path class="st1" d="M21.2,35.3c0.1-0.1,0.3-0.2,0.5-0.2s0.4,0.1,0.5,0.2c0.1,0.1,0.2,0.3,0.2,0.5c0,0.2-0.1,0.4-0.2,0.5
			c-0.1,0.1-0.3,0.2-0.5,0.2s-0.4-0.1-0.5-0.2c-0.1-0.1-0.2-0.3-0.2-0.5C21,35.6,21.1,35.4,21.2,35.3z"/>
		<path class="st0" d="M21.7,31.5c-1.2,0-2.2,0.5-3,1.2c-0.8,0.8-1.2,1.8-1.2,3c0,1.2,0.5,2.2,1.2,3c0.8,0.8,1.8,1.2,3,1.2
			s2.2-0.5,3-1.2c0.8-0.8,1.2-1.8,1.2-3c0-1.2-0.5-2.2-1.2-3C24,32,22.9,31.5,21.7,31.5L21.7,31.5z M20.4,34.4
			c0.3-0.3,0.8-0.6,1.3-0.6c0.5,0,1,0.2,1.3,0.6c0.3,0.3,0.6,0.8,0.6,1.3c0,0.5-0.2,1-0.6,1.3c-0.3,0.3-0.8,0.6-1.3,0.6
			c-0.5,0-1-0.2-1.3-0.6c-0.3-0.3-0.6-0.8-0.6-1.3C19.8,35.2,20,34.7,20.4,34.4z"/>
	</g>
</g>
</svg>
