<?xml version="1.0" encoding="utf-8"?>
<!-- Generator: Adobe Illustrator 19.1.0, SVG Export Plug-In . SVG Version: 6.00 Build 0)  -->
<svg version="1.1" id="Layer_1" xmlns="http://www.w3.org/2000/svg" xmlns:xlink="http://www.w3.org/1999/xlink" x="0px" y="0px"
	 viewBox="0 0 58.2 40" style="enable-background:new 0 0 58.2 40;" xml:space="preserve">
<style type="text/css">
	.st0{fill:#212121;}
</style>
<path class="st0" d="M3.2,0.2h51.4c0.9,0,1.6,0.3,2.2,0.9c0.6,0.6,0.9,1.3,0.9,2.2v30.2c0,0.9-0.3,1.6-0.9,2.2
	c-0.6,0.6-1.3,0.9-2.2,0.9H3.2c-0.9,0-1.6-0.3-2.2-0.9c-0.6-0.6-0.9-1.3-0.9-2.2V3.3c0-0.9,0.3-1.6,0.9-2.2C1.5,0.6,2.3,0.2,3.2,0.2
	L3.2,0.2z M54.5,2.7H3.2C3,2.7,2.8,2.7,2.7,2.9C2.6,3,2.5,3.2,2.5,3.3v30.2c0,0.2,0.1,0.4,0.2,0.5c0.1,0.1,0.3,0.2,0.5,0.2h51.4
	c0.2,0,0.4-0.1,0.5-0.2s0.2-0.3,0.2-0.5V3.3c0-0.2-0.1-0.4-0.2-0.5C54.9,2.7,54.7,2.7,54.5,2.7z"/>
<path class="st0" d="M1,37.8c-0.7,0-1.2,0.5-1.2,1.2c0,0.7,0.5,1.2,1.2,1.2h55.8c0.7,0,1.2-0.5,1.2-1.2c0-0.7-0.5-1.2-1.2-1.2H1z"/>
</svg>
