<?xml version="1.0" encoding="utf-8"?>
<!-- Generator: Adobe Illustrator 19.1.0, SVG Export Plug-In . SVG Version: 6.00 Build 0)  -->
<svg version="1.1" id="Layer_1" xmlns="http://www.w3.org/2000/svg" xmlns:xlink="http://www.w3.org/1999/xlink" x="0px" y="0px"
	 viewBox="0 0 43.1 40" style="enable-background:new 0 0 43.1 40;" xml:space="preserve">
<style type="text/css">
	.st0{fill:#212121;}
</style>
<path class="st0" d="M0.7,8.3H42h0.9v0.9v7.1v0.9H42H0.7h-0.9v-0.9V9.2V8.3H0.7L0.7,8.3z M41.1,10.1H1.6v5.3h39.5V10.1z"/>
<path class="st0" d="M3.6,15.4h35.5H40v0.9v23.1v0.9h-0.9H3.6H2.7v-0.9V16.3v-0.9H3.6L3.6,15.4z M38.2,17.2H4.5v21.3h33.7V17.2z"/>
<rect x="20.4" y="16.3" class="st0" width="1.8" height="23.1"/>
<rect x="3.6" y="26.9" class="st0" width="35.5" height="1.8"/>
<rect x="20.4" y="9.2" class="st0" width="1.8" height="7.1"/>
<path class="st0" d="M20.4,9.2c0-4.7,1.8-7.3,3.7-8.4c1.6-0.9,3.3-0.8,4.4-0.1c1.3,0.8,2,2.2,1.2,3.9c-0.7,1.7-3.1,3.7-8.2,5.4
	l-1.2,0.4L20.4,9.2L20.4,9.2z M25,2.5c-1.3,0.7-2.5,2.4-2.7,5.5c3.7-1.4,5.4-2.8,5.9-4c0.3-0.7,0-1.3-0.5-1.6C27,1.9,26,1.9,25,2.5z
	"/>
<path class="st0" d="M20.4,8c-0.3-3.1-1.5-4.8-2.7-5.5c-1-0.5-2-0.5-2.6-0.1c-0.5,0.3-0.8,0.9-0.5,1.6C15,5.1,16.7,6.6,20.4,8
	L20.4,8z M18.5,0.9c1.9,1.1,3.7,3.6,3.7,8.4l0,1.3L21,10.1c-5.1-1.7-7.5-3.7-8.2-5.4c-0.7-1.7-0.1-3.1,1.2-3.9
	C15.2,0.1,16.9,0,18.5,0.9z"/>
</svg>
