<?xml version="1.0" encoding="utf-8"?>
<!-- Generator: Adobe Illustrator 19.1.0, SVG Export Plug-In . SVG Version: 6.00 Build 0)  -->
<svg version="1.1" id="Layer_1" xmlns="http://www.w3.org/2000/svg" xmlns:xlink="http://www.w3.org/1999/xlink" x="0px" y="0px"
	 viewBox="0 0 30.5 40" style="enable-background:new 0 0 30.5 40;" xml:space="preserve">
<style type="text/css">
	.st0{fill:#212121;}
</style>
<g>
	<g>
		<g>
			<path class="st0" d="M3.2,9.6L1.7,38.4h27.1L27.3,9.6h-4.4c-0.1-0.5-0.2-1.1-0.3-1.6H28l0.8,0l0,0.8l1.6,30.4l0,0.8h-0.8H0.8H0
				l0-0.8L1.6,8.8l0-0.8l0.8,0h5.3C7.7,8.5,7.6,9.1,7.5,9.6H3.2L3.2,9.6z M19.7,9.6c-0.1-0.5-0.2-1.1-0.3-1.6h-8.3
				c-0.1,0.5-0.2,1.1-0.3,1.6H19.7z"/>
			<path class="st0" d="M8,13.6c0-6.2,1.7-10.4,4-12.3C13,0.5,14,0,15.1,0c1.1,0,2.2,0.4,3.1,1.2c2.2,1.8,4,5.9,4.2,12.4l-1.6,0.1
				c-0.2-6-1.7-9.7-3.6-11.2c-0.7-0.6-1.4-0.8-2.1-0.8c-0.7,0-1.4,0.3-2.1,0.9c-1.9,1.7-3.4,5.4-3.4,11.1H8z"/>
			<path class="st0" d="M8.8,12c0.7,0,1.3,0.3,1.7,0.7c0.4,0.4,0.7,1,0.7,1.7c0,0.7-0.3,1.3-0.7,1.7c-0.4,0.4-1,0.7-1.7,0.7
				c-0.7,0-1.3-0.3-1.7-0.7c-0.4-0.4-0.7-1-0.7-1.7c0-0.7,0.3-1.3,0.7-1.7C7.6,12.3,8.2,12,8.8,12L8.8,12z M9.4,13.8
				c-0.1-0.1-0.3-0.2-0.6-0.2c-0.2,0-0.4,0.1-0.6,0.2C8.1,14,8,14.2,8,14.4c0,0.2,0.1,0.4,0.2,0.6c0.1,0.1,0.3,0.2,0.6,0.2
				c0.2,0,0.4-0.1,0.6-0.2c0.1-0.1,0.2-0.3,0.2-0.6C9.6,14.2,9.6,14,9.4,13.8z"/>
			<path class="st0" d="M21.6,12c0.7,0,1.3,0.3,1.7,0.7c0.4,0.4,0.7,1,0.7,1.7c0,0.7-0.3,1.3-0.7,1.7c-0.4,0.4-1,0.7-1.7,0.7
				c-0.7,0-1.3-0.3-1.7-0.7c-0.4-0.4-0.7-1-0.7-1.7c0-0.7,0.3-1.3,0.7-1.7C20.4,12.3,21,12,21.6,12L21.6,12z M22.2,13.8
				c-0.1-0.1-0.3-0.2-0.6-0.2c-0.2,0-0.4,0.1-0.6,0.2c-0.1,0.1-0.2,0.3-0.2,0.6c0,0.2,0.1,0.4,0.2,0.6c0.1,0.1,0.3,0.2,0.6,0.2
				c0.2,0,0.4-0.1,0.6-0.2c0.1-0.1,0.2-0.3,0.2-0.6C22.4,14.2,22.4,14,22.2,13.8z"/>
		</g>
	</g>
</g>
</svg>
