<?xml version="1.0" encoding="utf-8"?>
<!-- Generator: Adobe Illustrator 19.1.0, SVG Export Plug-In . SVG Version: 6.00 Build 0)  -->
<svg version="1.1" id="Layer_1" xmlns="http://www.w3.org/2000/svg" xmlns:xlink="http://www.w3.org/1999/xlink" x="0px" y="0px"
	 viewBox="0 0 51 40" style="enable-background:new 0 0 51 40;" xml:space="preserve">
<style type="text/css">
	.st0{fill:#212121;}
	.st1{fill-rule:evenodd;clip-rule:evenodd;fill:#231F20;}
</style>
<g>
	<g>
		<path class="st0" d="M46.9,2C34.5,2,32.3,2,26,2c-0.8,0-1.6,0.2-2.2,0.8c-0.5,0.4-0.8,1.1-0.8,2V38h26V4.8C49,4,48.8,3.4,48.4,3
			C48,2.4,47.4,2.1,46.9,2L46.9,2z M47,0l0.2,0c0.9,0.2,2,0.7,2.8,1.7c0.6,0.8,1,1.8,1,3.1V39v1h-1H22h-1v-1V4.8
			c0-1.5,0.6-2.7,1.4-3.5c1-1,2.4-1.4,3.6-1.4C38,0,31,0,47,0z"/>
		<path class="st0" d="M45,6.2H27v6.6h18V6.2L45,6.2z M26,4h20h1v1.1v8.8V15h-1H26h-1v-1.1V5.1V4H26z"/>
		<rect x="25" y="18" class="st0" width="4" height="4"/>
		<rect x="43" y="18" class="st0" width="4" height="4"/>
		<rect x="34" y="18" class="st0" width="4" height="4"/>
		<rect x="25" y="25" class="st0" width="4" height="4"/>
		<rect x="43" y="25" class="st0" width="4" height="11"/>
		<rect x="34" y="25" class="st0" width="4" height="4"/>
		<rect x="25" y="32" class="st0" width="4" height="4"/>
		<rect x="34" y="32" class="st0" width="4" height="4"/>
		<polygon class="st0" points="19,27 1,27 0,27 0,26 0,13 0,12 1,12 19,12 19,14 2,14 2,25 19,25 		"/>
		<polygon class="st0" points="19,32 1,32 0,32 0,31 0,28 2,28 2,30 19,30 		"/>
		<polygon class="st0" points="19,37 1,37 0,37 0,36 0,33 2,33 2,35 19,35 		"/>
		<path class="st0" d="M10.1,16.8c-0.7,0-1.4,0.3-1.8,0.8c-0.5,0.5-0.8,1.1-0.8,1.8c0,0.7,0.3,1.4,0.8,1.8c0.5,0.5,1.1,0.8,1.8,0.8
			c0.7,0,1.4-0.3,1.8-0.8c0.5-0.5,0.8-1.1,0.8-1.8c0-0.7-0.3-1.4-0.8-1.8C11.4,17.1,10.8,16.8,10.1,16.8L10.1,16.8z M7,16.4
			c0.8-0.8,1.8-1.3,3-1.3c1.2,0,2.2,0.5,3,1.3c0.8,0.8,1.3,1.8,1.3,3c0,1.2-0.5,2.3-1.3,3c-0.8,0.8-1.8,1.3-3,1.3
			c-1.2,0-2.2-0.5-3-1.3c-0.8-0.8-1.3-1.8-1.3-3C5.8,18.2,6.3,17.2,7,16.4z"/>
		<path class="st1" d="M10.2,21.1v0.5H9.7v-0.5c-0.3,0-0.7-0.1-0.9-0.2L9,20.3c0.2,0.1,0.5,0.2,0.8,0.2c0.3,0,0.5-0.1,0.5-0.3
			c0-0.2-0.2-0.3-0.5-0.4c-0.5-0.2-0.9-0.4-0.9-0.9c0-0.4,0.3-0.8,0.9-0.9v-0.5h0.5v0.4c0.3,0,0.6,0.1,0.7,0.2l-0.1,0.6
			c-0.1-0.1-0.4-0.2-0.7-0.2c-0.3,0-0.4,0.1-0.4,0.3c0,0.2,0.2,0.3,0.6,0.4c0.6,0.2,0.8,0.5,0.8,0.9C11.1,20.6,10.8,21,10.2,21.1z"
			/>
	</g>
</g>
</svg>
