<?xml version="1.0" encoding="utf-8"?>
<!-- Generator: Adobe Illustrator 19.1.0, SVG Export Plug-In . SVG Version: 6.00 Build 0)  -->
<svg version="1.1" id="Layer_1" xmlns="http://www.w3.org/2000/svg" xmlns:xlink="http://www.w3.org/1999/xlink" x="0px" y="0px"
	 viewBox="0 0 38.6 40" style="enable-background:new 0 0 38.6 40;" xml:space="preserve">
<style type="text/css">
	.st0{fill:#212121;}
</style>
<g>
	<g>
		<path class="st0" d="M36.6,26.1c0,1.2-0.5,2.3-1.3,3.1c-0.8,0.8-1.9,1.3-3.1,1.3c-1.2,0-2.3-0.5-3.1-1.3c-0.8-0.8-1.3-1.9-1.3-3.1
			c0-1.2,0.5-2.3,1.3-3.1c0.8-0.8,1.9-1.3,3.1-1.3c1.2,0,2.3,0.5,3.1,1.3C36.1,23.9,36.6,24.9,36.6,26.1L36.6,26.1z M34,27.8
			c0.4-0.4,0.7-1,0.7-1.7c0-0.7-0.3-1.3-0.7-1.7c-0.4-0.4-1-0.7-1.7-0.7c-0.7,0-1.3,0.3-1.7,0.7c-0.4,0.4-0.7,1-0.7,1.7
			c0,0.7,0.3,1.3,0.7,1.7c0.4,0.4,1,0.7,1.7,0.7C33,28.5,33.6,28.3,34,27.8z"/>
		<path class="st0" d="M29.9,31.3h5.1c1,0,1.9,0.4,2.6,1c0.7,0.6,1,1.5,1,2.5v4.2V40h-1H27h-1v-0.9v-4.2c0-1,0.4-1.9,1.1-2.5
			C27.9,31.7,28.8,31.3,29.9,31.3L29.9,31.3z M34.9,33.2h-5.1c-0.5,0-1,0.2-1.4,0.5C28.2,34,28,34.4,28,34.8v3.3h8.6v-3.3
			c0-0.5-0.2-0.9-0.5-1.2C35.8,33.4,35.4,33.2,34.9,33.2z"/>
		<polygon class="st0" points="14.9,30.8 17.8,30.8 17.8,27.9 19.8,27.9 19.8,30.8 22.6,30.8 22.6,32.7 19.8,32.7 19.8,35.6 
			17.8,35.6 17.8,32.7 14.9,32.7 		"/>
		<path class="st0" d="M25,20.4h1.8c0,0,0.1,0,0.1,0c0.1,0,0.2-0.1,0.3-0.3c0.1-0.2,0.2-0.4,0.2-0.6h0c0-0.1,0-0.2,0-0.3l0,0
			l-2.6-8.5l0,0c0-0.1-0.1-0.3-0.2-0.4c-0.1-0.1-0.2-0.2-0.4-0.2l0,0l-1.7-0.3l-3,4.8l-0.6,1l-0.7-1l-3.1-4.8l-1.7,0.3
			c-0.1,0-0.3,0.1-0.4,0.2c-0.1,0.1-0.2,0.2-0.2,0.4l0,0l-2.6,8.5c0,0,0,0.1,0,0.2c0,0.2,0.1,0.5,0.2,0.7c0.1,0.2,0.3,0.3,0.5,0.4
			c0,0,0.1,0,0.1,0h1.6v1.6h-1.6c-0.2,0-0.4,0-0.5-0.1c-0.5-0.1-1-0.5-1.4-1c-0.3-0.5-0.5-1-0.5-1.6c0-0.2,0-0.4,0.1-0.6l0,0
			l2.6-8.5c0.1-0.4,0.3-0.8,0.7-1.1c0.3-0.3,0.7-0.5,1.1-0.6l2.2-0.4L15.8,8l0.3,0.4l2.8,4.2l2.6-4.2l0.3-0.4l0.5,0.1l2.2,0.4h0
			c0.4,0.1,0.8,0.3,1.1,0.6c0.3,0.3,0.5,0.7,0.7,1.1l0,0l2.6,8.5l0,0c0.1,0.2,0.1,0.5,0.1,0.7h0c0,0.5-0.1,1-0.4,1.5
			c-0.3,0.5-0.7,0.8-1.3,1c-0.2,0-0.3,0.1-0.5,0.1H25V20.4z"/>
		<path class="st0" d="M15.2,21.7l7.2,0v0h0.2v-4.3h-7.4V21.7L15.2,21.7z M23.3,23.6l-9.1,0l-1,0v-1v-6.2v-1h1h9.3h1v1v6.2v1h-1
			L23.3,23.6L23.3,23.6z"/>
		<path class="st0" d="M12.6,24.6c-0.5,0-1,0.4-1,1c0,0.5,0.4,1,1,1h12.4c0.5,0,1-0.4,1-1c0-0.5-0.4-1-1-1H12.6z"/>
		<path class="st0" d="M23,4.2c0,1.1-0.5,2.2-1.2,2.9C21,7.9,20,8.3,18.9,8.3c-1.2,0-2.2-0.5-2.9-1.2c-0.8-0.8-1.2-1.8-1.2-2.9
			c0-1.1,0.5-2.2,1.2-2.9C16.7,0.5,17.7,0,18.9,0C20,0,21,0.5,21.8,1.2C22.6,2,23,3,23,4.2L23,4.2z M20.5,5.8c0.4-0.4,0.7-1,0.7-1.6
			c0-0.6-0.3-1.2-0.7-1.6c-0.4-0.4-1-0.7-1.6-0.7c-0.6,0-1.2,0.3-1.6,0.7c-0.4,0.4-0.7,1-0.7,1.6c0,0.6,0.3,1.2,0.7,1.6
			c0.4,0.4,1,0.7,1.6,0.7C19.5,6.5,20.1,6.2,20.5,5.8z"/>
		<g>
			<path class="st0" d="M10.6,26.1c0,1.2-0.5,2.3-1.3,3.1c-0.8,0.8-1.9,1.3-3.1,1.3c-1.2,0-2.3-0.5-3.1-1.3
				c-0.8-0.8-1.3-1.9-1.3-3.1c0-1.2,0.5-2.3,1.3-3.1c0.8-0.8,1.9-1.3,3.1-1.3c1.2,0,2.3,0.5,3.1,1.3C10.1,23.9,10.6,24.9,10.6,26.1
				L10.6,26.1z M8,27.8c0.4-0.4,0.7-1,0.7-1.7c0-0.7-0.3-1.3-0.7-1.7c-0.4-0.4-1-0.7-1.7-0.7c-0.7,0-1.3,0.3-1.7,0.7
				c-0.4,0.4-0.7,1-0.7,1.7c0,0.7,0.3,1.3,0.7,1.7c0.4,0.4,1,0.7,1.7,0.7C6.9,28.5,7.5,28.3,8,27.8z"/>
			<path class="st0" d="M3.8,31.3h5.1c1,0,1.9,0.4,2.6,1c0.7,0.6,1,1.5,1,2.5v4.2V40h-1H1H0v-0.9v-4.2c0-1,0.4-1.9,1.1-2.5
				C1.9,31.7,2.8,31.3,3.8,31.3L3.8,31.3z M8.9,33.2H3.8c-0.5,0-1,0.2-1.4,0.5C2.2,34,2,34.4,2,34.8v3.3h8.6v-3.3
				c0-0.5-0.2-0.9-0.5-1.2C9.8,33.4,9.4,33.2,8.9,33.2z"/>
		</g>
	</g>
</g>
</svg>
