<?xml version="1.0" encoding="utf-8"?>
<!-- Generator: Adobe Illustrator 16.0.0, SVG Export Plug-In . SVG Version: 6.00 Build 0)  -->
<!DOCTYPE svg PUBLIC "-//W3C//DTD SVG 1.1//EN" "http://www.w3.org/Graphics/SVG/1.1/DTD/svg11.dtd">
<svg version="1.1" id="Layer_1" xmlns="http://www.w3.org/2000/svg" xmlns:xlink="http://www.w3.org/1999/xlink" x="0px" y="0px"
	 width="64.589px" height="1065.121px" viewBox="0 0 64.589 1065.121" enable-background="new 0 0 64.589 1065.121"
	 xml:space="preserve">
<g>
	<g>
		<path fill="#333333" d="M48.379,35.262c-1.672-3.349-3.4-6.812-3.502-10.623C44.671,17.05,50.055,5.57,50.11,5.455
			c0.285-0.601,0.034-1.317-0.566-1.619l-7.36-3.7c-0.39-0.195-0.854-0.18-1.226,0.047c-0.373,0.224-0.6,0.622-0.6,1.051
			c0,2.281-3.25,4.933-7.439,4.935c-4.167-0.002-7.523-2.7-7.523-4.935c0-0.427-0.226-0.824-0.596-1.049
			c-0.371-0.227-0.831-0.245-1.22-0.054l-7.527,3.7c-0.598,0.294-0.856,0.996-0.588,1.597c0.052,0.116,5.117,11.598,4.913,19.211
			c-0.102,3.792-1.997,7.251-3.831,10.596c-1.816,3.314-3.696,6.742-3.696,10.407v4.935c0,2.721,2.251,4.934,5.019,4.934
			c1.505,0,2.842-0.669,3.763-1.705c0.92,1.036,2.257,1.705,3.763,1.705s2.843-0.669,3.763-1.705
			c0.921,1.036,2.258,1.705,3.764,1.705c0.013,0,0.024-0.007,0.037-0.007c0.013,0,0.024,0.007,0.037,0.007
			c1.506,0,2.843-0.669,3.764-1.705c0.92,1.036,2.258,1.705,3.764,1.705c1.414,0,2.688-0.583,3.601-1.511
			c0.768,0.951,1.891,1.511,3.262,1.511c2.604,0,4.353-1.982,4.353-4.934v-4.935C51.739,41.999,50.03,38.575,48.379,35.262z
			 M18.223,5.523l5.015-2.465c1.193,3.087,5.269,5.574,9.675,5.578l0.001,0c0.001,0,0.002,0,0.004,0s0.002,0,0.004,0
			c0,0,0.001,0,0.001,0c4.45-0.003,8.437-2.442,9.601-5.557l4.818,2.422c-1.312,2.979-4.758,11.408-4.966,18.088
			c-0.017,0.009-0.034,0.008-0.051,0.017c-8.026,4.59-16.974,1.34-19.445,0.277C22.784,17.167,19.472,8.539,18.223,5.523z
			 M49.23,50.577c0,0.741-0.181,2.467-1.844,2.467c-1.665,0-1.845-1.726-1.845-2.467c0-0.683-0.562-1.234-1.254-1.234
			c-0.693,0-1.256,0.552-1.256,1.234c0,1.359-1.125,2.467-2.508,2.467c-1.384,0-2.51-1.107-2.51-2.467
			c0-0.683-0.561-1.234-1.254-1.234s-1.255,0.552-1.255,1.234c0,1.359-1.126,2.467-2.509,2.467c-0.013,0-0.024,0.007-0.037,0.007
			c-0.013,0-0.024-0.007-0.037-0.007c-1.383,0-2.51-1.107-2.51-2.467c0-0.683-0.561-1.234-1.254-1.234s-1.255,0.552-1.255,1.234
			c0,1.359-1.126,2.467-2.509,2.467s-2.509-1.107-2.509-2.467c0-0.683-0.561-1.234-1.255-1.234c-0.693,0-1.254,0.552-1.254,1.234
			c0,1.359-1.126,2.467-2.509,2.467c-1.384,0-2.51-1.107-2.51-2.467v-4.935c0-3.042,1.65-6.051,3.396-9.237
			c1.697-3.096,3.437-6.285,3.967-9.903c2.057,0.811,5.803,1.993,10.19,1.993c3.007,0,6.315-0.567,9.579-2.183
			c0.458,3.67,2.069,6.9,3.634,10.038c1.597,3.199,3.104,6.221,3.104,9.292V50.577z"/>
	</g>
</g>
<g>
	<g>
		<path fill="#333333" d="M59.997,134.563c0.014-0.93-0.154-1.841-0.502-2.71l-3.802-9.51c-1.437-3.59-4.6-6.322-8.465-7.307
			l-7.681-1.956c-0.373-0.098-0.78-0.021-1.092,0.211c-0.309,0.229-0.49,0.583-0.49,0.96c0,2.907-2.438,5.099-5.671,5.099
			s-5.67-2.191-5.67-5.099c0-0.377-0.182-0.73-0.491-0.96c-0.31-0.231-0.715-0.308-1.091-0.211l-7.681,1.956
			c-3.865,0.984-7.029,3.717-8.464,7.307l-3.801,9.509c-0.348,0.87-0.517,1.781-0.502,2.712c0.172,10.575,0.258,22.792-0.014,25.366
			c-0.063,0.598,0.34,1.15,0.946,1.298c0.108,0.026,2.728,0.642,8.018,0.027c0.592-0.067,1.053-0.526,1.105-1.099l1.114-12.324
			c0.354,8.897,0.007,15.195-1.029,17.855c-0.133,0.342-0.099,0.725,0.093,1.039c0.192,0.315,0.522,0.53,0.897,0.585
			c0.367,0.054,8.56,1.241,15.326,1.241c0.421,0,0.837-0.005,1.244-0.015c0.407,0.01,0.823,0.015,1.244,0.015
			c6.767,0,14.96-1.188,15.326-1.241c0.375-0.055,0.705-0.27,0.897-0.585c0.191-0.314,0.227-0.697,0.094-1.039
			c-1.037-2.66-1.384-8.958-1.029-17.855l1.113,12.324c0.052,0.572,0.514,1.031,1.105,1.099c5.291,0.614,7.91-0.001,8.018-0.027
			c0.607-0.147,1.01-0.7,0.946-1.298C59.738,157.355,59.824,145.139,59.997,134.563z M57.423,159.017
			c-0.979,0.091-2.662,0.156-5.063-0.063l-2.028-22.438c-0.074-0.837-0.789-1.467-1.661-1.467c-0.003,0-0.005,0-0.006,0
			c-0.872,0.004-1.583,0.638-1.651,1.474c-0.676,8.188-1.505,22.189,0.043,28.585c-2.883,0.369-9.561,1.129-14.73,1.006
			l-0.032,1.212l-0.032-1.212c-5.168,0.123-11.846-0.637-14.731-1.006c1.548-6.396,0.719-20.397,0.043-28.585
			c-0.069-0.836-0.779-1.47-1.651-1.474c-0.001,0-0.004,0-0.006,0c-0.873,0-1.586,0.63-1.661,1.467l-2.028,22.438
			c-2.403,0.221-4.085,0.154-5.063,0.063c0.236-5.067,0.023-19.771-0.053-24.49c-0.01-0.618,0.102-1.225,0.335-1.805l3.801-9.509
			c1.146-2.866,3.672-5.047,6.757-5.832l6.255-1.594c0.729,3.502,3.941,5.987,8.034,5.987s7.305-2.485,8.034-5.987l6.255,1.594
			c3.085,0.785,5.61,2.966,6.757,5.832l3.801,9.51c0.232,0.579,0.345,1.186,0.334,1.803
			C57.399,139.246,57.187,153.948,57.423,159.017z"/>
	</g>
</g>
<g>
	<g>
		<path fill-rule="evenodd" clip-rule="evenodd" fill="#333333" d="M54.12,266.466v-34.1c0-0.697-0.559-1.264-1.246-1.264H10.469
			c-0.689,0-1.248,0.566-1.248,1.264v34.1c0,0.697,0.559,1.264,1.248,1.264h42.404C53.561,267.73,54.12,267.164,54.12,266.466z
			 M51.625,265.204H11.716v-31.575h39.909V265.204z M61.603,270.255h-2.495V229.84c0-2.089-1.678-3.788-3.74-3.788H7.974
			c-2.063,0-3.741,1.699-3.741,3.788v40.415H2.986c-0.688,0-1.247,0.564-1.247,1.262v6.316c0,2.09,1.678,3.787,3.741,3.787h53.628
			c2.063,0,3.742-1.697,3.742-3.787v-6.316C62.85,270.82,62.292,270.255,61.603,270.255z M6.727,229.84
			c0-0.696,0.561-1.263,1.247-1.263h47.394c0.688,0,1.246,0.566,1.246,1.263v40.415h-17.46c-0.688,0-1.247,0.564-1.247,1.262v2.527
			H25.435v-2.527c0-0.697-0.559-1.262-1.247-1.262H6.727V229.84z M60.356,277.833c0,0.695-0.561,1.264-1.248,1.264H5.48
			c-0.688,0-1.247-0.568-1.247-1.264v-5.053h18.708v2.525c0,0.697,0.559,1.264,1.247,1.264h14.966c0.688,0,1.247-0.566,1.247-1.264
			v-2.525h19.955V277.833z"/>
	</g>
</g>
<g>
	<g>
		<path fill="#333333" d="M44.708,339.093H19.881c-3.111,0-5.643,2.598-5.643,5.789v43.992c0,3.191,2.531,5.789,5.643,5.789h24.826
			c3.111,0,5.643-2.598,5.643-5.789v-43.992C50.35,341.69,47.819,339.093,44.708,339.093z M48.093,388.874
			c0,1.916-1.519,3.475-3.386,3.475H19.881c-1.867,0-3.386-1.559-3.386-3.475v-5.789h31.598V388.874z M48.093,380.771H16.496
			v-31.258h31.598V380.771z M48.093,347.196H16.496v-2.314c0-1.916,1.519-3.475,3.386-3.475h24.826c1.867,0,3.386,1.559,3.386,3.475
			V347.196z M32.294,390.032c1.245,0,2.257-1.039,2.257-2.316s-1.012-2.314-2.257-2.314c-1.244,0-2.257,1.037-2.257,2.314
			S31.05,390.032,32.294,390.032z"/>
	</g>
</g>
<g>
	<g>
		<path fill-rule="evenodd" clip-rule="evenodd" fill="#333333" d="M15.738,500.219c0.244,0.246,0.562,0.369,0.88,0.369
			s0.636-0.123,0.88-0.369l2.638-2.666c0.485-0.492,0.485-1.287,0-1.779s-1.272-0.492-1.759,0l-2.639,2.668
			C15.253,498.932,15.253,499.729,15.738,500.219z M12.22,494.883c-0.486,0.492-0.486,1.287,0,1.779
			c0.242,0.246,0.561,0.369,0.879,0.369s0.637-0.123,0.879-0.369l2.64-2.668c0.485-0.49,0.485-1.287,0-1.779
			c-0.485-0.49-1.272-0.49-1.759,0L12.22,494.883z M57.951,464.646l-10.554-10.672c-1.174-1.188-2.735-1.842-4.396-1.842
			c-1.662,0-3.224,0.654-4.396,1.842l-24.624,24.9c-1.175,1.189-1.822,2.768-1.822,4.447c0,1.252,0.359,2.449,1.029,3.469
			l-8.002,8.092c-0.233,0.236-0.365,0.557-0.365,0.891s0.132,0.654,0.365,0.889l10.553,10.672c0.233,0.234,0.55,0.367,0.88,0.367
			c0.331,0,0.646-0.133,0.88-0.367l8.001-8.092c1.01,0.678,2.192,1.041,3.432,1.041c1.66,0,3.222-0.654,4.396-1.842l24.624-24.902
			C60.375,471.088,60.375,467.098,57.951,464.646z M16.618,504.666l-8.795-8.893l7.036-7.115l8.793,8.894L16.618,504.666z
			 M56.192,471.76l-24.624,24.902c-1.41,1.426-3.869,1.424-5.277,0L15.738,485.99c-0.703-0.713-1.093-1.66-1.093-2.668
			s0.39-1.955,1.093-2.668l24.624-24.902c1.409-1.424,3.867-1.424,5.276,0l10.554,10.672
			C57.647,467.896,57.647,470.289,56.192,471.76z M42.122,462.867c-0.234-0.234-0.55-0.367-0.88-0.367
			c-0.331,0-0.646,0.133-0.88,0.367l-18.468,18.676c-0.233,0.236-0.365,0.557-0.365,0.891c0,0.332,0.132,0.652,0.365,0.889
			l7.036,7.115c0.233,0.234,0.549,0.367,0.88,0.367c0.33,0,0.646-0.133,0.879-0.367l18.467-18.678c0.485-0.49,0.485-1.287,0-1.777
			L42.122,462.867z M29.81,487.77l-5.278-5.336l16.71-16.898l5.276,5.336L29.81,487.77z"/>
	</g>
</g>
<g>
	<g>
		<path fill="#333333" d="M43.886,578.901l-2.698-10.167c-0.555-2.097-2.421-3.561-4.535-3.561h-8.716
			c-2.114,0-3.979,1.464-4.536,3.561l-2.697,10.167c-2.158,0.895-3.687,3.066-3.687,5.601v15.704c0,2.531,1.523,4.7,3.676,5.599
			l2.744,11.278c0.523,2.155,2.398,3.661,4.56,3.661h8.597c2.161,0,4.036-1.506,4.561-3.661l2.743-11.279
			c2.152-0.897,3.676-3.067,3.676-5.598v-15.704C47.573,581.968,46.044,579.797,43.886,578.901z M25.668,569.369
			c0.278-1.047,1.211-1.779,2.268-1.779h8.716c1.057,0,1.99,0.732,2.268,1.779l2.412,9.093H23.256L25.668,569.369z M38.874,616.497
			c-0.262,1.078-1.199,1.83-2.28,1.83h-8.597c-1.081,0-2.019-0.752-2.28-1.83l-2.493-10.249h18.143L38.874,616.497z M45.222,600.206
			c0,1.999-1.581,3.625-3.526,3.625H22.893c-1.944,0-3.526-1.626-3.526-3.625v-15.704c0-1.999,1.582-3.624,3.526-3.624h18.803
			c1.945,0,3.526,1.625,3.526,3.624V600.206z M36.165,588.48l-3.87,3.978l-6.22-6.394c-0.459-0.472-1.203-0.472-1.662,0
			s-0.459,1.235,0,1.708l7.051,7.249c0.229,0.235,0.53,0.354,0.831,0.354s0.602-0.118,0.831-0.354l4.701-4.833
			c0.459-0.472,0.459-1.236,0-1.708S36.624,588.009,36.165,588.48z"/>
	</g>
</g>
<g>
	<g>
		<path fill="#333333" d="M41.044,704.084h-17.5c-0.69,0-1.25,0.571-1.25,1.276v17.873c0,0.705,0.56,1.276,1.25,1.276h17.5
			c0.69,0,1.25-0.571,1.25-1.276V705.36C42.294,704.655,41.735,704.084,41.044,704.084z M39.794,721.956h-15v-15.319h15V721.956z
			 M46.044,683.658h-6.25v-6.383c0-0.706-0.56-1.276-1.25-1.276h-12.5c-0.69,0-1.25,0.57-1.25,1.276v6.383h-6.25
			c-2.067,0-3.75,1.718-3.75,3.83v39.574c0,2.112,1.683,3.83,3.75,3.83v3.83c0,0.705,0.56,1.276,1.25,1.276s1.25-0.571,1.25-1.276
			v-3.83h23.75v3.83c0,0.705,0.56,1.276,1.25,1.276s1.25-0.571,1.25-1.276v-4.065c1.452-0.528,2.5-1.933,2.5-3.595v-39.574
			C49.794,685.376,48.113,683.658,46.044,683.658z M27.294,678.552h10v5.106h-10V678.552z M47.294,727.063
			c0,0.705-0.561,1.276-1.25,1.276h-27.5c-0.688,0-1.25-0.571-1.25-1.276v-39.574c0-0.704,0.562-1.276,1.25-1.276h27.5
			c0.689,0,1.25,0.572,1.25,1.276V727.063z M28.544,711.743h7.5c0.69,0,1.25-0.57,1.25-1.276c0-0.705-0.56-1.276-1.25-1.276h-7.5
			c-0.69,0-1.25,0.571-1.25,1.276C27.294,711.173,27.854,711.743,28.544,711.743z"/>
	</g>
</g>
<g>
	<g>
		<path fill-rule="evenodd" clip-rule="evenodd" fill="#333333" d="M27.395,809.242c2.134,0,3.871-1.763,3.871-3.93
			c0-2.166-1.737-3.93-3.871-3.93c-2.134,0-3.871,1.764-3.871,3.93C23.524,807.479,25.261,809.242,27.395,809.242z M27.395,803.629
			c0.915,0,1.659,0.755,1.659,1.684s-0.744,1.685-1.659,1.685c-0.915,0-1.659-0.756-1.659-1.685S26.48,803.629,27.395,803.629z
			 M37.347,809.242c2.135,0,3.871-1.763,3.871-3.93c0-2.166-1.736-3.93-3.871-3.93c-2.133,0-3.87,1.764-3.87,3.93
			C33.477,807.479,35.214,809.242,37.347,809.242z M37.347,803.629c0.915,0,1.659,0.755,1.659,1.684s-0.744,1.685-1.659,1.685
			c-0.914,0-1.658-0.756-1.658-1.685S36.433,803.629,37.347,803.629z M27.948,812.611c0,1.889,1.943,3.368,4.423,3.368
			c2.481,0,4.423-1.479,4.423-3.368c0-1.89-1.942-3.369-4.423-3.369C29.891,809.242,27.948,810.722,27.948,812.611z M32.371,811.488
			c1.35,0,2.212,0.664,2.212,1.123c0,0.458-0.862,1.123-2.212,1.123c-1.35,0-2.211-0.665-2.211-1.123
			C30.16,812.152,31.021,811.488,32.371,811.488z M35.5,829.26c-1.672,1.698-4.584,1.698-6.256,0c-0.432-0.438-1.132-0.438-1.563,0
			c-0.432,0.439-0.432,1.149,0,1.588c1.252,1.273,2.919,1.974,4.691,1.974c1.773,0,3.439-0.7,4.691-1.974
			c0.433-0.438,0.433-1.148,0-1.588C36.63,828.821,35.931,828.821,35.5,829.26z M55.248,817.605
			c-0.923-2.227-2.848-3.723-4.791-3.723c-0.498,0-0.979,0.098-1.43,0.291c-0.892,0.381-1.59,1.127-2.015,2.089
			c-0.72-1.46-1.348-2.498-1.624-2.934c0.863-1.585,1.359-3.347,1.359-5.209c0-1.874-0.503-3.646-1.376-5.238
			c0.073-0.06,0.142-0.128,0.2-0.209c1.734-2.408,1.217-5.801-1.156-7.563c-1.148-0.854-2.561-1.199-3.963-0.979
			c-1.407,0.222-2.645,0.985-3.484,2.153c-0.028,0.039-0.035,0.085-0.057,0.126c-1.43-0.41-2.953-0.642-4.541-0.642
			c-1.82,0-3.555,0.304-5.159,0.836c-0.032-0.168-0.09-0.332-0.201-0.477c-0.872-1.143-2.129-1.872-3.542-2.054
			c-1.416-0.184-2.81,0.206-3.934,1.09c-1.125,0.886-1.845,2.163-2.023,3.598c-0.179,1.433,0.202,2.852,1.074,3.994
			c0.164,0.217,0.397,0.327,0.641,0.382c-0.787,1.525-1.232,3.209-1.232,4.982c0,1.795,0.458,3.496,1.263,5.036
			c-0.142,0.215-0.766,1.186-1.54,2.71c-0.293-0.502-0.683-0.935-1.177-1.255c-0.593-0.383-1.295-0.586-2.028-0.586
			c-1.756,0-3.546,1.115-4.673,2.911c-1.636,2.612-1.294,5.818,0.764,7.148c0.593,0.383,1.295,0.585,2.028,0.585
			c0.725,0,1.452-0.199,2.14-0.548c-0.576,2.797-0.757,5.881-0.065,8.949c0.016,0.073,0.053,0.134,0.082,0.199
			c-0.763,1.463-1.216,3.242-1.216,5.165c0,5.614,3.993,5.614,6.635,5.614c1.599,0,3.688-0.009,5.092-1.253
			c1.065,0.256,3.722,0.798,7.063,0.798c2.127,0,4.532-0.236,6.969-0.893c1.403,1.346,3.564,1.348,5.206,1.348
			c2.643,0,6.635,0,6.635-5.614c0-2.022-0.502-3.885-1.339-5.388c0.676-3.019,0.513-6.053-0.042-8.812
			c0.663,0.369,1.378,0.576,2.096,0.576c0.498,0,0.979-0.098,1.43-0.29c1.13-0.482,1.969-1.54,2.304-2.899
			C55.931,820.36,55.798,818.934,55.248,817.605z M43.111,796.922c1.254,0.933,1.612,2.641,0.921,4.002
			c-1.289-1.537-2.971-2.814-4.929-3.71C40.173,796.159,41.87,796.002,43.111,796.922z M32.371,798.015
			c6.708,0,12.166,4.533,12.166,10.105s-5.457,10.105-12.166,10.105c-6.708,0-12.165-4.533-12.165-10.105
			S25.664,798.015,32.371,798.015z M19.706,799.043c0.104-0.839,0.525-1.585,1.184-2.104c1.333-1.047,3.241-0.818,4.309,0.492
			c-1.958,0.975-3.626,2.33-4.862,3.953c-0.001-0.001-0.001-0.003-0.002-0.004C19.824,800.712,19.601,799.882,19.706,799.043z
			 M11.791,822.19c-1.012-0.654-1.051-2.508-0.085-4.048c0.713-1.137,1.814-1.871,2.807-1.871c0.316,0,0.6,0.079,0.84,0.234
			c1.012,0.653,1.051,2.508,0.085,4.047C14.498,822.053,12.786,822.835,11.791,822.19z M20.207,841.804
			c-3.276,0-4.423-0.276-4.423-3.368c0-3.651,2.026-6.736,4.423-6.736s4.424,3.085,4.424,6.736
			C24.63,841.527,23.483,841.804,20.207,841.804z M38.188,840.684c-4.851,1.158-9.559,0.499-11.656,0.081
			c0.193-0.646,0.31-1.404,0.31-2.329c0-4.953-2.976-8.982-6.635-8.982c-1.337,0-2.581,0.542-3.623,1.467
			c-0.766-6.711,2.697-13.424,4.029-15.717c2.604,3.18,6.9,5.268,11.759,5.268c4.786,0,9.021-2.027,11.635-5.126
			c1.382,2.407,4.636,8.891,3.956,15.413c-1.002-0.822-2.172-1.305-3.426-1.305c-3.66,0-6.636,4.029-6.636,8.982
			C37.901,839.322,38.009,840.055,38.188,840.684z M44.537,841.804c-3.277,0-4.424-0.276-4.424-3.368
			c0-3.651,2.025-6.736,4.424-6.736c2.396,0,4.423,3.085,4.423,6.736C48.959,841.527,47.812,841.804,44.537,841.804z
			 M53.474,821.078c-0.097,0.393-0.356,1.093-1.016,1.374c-1.103,0.477-2.642-0.584-3.325-2.232
			c-0.362-0.871-0.458-1.819-0.265-2.602c0.096-0.393,0.356-1.094,1.016-1.374c0.178-0.077,0.37-0.115,0.572-0.115
			c1.047,0,2.18,0.966,2.752,2.348C53.571,819.347,53.667,820.295,53.474,821.078z"/>
	</g>
</g>
<g>
	<g>
		<path fill-rule="evenodd" clip-rule="evenodd" fill="#333333" d="M56.342,908.05c-1.266-1.266-2.949-1.962-4.738-1.962
			c-1.92,0-3.749,0.823-5.021,2.26L13.08,946.193l-0.778-0.777c-1.333-1.332-3.656-1.331-4.986,0c-1.374,1.373-1.374,3.608,0,4.981
			l6.648,6.644c0.666,0.665,1.551,1.031,2.493,1.031c0.942,0,1.827-0.366,2.492-1.031c0.666-0.666,1.033-1.55,1.033-2.491
			s-0.367-1.826-1.033-2.491l-0.778-0.778l37.872-33.479c1.4-1.237,2.201-2.946,2.259-4.812
			C58.359,911.124,57.664,909.369,56.342,908.05z M14.741,951.176l2.545,2.543c0.458,0.459,0.458,1.203,0,1.661
			c-0.442,0.443-1.217,0.443-1.662,0l-6.648-6.643c-0.458-0.458-0.458-1.203,0-1.661c0.223-0.222,0.518-0.344,0.832-0.344
			c0.313,0,0.608,0.122,0.831,0.344l2.545,2.544l10.141-11.455l2.879,2.877L14.741,951.176z M54.487,916.042l-26.518,23.441
			l-3.083-3.081l23.457-26.498c0.826-0.933,2.014-1.468,3.261-1.468c1.161,0,2.255,0.452,3.077,1.273
			c0.857,0.857,1.309,1.997,1.271,3.208C55.916,914.13,55.394,915.239,54.487,916.042z M23.48,920.902
			c3.563,0,6.463-2.897,6.463-6.458c0-3.562-2.9-6.459-6.463-6.459c-3.563,0-6.463,2.897-6.463,6.459
			C17.017,918.005,19.917,920.902,23.48,920.902z M23.48,910.334c2.268,0,4.113,1.844,4.113,4.11c0,2.266-1.845,4.109-4.113,4.109
			c-2.268,0-4.113-1.844-4.113-4.109C19.367,912.178,21.212,910.334,23.48,910.334z"/>
	</g>
</g>
<g>
	<g>
		<path fill="#333333" d="M55.372,1030.364c-0.248-0.214-6.152-5.243-13.577-5.243c-3.069,0-6.34,1.382-9.5,4.005
			c-3.159-2.623-6.429-4.005-9.5-4.005c-7.424,0-13.329,5.029-13.577,5.243c-0.352,0.305-0.447,0.811-0.23,1.223
			c0.247,0.471,6.155,11.534,13.808,11.534c3.071,0,6.341-1.382,9.5-4.005c3.16,2.623,6.431,4.005,9.5,4.005
			c2.044,0,3.962-0.793,5.682-1.959l-7.249,22.654c-0.169,0.526,0.121,1.089,0.647,1.257c0.102,0.032,0.204,0.048,0.305,0.048
			c0.424,0,0.816-0.271,0.952-0.695l8-25c0.053-0.164,0.048-0.327,0.018-0.484c3.229-3.188,5.309-7.079,5.453-7.354
			C55.819,1031.175,55.723,1030.669,55.372,1030.364z M41.794,1041.121c-3.521,0-6.748-2.214-8.835-4.071
			c-0.189-0.169-0.428-0.253-0.665-0.253s-0.476,0.084-0.665,0.253c-2.086,1.857-5.312,4.071-8.835,4.071
			c-5.44,0-10.231-7.378-11.629-9.745c1.645-1.223,6.263-4.255,11.629-4.255c3.523,0,6.749,2.214,8.835,4.071
			c0.379,0.338,0.951,0.338,1.33,0c2.087-1.857,5.313-4.071,8.835-4.071c5.35,0,9.98,3.034,11.629,4.256
			C52.028,1033.745,47.245,1041.121,41.794,1041.121z M22.679,1031.121c-3.354,0-6.019,2.133-6.131,2.224
			c-0.233,0.19-0.369,0.476-0.369,0.776s0.136,0.586,0.369,0.776c0.112,0.091,2.777,2.224,6.131,2.224s6.019-2.133,6.131-2.224
			c0.233-0.19,0.369-0.476,0.369-0.776s-0.136-0.586-0.369-0.776C28.698,1033.254,26.033,1031.121,22.679,1031.121z
			 M22.679,1035.121c-1.432,0-2.742-0.521-3.643-1c0.9-0.479,2.211-1,3.643-1s2.742,0.521,3.643,1
			C25.421,1034.6,24.111,1035.121,22.679,1035.121z M35.548,1033.345c-0.233,0.19-0.369,0.476-0.369,0.776s0.136,0.586,0.369,0.776
			c0.112,0.091,2.777,2.224,6.131,2.224s6.019-2.133,6.131-2.224c0.233-0.19,0.369-0.476,0.369-0.776s-0.136-0.586-0.369-0.776
			c-0.112-0.091-2.777-2.224-6.131-2.224S35.661,1033.254,35.548,1033.345z M41.679,1035.121c-1.432,0-2.742-0.521-3.643-1
			c0.9-0.479,2.211-1,3.643-1s2.742,0.521,3.643,1C44.421,1034.6,43.111,1035.121,41.679,1035.121z"/>
	</g>
</g>
</svg>
