<?xml version="1.0" encoding="utf-8"?>
<!-- Generator: Adobe Illustrator 16.0.0, SVG Export Plug-In . SVG Version: 6.00 Build 0)  -->
<!DOCTYPE svg PUBLIC "-//W3C//DTD SVG 1.1//EN" "http://www.w3.org/Graphics/SVG/1.1/DTD/svg11.dtd">
<svg version="1.1" id="Layer_1" xmlns="http://www.w3.org/2000/svg" xmlns:xlink="http://www.w3.org/1999/xlink" x="0px" y="0px"
	 width="48.002px" height="753.458px" viewBox="0 0 48.002 753.458" enable-background="new 0 0 48.002 753.458"
	 xml:space="preserve">
<g>
	<g>
		<path fill-rule="evenodd" clip-rule="evenodd" fill="#333333" d="M6,346.846c-2.849,0-5.167,2.317-5.167,5.166
			c0,2.848,2.318,5.165,5.167,5.165s5.167-2.317,5.167-5.165C11.167,349.163,8.849,346.846,6,346.846z M6,355.177
			c-1.746,0-3.167-1.42-3.167-3.165c0-1.746,1.42-3.166,3.167-3.166s3.167,1.42,3.167,3.166C9.167,353.757,7.747,355.177,6,355.177z
			 M24.001,346.846c-2.849,0-5.167,2.317-5.167,5.166c0,2.848,2.318,5.165,5.167,5.165c2.849,0,5.167-2.317,5.167-5.165
			C29.168,349.163,26.851,346.846,24.001,346.846z M24.001,355.177c-1.746,0-3.167-1.42-3.167-3.165c0-1.746,1.42-3.166,3.167-3.166
			c1.747,0,3.167,1.42,3.167,3.166C27.168,353.757,25.748,355.177,24.001,355.177z M42.002,346.846
			c-2.849,0-5.167,2.317-5.167,5.166c0,2.848,2.318,5.165,5.167,5.165s5.166-2.317,5.166-5.165
			C47.168,349.163,44.851,346.846,42.002,346.846z M42.002,355.177c-1.746,0-3.166-1.42-3.166-3.165c0-1.746,1.42-3.166,3.166-3.166
			s3.166,1.42,3.166,3.166C45.168,353.757,43.749,355.177,42.002,355.177z M5.01,288.75c-0.02,0.42,0.267,0.794,0.678,0.883
			c0.074,0.016,7.528,1.597,17.822,1.597c10.295,0,17.748-1.581,17.821-1.597c0.412-0.089,0.698-0.463,0.679-0.883
			c-0.392-8.231-5.515-10.787-9.334-11.993c-2.076-0.656-3.458-1.603-4.102-2.109c1.788-1.756,2.993-4.05,3.427-5.318
			c0.038-0.023,0.079-0.048,0.119-0.073c0.299-0.187,0.498-0.31,0.631-0.546c1.097-1.942,1.386-3.499,0.858-4.628
			c-0.249-0.533-0.624-0.859-0.956-1.057c0-0.842-0.064-2.428-0.472-3.97c-0.017-0.058-1.647-5.819-8.672-5.819
			c-7.023,0-8.656,5.762-8.673,5.823c-0.407,1.539-0.471,3.124-0.471,3.966c-0.333,0.197-0.708,0.523-0.957,1.057
			c-0.527,1.129-0.239,2.686,0.859,4.629c0.133,0.235,0.331,0.358,0.631,0.545c0.04,0.025,0.081,0.05,0.119,0.073
			c0.434,1.27,1.64,3.565,3.428,5.32c-0.638,0.504-2.009,1.446-4.103,2.108C10.524,277.963,5.402,280.519,5.01,288.75z
			 M16.589,268.586c-0.108-0.375-0.405-0.56-0.78-0.793c-0.043-0.026-0.085-0.053-0.123-0.076c-0.994-1.814-0.84-2.62-0.725-2.886
			c0.136-0.313,0.423-0.391,0.435-0.395c0.426-0.078,0.728-0.461,0.704-0.894c-0.001-0.021-0.108-2.108,0.402-4.039
			c0.013-0.045,1.29-4.545,7.01-4.545c5.675,0,6.959,4.363,7.009,4.542c0.509,1.924,0.404,4.021,0.403,4.042
			c-0.022,0.414,0.279,0.792,0.683,0.89c0.032,0.008,0.319,0.085,0.455,0.398c0.115,0.266,0.269,1.071-0.726,2.886
			c-0.038,0.023-0.08,0.05-0.122,0.076c-0.376,0.233-0.672,0.418-0.78,0.795c-0.409,1.422-3.181,6.717-6.922,6.717
			C19.768,275.305,16.998,270.01,16.589,268.586z M19.798,275.769c1.094,0.756,2.339,1.258,3.712,1.258s2.618-0.502,3.713-1.258
			c0.613,0.525,2.272,1.79,4.935,2.631c3.696,1.167,7.513,3.24,8.083,9.691c-2.084,0.384-8.458,1.415-16.73,1.415
			c-8.263,0-14.644-1.032-16.731-1.416c0.57-6.45,4.387-8.523,8.083-9.69C17.525,277.559,19.184,276.294,19.798,275.769z
			 M13.205,201.656c4.19,4.53,8.747,8.037,10.044,9.004l0.753,0.562l0.752-0.561c1.297-0.968,5.855-4.475,10.045-9.004
			c5.443-5.887,8.204-11.201,8.204-15.796c0-5.867-4.81-10.641-10.721-10.641c-3.235,0-6.263,2.454-8.28,4.89
			c-2.016-2.436-5.044-4.89-8.279-4.89C9.81,175.221,5,179.994,5,185.861C5,190.456,7.761,195.771,13.205,201.656z M15.722,176.708
			c2.981,0,5.734,2.612,7.184,5.208l1.096,1.962l1.096-1.962c1.451-2.596,4.203-5.208,7.184-5.208c4.531,0,9.215,4.657,9.215,9.153
			c0,3.897-2.608,8.777-7.544,14.113c-3.447,3.727-8.154,7.738-9.951,9.126c-1.797-1.388-6.504-5.4-9.951-9.126
			c-4.936-5.336-7.545-10.217-7.545-14.113C6.506,181.365,11.191,176.708,15.722,176.708z M11.001,97.217
			c-1.93,0-3.5,1.57-3.5,3.501c0,1.929,1.57,3.499,3.5,3.499c1.93,0,3.5-1.57,3.5-3.499C14.501,98.787,12.931,97.217,11.001,97.217z
			 M11.001,102.218c-0.827,0-1.5-0.673-1.5-1.5c0-0.828,0.673-1.5,1.5-1.5s1.5,0.672,1.5,1.5
			C12.501,101.545,11.828,102.218,11.001,102.218z M11.001,109.218c-1.93,0-3.5,1.57-3.5,3.5c0,1.931,1.57,3.501,3.5,3.501
			c1.93,0,3.5-1.57,3.5-3.501C14.501,110.788,12.931,109.218,11.001,109.218z M11.001,114.219c-0.827,0-1.5-0.673-1.5-1.501
			c0-0.827,0.673-1.499,1.5-1.499s1.5,0.672,1.5,1.499C12.501,113.546,11.828,114.219,11.001,114.219z M11.001,121.219
			c-1.93,0-3.5,1.57-3.5,3.5s1.57,3.5,3.5,3.5c1.93,0,3.5-1.57,3.5-3.5S12.931,121.219,11.001,121.219z M11.001,126.219
			c-0.827,0-1.5-0.673-1.5-1.5s0.673-1.5,1.5-1.5s1.5,0.673,1.5,1.5S11.828,126.219,11.001,126.219z M39.502,100.218H18.501
			c-0.552,0-1,0.447-1,0.999c0,0.553,0.448,1.001,1,1.001h21.001c0.552,0,1-0.448,1-1.001
			C40.502,100.665,40.054,100.218,39.502,100.218z M39.502,112.219H18.501c-0.552,0-1,0.446-1,1c0,0.553,0.448,1,1,1h21.001
			c0.552,0,1-0.447,1-1C40.502,112.665,40.054,112.219,39.502,112.219z M39.502,124.219H18.501c-0.552,0-1,0.447-1,1s0.448,1,1,1
			h21.001c0.552,0,1-0.447,1-1S40.054,124.219,39.502,124.219z M7,19.994c-0.552,0-1,0.448-1,1v16.995c0,2.205,1.794,3.999,4,3.999
			h8c0.552,0,1-0.448,1-1v-9.996c0-0.552,0.449-1.001,1-1.001h8c0.551,0,1,0.449,1,1.001v9.996c0,0.552,0.447,1,1,1h8
			c2.205,0,4-1.794,4-3.999V20.994c0-0.552-0.448-1-1-1c-0.553,0-1,0.448-1,1v16.995c0,1.103-0.897,2-2,2h-7v-8.997
			c0-1.654-1.346-3-3-3h-8c-1.654,0-3,1.346-3,3v8.997h-7c-1.104,0-2-0.897-2-2V20.994C8,20.442,7.553,19.994,7,19.994z
			 M47.659,20.24L24.658,0.245c-0.376-0.327-0.937-0.327-1.313,0L0.344,20.24c-0.417,0.362-0.461,0.993-0.098,1.41
			c0.362,0.417,0.993,0.462,1.411,0.099L24.001,2.324l22.345,19.425c0.189,0.164,0.424,0.245,0.655,0.245
			c0.279,0,0.558-0.116,0.755-0.344C48.12,21.233,48.075,20.603,47.659,20.24z M24.001,21.161c2.849,0,5.167-2.317,5.167-5.165
			c0-2.849-2.317-5.165-5.167-5.165c-2.849,0-5.167,2.316-5.167,5.165C18.835,18.844,21.153,21.161,24.001,21.161z M24.001,12.83
			c1.747,0,3.167,1.42,3.167,3.166c0,1.745-1.42,3.166-3.167,3.166c-1.746,0-3.167-1.421-3.167-3.166
			C20.835,14.25,22.255,12.83,24.001,12.83z"/>
	</g>
</g>
<g>
	<g>
		<path fill-rule="evenodd" clip-rule="evenodd" fill="#2AACE3" d="M6.001,743.127c-2.849,0-5.166,2.317-5.166,5.166
			c0,2.848,2.317,5.165,5.166,5.165s5.166-2.317,5.166-5.165C11.167,745.444,8.85,743.127,6.001,743.127z M6.001,751.458
			c-1.746,0-3.166-1.42-3.166-3.165c0-1.746,1.42-3.166,3.166-3.166s3.166,1.42,3.166,3.166
			C9.167,750.038,7.747,751.458,6.001,751.458z M24.001,743.127c-2.849,0-5.166,2.317-5.166,5.166c0,2.848,2.317,5.165,5.166,5.165
			s5.166-2.317,5.166-5.165C29.167,745.444,26.85,743.127,24.001,743.127z M24.001,751.458c-1.746,0-3.166-1.42-3.166-3.165
			c0-1.746,1.42-3.166,3.166-3.166s3.166,1.42,3.166,3.166C27.167,750.038,25.748,751.458,24.001,751.458z M42.002,743.127
			c-2.849,0-5.167,2.317-5.167,5.166c0,2.848,2.318,5.165,5.167,5.165s5.166-2.317,5.166-5.165
			C47.168,745.444,44.851,743.127,42.002,743.127z M42.002,751.458c-1.746,0-3.166-1.42-3.166-3.165c0-1.746,1.42-3.166,3.166-3.166
			s3.166,1.42,3.166,3.166C45.168,750.038,43.748,751.458,42.002,751.458z M5.011,685.031c-0.02,0.42,0.268,0.794,0.678,0.883
			c0.074,0.016,7.527,1.596,17.822,1.596s17.748-1.58,17.821-1.596c0.412-0.089,0.698-0.463,0.679-0.883
			c-0.392-8.231-5.515-10.788-9.334-11.993c-2.076-0.656-3.458-1.603-4.101-2.109c1.787-1.756,2.993-4.051,3.427-5.319
			c0.038-0.023,0.079-0.048,0.119-0.073c0.299-0.187,0.498-0.31,0.631-0.546c1.097-1.942,1.386-3.499,0.858-4.628
			c-0.249-0.533-0.624-0.859-0.956-1.057c0-0.842-0.064-2.428-0.472-3.97c-0.017-0.058-1.647-5.818-8.672-5.818
			c-7.023,0-8.656,5.761-8.673,5.822c-0.406,1.539-0.471,3.124-0.471,3.966c-0.332,0.197-0.707,0.523-0.956,1.057
			c-0.527,1.129-0.239,2.686,0.858,4.629c0.134,0.235,0.332,0.358,0.631,0.545c0.041,0.025,0.082,0.05,0.119,0.073
			c0.435,1.271,1.641,3.565,3.429,5.321c-0.638,0.504-2.009,1.445-4.103,2.107C10.524,674.243,5.402,676.8,5.011,685.031z
			 M16.589,664.866c-0.109-0.375-0.406-0.56-0.781-0.793c-0.043-0.026-0.085-0.053-0.123-0.076c-0.993-1.814-0.84-2.62-0.725-2.886
			c0.137-0.313,0.424-0.391,0.436-0.395c0.426-0.078,0.727-0.461,0.703-0.894c-0.002-0.021-0.109-2.108,0.401-4.039
			c0.013-0.045,1.29-4.544,7.01-4.544c5.675,0,6.959,4.362,7.009,4.541c0.509,1.924,0.404,4.021,0.403,4.042
			c-0.022,0.414,0.279,0.792,0.683,0.89c0.032,0.008,0.319,0.085,0.455,0.398c0.115,0.266,0.269,1.071-0.726,2.886
			c-0.038,0.023-0.08,0.05-0.122,0.076c-0.376,0.233-0.672,0.418-0.78,0.795c-0.409,1.422-3.181,6.718-6.922,6.718
			C19.768,671.586,16.998,666.29,16.589,664.866z M19.797,672.05c1.095,0.756,2.34,1.258,3.713,1.258
			c1.373,0,2.618-0.502,3.712-1.258c0.614,0.525,2.272,1.79,4.936,2.631c3.696,1.167,7.513,3.24,8.083,9.691
			c-2.084,0.384-8.458,1.415-16.73,1.415c-8.263,0-14.644-1.032-16.73-1.416c0.569-6.45,4.387-8.523,8.082-9.69
			C17.525,673.84,19.184,672.576,19.797,672.05z M13.204,597.937c4.19,4.531,8.748,8.038,10.044,9.005l0.753,0.562l0.752-0.561
			c1.297-0.968,5.854-4.475,10.044-9.004c5.443-5.888,8.204-11.202,8.204-15.796c0-5.867-4.81-10.641-10.721-10.641
			c-3.235,0-6.263,2.454-8.279,4.89c-2.016-2.436-5.045-4.89-8.279-4.89c-5.912,0-10.721,4.773-10.721,10.641
			C5.001,586.736,7.761,592.051,13.204,597.937z M15.722,572.989c2.98,0,5.734,2.612,7.184,5.208l1.096,1.962l1.096-1.962
			c1.45-2.596,4.202-5.208,7.184-5.208c4.531,0,9.215,4.657,9.215,9.153c0,3.896-2.608,8.776-7.544,14.112
			c-3.447,3.728-8.154,7.739-9.951,9.127c-1.797-1.388-6.504-5.4-9.951-9.127c-4.936-5.336-7.544-10.217-7.544-14.112
			C6.507,577.646,11.192,572.989,15.722,572.989z M11.001,493.497c-1.93,0-3.5,1.57-3.5,3.502c0,1.929,1.57,3.499,3.5,3.499
			s3.5-1.57,3.5-3.499C14.501,495.067,12.931,493.497,11.001,493.497z M11.001,498.499c-0.827,0-1.5-0.673-1.5-1.5
			c0-0.828,0.673-1.5,1.5-1.5s1.5,0.672,1.5,1.5C12.501,497.826,11.828,498.499,11.001,498.499z M11.001,505.499
			c-1.93,0-3.5,1.57-3.5,3.499c0,1.931,1.57,3.501,3.5,3.501s3.5-1.57,3.5-3.501C14.501,507.069,12.931,505.499,11.001,505.499z
			 M11.001,510.499c-0.827,0-1.5-0.673-1.5-1.501c0-0.827,0.673-1.499,1.5-1.499s1.5,0.672,1.5,1.499
			C12.501,509.826,11.828,510.499,11.001,510.499z M11.001,517.499c-1.93,0-3.5,1.57-3.5,3.5s1.57,3.5,3.5,3.5s3.5-1.57,3.5-3.5
			S12.931,517.499,11.001,517.499z M11.001,522.499c-0.827,0-1.5-0.673-1.5-1.5s0.673-1.5,1.5-1.5s1.5,0.673,1.5,1.5
			S11.828,522.499,11.001,522.499z M39.502,496.499h-21c-0.553,0-1,0.447-1,0.999c0,0.553,0.447,1.001,1,1.001h21
			c0.552,0,1-0.448,1-1.001C40.502,496.946,40.054,496.499,39.502,496.499z M39.502,508.499h-21c-0.553,0-1,0.446-1,0.999
			c0,0.554,0.447,1.001,1,1.001h21c0.552,0,1-0.447,1-1.001C40.502,508.945,40.054,508.499,39.502,508.499z M39.502,520.499h-21
			c-0.553,0-1,0.447-1,1s0.447,1,1,1h21c0.552,0,1-0.447,1-1S40.054,520.499,39.502,520.499z M7.001,416.274c-0.553,0-1,0.448-1,1
			v16.996c0,2.205,1.795,3.999,4,3.999h8c0.553,0,1-0.448,1-1v-9.997c0-0.551,0.449-1.001,1-1.001h8c0.551,0,1,0.45,1,1.001v9.997
			c0,0.552,0.447,1,1,1h8c2.205,0,4-1.794,4-3.999v-16.996c0-0.552-0.448-1-1-1c-0.553,0-1,0.448-1,1v16.996c0,1.103-0.897,2-2,2h-7
			v-8.998c0-1.654-1.346-3-3-3h-8c-1.654,0-3,1.346-3,3v8.998h-7c-1.104,0-2-0.897-2-2v-16.996
			C8.001,416.723,7.554,416.274,7.001,416.274z M47.658,416.521l-23-19.994c-0.376-0.327-0.937-0.327-1.313,0l-23,19.994
			c-0.416,0.362-0.461,0.993-0.098,1.41c0.361,0.417,0.992,0.462,1.41,0.099l22.344-19.424l22.344,19.424
			c0.189,0.164,0.424,0.245,0.655,0.245c0.279,0,0.558-0.116,0.755-0.344C48.119,417.514,48.074,416.883,47.658,416.521z
			 M24.001,417.441c2.849,0,5.166-2.317,5.166-5.165c0-2.849-2.317-5.165-5.166-5.165s-5.166,2.316-5.166,5.165
			C18.835,415.124,21.153,417.441,24.001,417.441z M24.001,409.11c1.746,0,3.166,1.42,3.166,3.166c0,1.745-1.42,3.166-3.166,3.166
			s-3.166-1.421-3.166-3.166C20.835,410.53,22.255,409.11,24.001,409.11z"/>
	</g>
</g>
</svg>
