<?xml version="1.0" encoding="utf-8"?>
<!DOCTYPE svg PUBLIC "-//W3C//DTD SVG 1.1//EN" "http://www.w3.org/Graphics/SVG/1.1/DTD/svg11.dtd">
<svg version="1.1" baseProfile="full"
 xmlns="http://www.w3.org/2000/svg"
 xmlns:xlink="http://www.w3.org/1999/xlink"
 xmlns:ev="http://www.w3.org/2001/xml-events" 
  height="20px" 
  width="22px" 
>
<path fill="rgb( 51, 51, 51 )"
 d="M20.653,20 C20.653,20 1.34699999999998,20 1.34699999999998,20 C0.60399999999998,20 0,19.388 0,18.636 C0,18.636 0,16.363 0,16.363 C0,16.112 0.20100000000002,15.909 0.44900000000001,15.909 C0.44900000000001,15.909 0.89800000000002,15.909 0.89800000000002,15.909 C0.89800000000002,15.909 0.89800000000002,1.363 0.89800000000002,1.363 C0.89800000000002,0.61200000000002 1.50200000000001,0 2.245,0 C2.245,0 19.306,0 19.306,0 C20.049,0 20.653,0.61200000000002 20.653,1.363 C20.653,1.363 20.653,15.909 20.653,15.909 C20.653,15.909 21.551,15.909 21.551,15.909 C21.799,15.909 22,16.112 22,16.363 C22,16.363 22,18.636 22,18.636 C22,19.388 21.396,20 20.653,20 ZM19.755,1.363 C19.755,1.113 19.554,0.90899999999999 19.306,0.90899999999999 C19.306,0.90899999999999 2.245,0.90899999999999 2.245,0.90899999999999 C1.99700000000001,0.90899999999999 1.79599999999999,1.113 1.79599999999999,1.363 C1.79599999999999,1.363 1.79599999999999,15.909 1.79599999999999,15.909 C1.79599999999999,15.909 8.08199999999999,15.909 8.08199999999999,15.909 C8.32999999999998,15.909 8.53100000000001,16.112 8.53100000000001,16.363 C8.53100000000001,16.363 8.53100000000001,17.272 8.53100000000001,17.272 C8.53100000000001,17.272 13.02,17.272 13.02,17.272 C13.02,17.272 13.02,16.363 13.02,16.363 C13.02,16.112 13.221,15.909 13.469,15.909 C13.469,15.909 19.755,15.909 19.755,15.909 C19.755,15.909 19.755,1.363 19.755,1.363 ZM21.102,16.818 C21.102,16.818 13.918,16.818 13.918,16.818 C13.918,16.818 13.918,17.727 13.918,17.727 C13.918,17.978 13.717,18.182 13.469,18.182 C13.469,18.182 8.08199999999999,18.182 8.08199999999999,18.182 C7.834,18.182 7.63299999999998,17.978 7.63299999999998,17.727 C7.63299999999998,17.727 7.63299999999998,16.818 7.63299999999998,16.818 C7.63299999999998,16.818 0.89800000000002,16.818 0.89800000000002,16.818 C0.89800000000002,16.818 0.89800000000002,18.636 0.89800000000002,18.636 C0.89800000000002,18.887 1.09899999999999,19.091 1.34699999999998,19.091 C1.34699999999998,19.091 20.653,19.091 20.653,19.091 C20.901,19.091 21.102,18.887 21.102,18.636 C21.102,18.636 21.102,16.818 21.102,16.818 ZM2.69400000000002,14.545 C2.69400000000002,14.545 2.69400000000002,2.27300000000002 2.69400000000002,2.27300000000002 C2.69400000000002,2.02199999999999 2.89499999999998,1.81799999999998 3.14299999999997,1.81799999999998 C3.14299999999997,1.81799999999998 18.408,1.81799999999998 18.408,1.81799999999998 C18.656,1.81799999999998 18.857,2.02199999999999 18.857,2.27300000000002 C18.857,2.27300000000002 18.857,14.545 18.857,14.545 C18.857,14.796 18.656,15 18.408,15 C18.408,15 3.14299999999997,15 3.14299999999997,15 C2.89499999999998,15 2.69400000000002,14.796 2.69400000000002,14.545 ZM3.59199999999998,14.091 C3.59199999999998,14.091 17.959,14.091 17.959,14.091 C17.959,14.091 17.959,2.72699999999998 17.959,2.72699999999998 C17.959,2.72699999999998 3.59199999999998,2.72699999999998 3.59199999999998,2.72699999999998 C3.59199999999998,2.72699999999998 3.59199999999998,14.091 3.59199999999998,14.091 Z "/>
</svg>
