<?xml version="1.0" encoding="utf-8"?>
<!DOCTYPE svg PUBLIC "-//W3C//DTD SVG 1.1//EN" "http://www.w3.org/Graphics/SVG/1.1/DTD/svg11.dtd">
<svg version="1.1" baseProfile="full"
 xmlns="http://www.w3.org/2000/svg"
 xmlns:xlink="http://www.w3.org/1999/xlink"
 xmlns:ev="http://www.w3.org/2001/xml-events" 
  height="20px" 
  width="20px" 
>
<path fill="rgb( 51, 51, 51 )"
 d="M19.127,7.70400000000001 C19.127,7.70400000000001 10.262,16.666 10.262,16.666 C9.839,17.094 9.27699999999999,17.329 8.67899999999997,17.329 C8.233,17.329 7.80799999999999,17.199 7.44400000000002,16.955 C7.44400000000002,16.955 4.56299999999999,19.867 4.56299999999999,19.867 C4.48000000000002,19.952 4.36599999999999,20 4.24700000000001,20 C4.12799999999999,20 4.01400000000001,19.952 3.93000000000001,19.867 C3.93000000000001,19.867 0.13099999999997,16.026 0.13099999999997,16.026 C0.04700000000003,15.942 0,15.826 0,15.706 C0,15.586 0.04700000000003,15.471 0.13099999999997,15.386 C0.13099999999997,15.386 3.012,12.474 3.012,12.474 C2.77100000000002,12.107 2.64100000000002,11.676 2.64100000000002,11.225 C2.64100000000002,10.621 2.87400000000002,10.053 3.29700000000003,9.625 C3.29700000000003,9.625 12.162,0.66300000000001 12.162,0.66300000000001 C12.585,0.23500000000001 13.147,0 13.745,0 C14.343,0 14.905,0.23500000000001 15.328,0.66300000000001 C15.328,0.66300000000001 19.127,4.50400000000002 19.127,4.50400000000002 C20,5.38600000000002 20,6.822 19.127,7.70400000000001 ZM1.08100000000002,15.706 C1.08100000000002,15.706 4.24700000000001,18.907 4.24700000000001,18.907 C4.24700000000001,18.907 6.77999999999997,16.346 6.77999999999997,16.346 C6.77999999999997,16.346 3.61399999999998,13.146 3.61399999999998,13.146 C3.61399999999998,13.146 1.08100000000002,15.706 1.08100000000002,15.706 ZM18.494,5.14400000000001 C18.494,5.14400000000001 14.695,1.303 14.695,1.303 C14.188,0.79000000000002 13.302,0.79000000000002 12.795,1.303 C12.795,1.303 3.93000000000001,10.265 3.93000000000001,10.265 C3.67700000000002,10.521 3.53699999999998,10.862 3.53699999999998,11.225 C3.53699999999998,11.588 3.67700000000002,11.929 3.93000000000001,12.185 C3.93000000000001,12.185 7.72899999999999,16.026 7.72899999999999,16.026 C8.23599999999999,16.539 9.12099999999998,16.539 9.62900000000002,16.026 C9.62900000000002,16.026 18.494,7.06400000000002 18.494,7.06400000000002 C19.018,6.53500000000003 19.018,5.673 18.494,5.14400000000001 ZM9.31299999999999,13.786 C9.22899999999999,13.871 9.11500000000001,13.918 8.99599999999998,13.918 C8.87700000000001,13.918 8.76299999999998,13.871 8.67899999999997,13.786 C8.67899999999997,13.786 6.14600000000002,11.225 6.14600000000002,11.225 C6.06200000000001,11.14 6.01499999999999,11.025 6.01499999999999,10.905 C6.01499999999999,10.785 6.06200000000001,10.67 6.14600000000002,10.585 C6.14600000000002,10.585 12.795,3.86399999999998 12.795,3.86399999999998 C12.879,3.779 12.993,3.73099999999999 13.112,3.73099999999999 C13.231,3.73099999999999 13.344,3.779 13.428,3.86399999999998 C13.428,3.86399999999998 15.961,6.42399999999998 15.961,6.42399999999998 C16.136,6.601 16.136,6.887 15.961,7.06400000000002 C15.961,7.06400000000002 9.31299999999999,13.786 9.31299999999999,13.786 ZM13.112,4.82400000000001 C13.112,4.82400000000001 7.096,10.905 7.096,10.905 C7.096,10.905 8.99599999999998,12.826 8.99599999999998,12.826 C8.99599999999998,12.826 15.011,6.74400000000003 15.011,6.74400000000003 C15.011,6.74400000000003 13.112,4.82400000000001 13.112,4.82400000000001 ZM4.24700000000001,14.426 C4.42200000000003,14.603 4.42200000000003,14.889 4.24700000000001,15.066 C4.24700000000001,15.066 3.29700000000003,16.026 3.29700000000003,16.026 C3.209,16.115 3.09500000000003,16.159 2.98000000000002,16.159 C2.86599999999999,16.159 2.75099999999998,16.115 2.66399999999999,16.026 C2.48899999999998,15.849 2.48899999999998,15.563 2.66399999999999,15.386 C2.66399999999999,15.386 3.61399999999998,14.426 3.61399999999998,14.426 C3.78899999999999,14.249 4.072,14.249 4.24700000000001,14.426 ZM4.88,15.706 C5.05500000000001,15.53 5.33800000000002,15.53 5.51299999999998,15.706 C5.68799999999999,15.883 5.68799999999999,16.17 5.51299999999998,16.347 C5.51299999999998,16.347 4.56299999999999,17.307 4.56299999999999,17.307 C4.476,17.395 4.36099999999999,17.439 4.24700000000001,17.439 C4.13200000000001,17.439 4.01799999999997,17.395 3.93000000000001,17.307 C3.75599999999997,17.13 3.75599999999997,16.843 3.93000000000001,16.666 C3.93000000000001,16.666 4.88,15.706 4.88,15.706 Z "/>
</svg>
