<?xml version="1.0" encoding="utf-8"?>
<!DOCTYPE svg PUBLIC "-//W3C//DTD SVG 1.1//EN" "http://www.w3.org/Graphics/SVG/1.1/DTD/svg11.dtd">
<svg version="1.1" baseProfile="full"
 xmlns="http://www.w3.org/2000/svg"
 xmlns:xlink="http://www.w3.org/1999/xlink"
 xmlns:ev="http://www.w3.org/2001/xml-events" 
  height="20px" 
  width="17px" 
>
<path fill="rgb( 51, 51, 51 )"
 d="M10.545,20 C10.545,20 6.45499999999998,20 6.45499999999998,20 C2.89600000000002,20 0,17.17 0,13.592 C0,13.592 0,13.165 0,13.165 C0,12.929 0.19,12.7380000000001 0.42500000000001,12.7380000000001 C0.42500000000001,12.7380000000001 3.50099999999998,12.7380000000001 3.50099999999998,12.7380000000001 C3.43900000000002,12.604 3.39999999999998,12.462 3.39999999999998,12.311 C3.39999999999998,11.593 4.14699999999999,11.03 5.10000000000002,11.03 C5.303,11.03 5.49400000000003,11.0599999999999 5.673,11.107 C5.65600000000001,11.03 5.63799999999998,10.954 5.62400000000002,10.875 C5.52499999999998,10.755 5.49900000000002,10.587 5.56299999999999,10.437 C5.53899999999999,10.213 5.52499999999998,9.98400000000004 5.52499999999998,9.74800000000005 C5.52499999999998,9.48099999999999 5.541,9.221 5.57499999999999,8.97199999999998 C4.54599999999999,8.83600000000001 3.45299999999997,8.00900000000001 2.601,6.74800000000005 C2.584,6.75 2.56700000000001,6.75800000000004 2.55000000000001,6.75800000000004 C2.44099999999997,6.75800000000004 2.33199999999999,6.71600000000001 2.24900000000002,6.63300000000004 C2.10300000000001,6.48599999999999 2.09300000000002,6.26199999999994 2.20499999999998,6.096 C2.11500000000001,5.92999999999995 2.02699999999999,5.76099999999997 1.94600000000003,5.58500000000004 C1.791,5.25099999999998 1.66800000000001,4.92200000000003 1.56900000000002,4.59900000000005 C1.46499999999998,4.56500000000005 1.37299999999999,4.49300000000005 1.31999999999999,4.38599999999997 C1.23700000000002,4.221 1.27499999999998,4.02999999999997 1.39499999999998,3.90300000000002 C1.29599999999999,3.36400000000003 1.28300000000002,2.851 1.35899999999998,2.38 C1.38900000000001,2.197 1.435,2.02700000000004 1.49000000000001,1.86300000000006 C1.49000000000001,1.86300000000006 1.03899999999999,1.56100000000004 1.03899999999999,1.56100000000004 C0.84399999999999,1.42999999999995 0.791,1.16499999999996 0.92099999999999,0.96900000000005 C1.05099999999999,0.77200000000005 1.31400000000002,0.71900000000005 1.51100000000002,0.85000000000002 C1.51100000000002,0.85000000000002 1.88200000000001,1.09900000000005 1.88200000000001,1.09900000000005 C2.118,0.78099999999995 2.42000000000002,0.52800000000002 2.78399999999999,0.35799999999995 C3.54899999999998,0 4.42200000000003,0.07299999999998 5.24000000000001,0.56399999999996 C6.05399999999997,1.05200000000002 6.767,1.92100000000005 7.303,3.07799999999997 C7.48700000000002,3.47400000000005 7.63600000000002,3.87800000000004 7.75099999999998,4.28099999999995 C7.75099999999998,4.28099999999995 7.94,4.21699999999998 7.94,4.21699999999998 C8.16500000000002,4.14200000000005 8.404,4.26400000000001 8.47800000000001,4.48699999999997 C8.55200000000002,4.71100000000001 8.43200000000002,4.95299999999997 8.209,5.02800000000002 C8.209,5.02800000000002 7.94,5.11800000000005 7.94,5.11800000000005 C8.00900000000001,5.53899999999999 8.03800000000001,5.95000000000005 8.02100000000002,6.33799999999997 C8.06,6.34100000000001 8.09899999999999,6.346 8.13799999999998,6.35199999999998 C8.42599999999999,5.76300000000003 8.86500000000001,5.17999999999995 9.40100000000001,4.67899999999997 C9.80000000000001,4.30600000000004 10.214,4.01999999999998 10.625,3.81600000000003 C10.625,3.81600000000003 10.625,3.76800000000003 10.625,3.76800000000003 C10.625,3.53200000000004 10.815,3.34100000000001 11.05,3.34100000000001 C11.195,3.34100000000001 11.317,3.41899999999998 11.394,3.53099999999995 C11.464,3.51400000000001 11.535,3.5 11.604,3.48900000000003 C11.522,3.24900000000002 11.475,2.98400000000004 11.475,2.70000000000005 C11.475,2.42499999999995 11.519,2.16499999999996 11.596,1.92999999999995 C11.434,1.76300000000003 11.435,1.49599999999998 11.599,1.33000000000004 C11.711,1.21900000000005 11.866,1.18899999999996 12.008,1.226 C12.265,0.94899999999996 12.594,0.77800000000002 12.962,0.77800000000002 C13.331,0.77800000000002 13.66,0.95000000000005 13.918,1.22699999999998 C14.108,1.17700000000002 14.313,1.25699999999995 14.405,1.44100000000003 C14.488,1.60799999999995 14.449,1.79999999999995 14.327,1.92700000000002 C14.405,2.16200000000003 14.45,2.423 14.45,2.70000000000005 C14.45,3.42600000000004 14.15,4.03899999999999 13.702,4.36599999999999 C13.775,4.48299999999995 13.836,4.60500000000002 13.881,4.73500000000001 C13.968,4.81299999999999 14.025,4.92399999999998 14.025,5.04999999999995 C14.025,5.11099999999999 14.011,5.16899999999998 13.988,5.22199999999998 C14.01,5.46600000000001 13.994,5.72400000000005 13.933,5.99000000000001 C13.818,6.49699999999996 13.551,7.00900000000001 13.156,7.50199999999995 C13.182,7.60000000000002 13.179,7.70600000000002 13.13,7.803 C13.055,7.95299999999997 12.906,8.03999999999996 12.749,8.03999999999996 C12.724,8.03999999999996 12.699,8.03499999999997 12.674,8.03099999999995 C12.644,8.06100000000004 12.615,8.09100000000001 12.584,8.12 C11.842,8.81399999999996 10.991,9.28999999999996 10.194,9.46699999999998 C10.198,9.55999999999995 10.2,9.654 10.2,9.74800000000005 C10.2,10.364 10.113,10.9400000000001 9.96300000000002,11.452 C10.267,10.947 10.914,10.603 11.687,10.603 C12.611,10.603 13.359,11.091 13.55,11.7619999999999 C13.779,11.573 14.095,11.457 14.45,11.457 C15.165,11.457 15.725,11.926 15.725,12.525 C15.725,12.598 15.716,12.669 15.7,12.7380000000001 C15.7,12.7380000000001 16.575,12.7380000000001 16.575,12.7380000000001 C16.81,12.7380000000001 17,12.929 17,13.165 C17,13.165 17,13.592 17,13.592 C17,17.17 14.104,20 10.545,20 ZM5.10000000000002,11.884 C4.58100000000002,11.884 4.25,12.1369999999999 4.25,12.311 C4.25,12.485 4.58100000000002,12.7380000000001 5.10000000000002,12.7380000000001 C5.61900000000003,12.7380000000001 5.94999999999999,12.485 5.94999999999999,12.311 C5.94999999999999,12.1369999999999 5.61900000000003,11.884 5.10000000000002,11.884 ZM13.6,2.70000000000005 C13.6,2.572 13.583,2.45500000000004 13.558,2.34400000000005 C13.558,2.34400000000005 13.365,2.44200000000001 13.365,2.44200000000001 C13.304,2.47199999999998 13.239,2.48699999999997 13.175,2.48699999999997 C13.019,2.48699999999997 12.869,2.39999999999998 12.795,2.25099999999998 C12.69,2.03999999999996 12.775,1.78300000000002 12.985,1.678 C12.985,1.678 13.045,1.64700000000005 13.045,1.64700000000005 C13.018,1.63999999999999 12.99,1.63199999999995 12.962,1.63199999999995 C12.856,1.63199999999995 12.745,1.69000000000005 12.646,1.78899999999999 C12.786,1.95600000000002 12.782,2.20399999999995 12.625,2.36099999999999 C12.546,2.44100000000003 12.443,2.48000000000002 12.339,2.48400000000004 C12.33,2.553 12.325,2.625 12.325,2.70000000000005 C12.325,3.05100000000004 12.43,3.33799999999997 12.575,3.52700000000004 C12.755,3.57500000000005 12.926,3.64599999999996 13.084,3.74400000000003 C13.348,3.64599999999996 13.6,3.245 13.6,2.70000000000005 ZM11.844,7.63499999999999 C11.844,7.63499999999999 11.71,7.56700000000001 11.71,7.56700000000001 C11.5,7.46199999999999 11.415,7.20500000000004 11.52,6.99400000000003 C11.625,6.78300000000002 11.88,6.69799999999998 12.09,6.803 C12.09,6.803 12.47,6.99400000000003 12.47,6.99400000000003 C12.795,6.59500000000003 13.016,6.18899999999996 13.105,5.79999999999995 C13.127,5.70299999999997 13.142,5.59199999999998 13.146,5.47699999999998 C13.146,5.47699999999998 12.325,5.47699999999998 12.325,5.47699999999998 C12.09,5.47699999999998 11.9,5.28499999999997 11.9,5.04999999999995 C11.9,4.81399999999996 12.09,4.62199999999996 12.325,4.62199999999996 C12.325,4.62199999999996 12.821,4.62199999999996 12.821,4.62199999999996 C12.812,4.61400000000003 12.803,4.60900000000004 12.794,4.601 C12.563,4.56799999999998 12.348,4.47500000000002 12.163,4.32500000000005 C11.951,4.30100000000004 11.721,4.32399999999996 11.475,4.39499999999998 C11.475,4.39499999999998 11.475,5.04999999999995 11.475,5.04999999999995 C11.475,5.28499999999997 11.285,5.47699999999998 11.05,5.47699999999998 C10.815,5.47699999999998 10.625,5.28499999999997 10.625,5.04999999999995 C10.625,5.04999999999995 10.625,4.80200000000002 10.625,4.80200000000002 C10.41,4.94299999999998 10.194,5.10500000000002 9.98000000000002,5.30399999999997 C9.43000000000001,5.81799999999998 9.00299999999999,6.423 8.77800000000002,7.00900000000001 C8.69400000000002,7.22799999999995 8.44999999999999,7.33799999999997 8.23200000000003,7.255 C8.04199999999997,7.18299999999999 7.87299999999999,7.16200000000003 7.63999999999999,7.21199999999999 C7.50299999999999,7.24199999999996 7.36000000000001,7.202 7.25799999999998,7.10500000000002 C7.15600000000001,7.00800000000004 7.10899999999998,6.86599999999999 7.13099999999997,6.72699999999998 C7.19499999999999,6.32100000000003 7.18799999999999,5.86699999999996 7.12099999999998,5.39200000000005 C7.12099999999998,5.39200000000005 6.93400000000003,5.45500000000004 6.93400000000003,5.45500000000004 C6.88900000000001,5.47000000000003 6.84399999999999,5.47699999999998 6.80000000000001,5.47699999999998 C6.62200000000001,5.47699999999998 6.45600000000002,5.36400000000003 6.39699999999999,5.18499999999995 C6.32299999999998,4.96100000000001 6.44299999999998,4.71900000000005 6.66500000000002,4.64400000000001 C6.66500000000002,4.64400000000001 6.94299999999998,4.55200000000002 6.94299999999998,4.55200000000002 C6.83800000000002,4.18100000000004 6.70400000000001,3.80700000000002 6.53300000000002,3.43799999999999 C6.06900000000002,2.43799999999999 5.471,1.697 4.80399999999997,1.29700000000003 C4.22699999999998,0.95100000000002 3.65300000000002,0.89400000000001 3.142,1.13199999999995 C2.923,1.23500000000001 2.745,1.38999999999999 2.596,1.577 C2.596,1.577 2.786,1.70399999999995 2.786,1.70399999999995 C2.98099999999999,1.83500000000004 3.03399999999999,2.10000000000002 2.90300000000002,2.29700000000003 C2.822,2.41999999999996 2.68700000000001,2.48699999999997 2.54899999999998,2.48699999999997 C2.46800000000002,2.48699999999997 2.387,2.46400000000006 2.31400000000002,2.41499999999996 C2.31400000000002,2.41499999999996 2.238,2.36400000000003 2.238,2.36400000000003 C2.226,2.41600000000005 2.20699999999999,2.46199999999999 2.19799999999998,2.51700000000005 C2.14999999999998,2.81299999999999 2.14800000000002,3.13300000000004 2.18799999999999,3.47199999999998 C2.18799999999999,3.47199999999998 2.36000000000001,3.38599999999997 2.36000000000001,3.38599999999997 C2.56900000000002,3.27999999999997 2.82499999999999,3.36599999999999 2.93000000000001,3.577 C3.03500000000003,3.78800000000001 2.94999999999999,4.04499999999996 2.74000000000001,4.14999999999998 C2.74000000000001,4.14999999999998 2.37599999999998,4.33299999999997 2.37599999999998,4.33299999999997 C2.464,4.62199999999996 2.57499999999999,4.91999999999996 2.71600000000001,5.22400000000005 C2.75099999999998,5.30100000000004 2.78899999999999,5.375 2.827,5.44899999999996 C2.827,5.44899999999996 3.09899999999999,5.17499999999995 3.09899999999999,5.17499999999995 C3.26499999999999,5.00800000000004 3.53399999999999,5.00800000000004 3.69999999999999,5.17499999999995 C3.86599999999999,5.34199999999998 3.86599999999999,5.61199999999997 3.69999999999999,5.779 C3.69999999999999,5.779 3.26900000000001,6.21199999999999 3.26900000000001,6.21199999999999 C3.45999999999998,6.49800000000005 3.66399999999999,6.75999999999999 3.87599999999998,6.99199999999996 C3.947,6.85500000000002 4.08600000000001,6.75800000000004 4.25,6.75800000000004 C4.25,6.75800000000004 4.67500000000001,6.75800000000004 4.67500000000001,6.75800000000004 C4.91000000000003,6.75800000000004 5.10000000000002,6.94899999999996 5.10000000000002,7.18499999999995 C5.10000000000002,7.42100000000005 4.91000000000003,7.61300000000006 4.67500000000001,7.61300000000006 C4.67500000000001,7.61300000000006 4.55599999999998,7.61300000000006 4.55599999999998,7.61300000000006 C5.065,7.99099999999999 5.58199999999999,8.18499999999995 6.03100000000001,8.12800000000004 C6.04899999999998,8.12599999999998 6.06700000000001,8.12400000000002 6.08499999999998,8.12400000000002 C6.20600000000002,8.12400000000002 6.32100000000003,8.17600000000004 6.40199999999999,8.26700000000005 C6.49599999999998,8.37199999999996 6.53100000000001,8.51700000000005 6.49799999999999,8.65300000000002 C6.416,8.98699999999997 6.375,9.35599999999999 6.375,9.74800000000005 C6.375,9.95899999999995 6.387,10.1609999999999 6.40800000000002,10.355 C6.40800000000002,10.355 6.99000000000001,10.648 6.99000000000001,10.648 C7.19999999999999,10.753 7.28500000000003,11.01 7.18000000000001,11.221 C7.10500000000002,11.37 6.95499999999998,11.457 6.79899999999998,11.457 C6.74799999999999,11.457 6.69600000000003,11.4450000000001 6.64499999999998,11.425 C6.93599999999998,12.24 7.41500000000002,12.7380000000001 7.86200000000002,12.7380000000001 C8.30900000000003,12.7380000000001 8.78800000000001,12.241 9.07799999999997,11.427 C9.029,11.446 8.97699999999998,11.457 8.92500000000001,11.457 C8.81599999999997,11.457 8.70699999999999,11.415 8.62400000000002,11.332 C8.45800000000003,11.165 8.45800000000003,10.895 8.62400000000002,10.728 C8.62400000000002,10.728 9.04899999999998,10.3 9.04899999999998,10.3 C9.12799999999999,10.222 9.22899999999999,10.183 9.33199999999999,10.179 C9.34199999999998,10.039 9.35000000000002,9.89599999999996 9.35000000000002,9.74800000000005 C9.35000000000002,9.54700000000003 9.339,9.34799999999996 9.31700000000001,9.15599999999995 C9.303,9.04200000000003 9.33699999999999,8.92700000000002 9.40899999999999,8.83699999999999 C9.48200000000003,8.74800000000005 9.58699999999999,8.69200000000001 9.70100000000002,8.68200000000002 C10.365,8.62199999999996 11.153,8.23299999999995 11.844,7.63499999999999 ZM9.79500000000002,11.936 C9.67000000000002,12.2380000000001 9.51900000000001,12.508 9.34699999999998,12.7380000000001 C9.34699999999998,12.7380000000001 9.95999999999998,12.7380000000001 9.95999999999998,12.7380000000001 C9.84399999999999,12.544 9.77499999999998,12.329 9.77499999999998,12.097 C9.77499999999998,12.042 9.78800000000001,11.99 9.79500000000002,11.936 ZM11.687,11.457 C11.061,11.457 10.625,11.795 10.625,12.097 C10.625,12.4 11.061,12.7380000000001 11.687,12.7380000000001 C12.314,12.7380000000001 12.75,12.4 12.75,12.097 C12.75,11.795 12.314,11.457 11.687,11.457 ZM14.45,12.311 C14.186,12.311 14.025,12.449 14.025,12.525 C14.025,12.6 14.186,12.7380000000001 14.45,12.7380000000001 C14.713,12.7380000000001 14.875,12.6 14.875,12.525 C14.875,12.449 14.713,12.311 14.45,12.311 ZM0.85000000000002,13.592 C0.85000000000002,16.699 3.36399999999998,19.145 6.45499999999998,19.145 C6.45499999999998,19.145 10.545,19.145 10.545,19.145 C13.636,19.145 16.15,16.699 16.15,13.592 C16.15,13.592 0.85000000000002,13.592 0.85000000000002,13.592 ZM9.58499999999998,6.803 C9.58499999999998,6.803 10.435,6.37599999999998 10.435,6.37599999999998 C10.645,6.27099999999996 10.9,6.35599999999999 11.005,6.56700000000001 C11.11,6.77800000000002 11.025,7.03499999999997 10.815,7.13999999999999 C10.815,7.13999999999999 9.96499999999998,7.56700000000001 9.96499999999998,7.56700000000001 C9.904,7.59799999999996 9.839,7.61300000000006 9.77499999999998,7.61300000000006 C9.61900000000003,7.61300000000006 9.46899999999999,7.52599999999995 9.39499999999998,7.37599999999998 C9.29000000000002,7.16499999999996 9.375,6.90899999999999 9.58499999999998,6.803 ZM7.64999999999998,10.175 C7.49400000000003,10.175 7.34399999999999,10.0890000000001 7.26999999999998,9.93899999999996 C7.26999999999998,9.93899999999996 6.84500000000003,9.08500000000004 6.84500000000003,9.08500000000004 C6.74000000000001,8.87400000000002 6.82499999999999,8.61699999999996 7.03500000000003,8.51199999999994 C7.245,8.40599999999995 7.5,8.49199999999996 7.60500000000002,8.70299999999997 C7.60500000000002,8.70299999999997 8.02999999999997,9.55700000000002 8.02999999999997,9.55700000000002 C8.13499999999999,9.76800000000003 8.05000000000001,10.025 7.83999999999998,10.13 C7.779,10.1609999999999 7.714,10.175 7.64999999999998,10.175 ZM5.52499999999998,7.18499999999995 C5.416,7.18499999999995 5.30700000000002,7.14400000000001 5.22399999999999,7.05999999999995 C5.22399999999999,7.05999999999995 4.79899999999998,6.63300000000004 4.79899999999998,6.63300000000004 C4.63299999999998,6.46600000000001 4.63299999999998,6.19600000000003 4.79899999999998,6.029 C4.96499999999998,5.86199999999997 5.23399999999998,5.86199999999997 5.39999999999998,6.029 C5.39999999999998,6.029 5.82499999999999,6.45600000000002 5.82499999999999,6.45600000000002 C5.99099999999999,6.62300000000005 5.99099999999999,6.89300000000003 5.82499999999999,7.05999999999995 C5.74200000000002,7.14400000000001 5.63400000000001,7.18499999999995 5.52499999999998,7.18499999999995 ZM5.39999999999998,4.49699999999996 C5.31700000000001,4.58100000000002 5.209,4.62199999999996 5.10000000000002,4.62199999999996 C4.99099999999999,4.62199999999996 4.88200000000001,4.58100000000002 4.79899999999998,4.49699999999996 C4.63299999999998,4.33100000000002 4.63299999999998,4.05999999999995 4.79899999999998,3.89300000000003 C4.79899999999998,3.89300000000003 5.22399999999999,3.46600000000001 5.22399999999999,3.46600000000001 C5.38999999999999,3.29899999999998 5.65899999999999,3.29899999999998 5.82499999999999,3.46600000000001 C5.99099999999999,3.63300000000004 5.99099999999999,3.90300000000002 5.82499999999999,4.07000000000005 C5.82499999999999,4.07000000000005 5.39999999999998,4.49699999999996 5.39999999999998,4.49699999999996 ZM3.82499999999999,2.91399999999999 C3.58999999999998,2.91399999999999 3.39999999999998,2.72299999999996 3.39999999999998,2.48699999999997 C3.39999999999998,2.48699999999997 3.39999999999998,1.63199999999995 3.39999999999998,1.63199999999995 C3.39999999999998,1.39599999999996 3.58999999999998,1.20500000000004 3.82499999999999,1.20500000000004 C4.06,1.20500000000004 4.25,1.39599999999996 4.25,1.63199999999995 C4.25,1.63199999999995 4.25,2.48699999999997 4.25,2.48699999999997 C4.25,2.72299999999996 4.06,2.91399999999999 3.82499999999999,2.91399999999999 Z "/>
</svg>
