<?xml version="1.0" encoding="utf-8"?>
<!DOCTYPE svg PUBLIC "-//W3C//DTD SVG 1.1//EN" "http://www.w3.org/Graphics/SVG/1.1/DTD/svg11.dtd">
<svg version="1.1" baseProfile="full"
 xmlns="http://www.w3.org/2000/svg"
 xmlns:xlink="http://www.w3.org/1999/xlink"
 xmlns:ev="http://www.w3.org/2001/xml-events" 
  height="20px" 
  width="11px" 
>
<path fill="rgb( 51, 51, 51 )"
 d="M9.67700000000002,14.621 C9.67700000000002,14.621 8.68900000000002,18.682 8.68900000000002,18.682 C8.50099999999998,19.458 7.82600000000002,20 7.04700000000003,20 C7.04700000000003,20 3.952,20 3.952,20 C3.17399999999998,20 2.49900000000002,19.458 2.31099999999998,18.682 C2.31099999999998,18.682 1.32299999999998,14.621 1.32299999999998,14.621 C0.548,14.298 0,13.519 0,12.608 C0,12.608 0,6.95600000000002 0,6.95600000000002 C0,6.04500000000002 0.55000000000001,5.26499999999999 1.32600000000002,4.94299999999998 C1.32600000000002,4.94299999999998 2.298,1.28100000000001 2.298,1.28100000000001 C2.49799999999999,0.52699999999999 3.17000000000002,0 3.93099999999998,0 C3.93099999999998,0 7.06900000000002,0 7.06900000000002,0 C7.82999999999998,0 8.50200000000001,0.52699999999999 8.702,1.28100000000001 C8.702,1.28100000000001 9.673,4.94299999999998 9.673,4.94299999999998 C10.45,5.26499999999999 11,6.04500000000002 11,6.95600000000002 C11,6.95600000000002 11,12.608 11,12.608 C11,13.519 10.451,14.298 9.67700000000002,14.621 ZM3.13200000000001,18.471 C3.226,18.859 3.56299999999999,19.13 3.952,19.13 C3.952,19.13 7.04700000000003,19.13 7.04700000000003,19.13 C7.43599999999998,19.13 7.774,18.859 7.868,18.471 C7.868,18.471 8.76600000000002,14.783 8.76600000000002,14.783 C8.76600000000002,14.783 2.23399999999998,14.783 2.23399999999998,14.783 C2.23399999999998,14.783 3.13200000000001,18.471 3.13200000000001,18.471 ZM7.88499999999999,1.50999999999999 C7.78500000000003,1.13299999999998 7.44900000000001,0.86900000000003 7.06900000000002,0.86900000000003 C7.06900000000002,0.86900000000003 3.93099999999998,0.86900000000003 3.93099999999998,0.86900000000003 C3.55000000000001,0.86900000000003 3.214,1.13299999999998 3.11399999999998,1.50999999999999 C3.11399999999998,1.50999999999999 2.24599999999998,4.78300000000002 2.24599999999998,4.78300000000002 C2.24599999999998,4.78300000000002 8.75400000000002,4.78300000000002 8.75400000000002,4.78300000000002 C8.75400000000002,4.78300000000002 7.88499999999999,1.50999999999999 7.88499999999999,1.50999999999999 ZM10.154,6.95600000000002 C10.154,6.23700000000002 9.584,5.65199999999999 8.88400000000001,5.65199999999999 C8.88400000000001,5.65199999999999 2.11500000000001,5.65199999999999 2.11500000000001,5.65199999999999 C1.41500000000002,5.65199999999999 0.846,6.23700000000002 0.846,6.95600000000002 C0.846,6.95600000000002 0.846,12.608 0.846,12.608 C0.846,13.328 1.41500000000002,13.913 2.11500000000001,13.913 C2.11500000000001,13.913 8.88400000000001,13.913 8.88400000000001,13.913 C9.584,13.913 10.154,13.328 10.154,12.608 C10.154,12.608 10.154,6.95600000000002 10.154,6.95600000000002 ZM7.49099999999999,9.00299999999999 C7.49099999999999,9.00299999999999 5.79899999999998,10.742 5.79899999999998,10.742 C5.71600000000001,10.827 5.608,10.869 5.5,10.869 C5.392,10.869 5.28300000000002,10.827 5.20100000000002,10.742 C5.20100000000002,10.742 2.66199999999998,8.13299999999998 2.66199999999998,8.13299999999998 C2.49700000000001,7.96300000000002 2.49700000000001,7.68799999999999 2.66199999999998,7.51799999999997 C2.82799999999997,7.34899999999999 3.09500000000003,7.34899999999999 3.26100000000002,7.51799999999997 C3.26100000000002,7.51799999999997 5.5,9.81999999999999 5.5,9.81999999999999 C5.5,9.81999999999999 6.89299999999997,8.38799999999998 6.89299999999997,8.38799999999998 C7.05799999999999,8.21800000000002 7.32600000000002,8.21800000000002 7.49099999999999,8.38799999999998 C7.65699999999998,8.55799999999999 7.65699999999998,8.83300000000003 7.49099999999999,9.00299999999999 Z "/>
</svg>
