<?xml version="1.0" encoding="utf-8"?>
<!DOCTYPE svg PUBLIC "-//W3C//DTD SVG 1.1//EN" "http://www.w3.org/Graphics/SVG/1.1/DTD/svg11.dtd">
<svg version="1.1" baseProfile="full"
 xmlns="http://www.w3.org/2000/svg"
 xmlns:xlink="http://www.w3.org/1999/xlink"
 xmlns:ev="http://www.w3.org/2001/xml-events" 
  height="20px" 
  width="20px" 
>
<path fill="rgb( 51, 51, 51 )"
 d="M19.977,16.896 C20,17.112 19.855,17.31 19.637,17.363 C19.598,17.373 18.655,17.594 16.75,17.373 C16.537,17.349 16.371,17.184 16.352,16.978 C16.352,16.978 15.951,12.542 15.951,12.542 C15.824,15.745 15.949,18.011 16.322,18.969 C16.37,19.092 16.357,19.229 16.288,19.342 C16.219,19.456 16.1,19.533 15.965,19.553 C15.833,19.572 12.884,20 10.448,20 C10.296,20 10.147,19.998 10,19.994 C9.85300000000001,19.998 9.70400000000001,20 9.55200000000002,20 C7.11599999999999,20 4.16699999999997,19.572 4.03500000000003,19.553 C3.899,19.533 3.78100000000001,19.456 3.71199999999999,19.342 C3.64299999999997,19.229 3.63,19.092 3.678,18.969 C4.05099999999999,18.011 4.17599999999999,15.745 4.048,12.542 C4.048,12.542 3.64699999999999,16.978 3.64699999999999,16.978 C3.62900000000002,17.184 3.46300000000002,17.349 3.25,17.373 C1.34500000000003,17.594 0.40199999999999,17.373 0.363,17.363 C0.14499999999998,17.31 0,17.112 0.02199999999999,16.896 C0.12,15.97 0.089,11.573 0.02699999999999,7.767 C0.02199999999999,7.43200000000002 0.08300000000003,7.10399999999999 0.20800000000003,6.791 C0.20800000000003,6.791 1.577,3.36900000000003 1.577,3.36900000000003 C2.09399999999999,2.07600000000002 3.23200000000003,1.09300000000002 4.62400000000002,0.73899999999998 C4.62400000000002,0.73899999999998 7.38900000000001,0.03500000000003 7.38900000000001,0.03500000000003 C7.52499999999998,0 7.67000000000002,0.02800000000002 7.78199999999998,0.11099999999999 C7.89299999999997,0.19299999999998 7.959,0.32100000000003 7.959,0.45600000000002 C7.959,1.50200000000001 8.83600000000001,2.291 10,2.291 C11.164,2.291 12.041,1.50200000000001 12.041,0.45600000000002 C12.041,0.32100000000003 12.107,0.19299999999998 12.218,0.11099999999999 C12.33,0.02800000000002 12.477,0 12.611,0.03500000000003 C12.611,0.03500000000003 15.376,0.73899999999998 15.376,0.73899999999998 C16.767,1.09300000000002 17.906,2.07600000000002 18.423,3.36900000000003 C18.423,3.36900000000003 19.792,6.791 19.792,6.791 C19.917,7.10399999999999 19.978,7.43200000000002 19.972,7.767 C19.91,11.573 19.879,15.97 19.977,16.896 ZM18.945,7.10399999999999 C18.945,7.10399999999999 17.576,3.68200000000002 17.576,3.68200000000002 C17.164,2.64999999999998 16.255,1.86500000000001 15.144,1.58300000000003 C15.144,1.58300000000003 12.892,1.00900000000001 12.892,1.00900000000001 C12.63,2.26900000000001 11.473,3.16399999999999 10,3.16399999999999 C8.52699999999999,3.16399999999999 7.37,2.26900000000001 7.108,1.00900000000001 C7.108,1.00900000000001 4.85599999999999,1.58300000000003 4.85599999999999,1.58300000000003 C3.745,1.86500000000001 2.83600000000001,2.64999999999998 2.42399999999998,3.68200000000002 C2.42399999999998,3.68200000000002 1.05500000000001,7.10399999999999 1.05500000000001,7.10399999999999 C0.971,7.31299999999999 0.93099999999998,7.53100000000001 0.935,7.75299999999999 C0.96199999999999,9.452 1.03899999999999,14.744 0.95400000000001,16.568 C1.30500000000001,16.6 1.911,16.624 2.77600000000001,16.545 C2.77600000000001,16.545 3.50599999999997,8.46899999999999 3.50599999999997,8.46899999999999 C3.53300000000002,8.16800000000001 3.79000000000002,7.94200000000001 4.10399999999999,7.94200000000001 C4.10500000000002,7.94200000000001 4.10599999999999,7.94200000000001 4.10599999999999,7.94200000000001 C4.42099999999999,7.94299999999998 4.67599999999999,8.17099999999999 4.70100000000002,8.47199999999998 C4.94400000000002,11.418 5.243,16.458 4.685,18.76 C5.72399999999999,18.893 8.12799999999999,19.166 9.988,19.122 C9.988,19.122 10,19.558 10,19.558 C10,19.558 10.011,19.122 10.011,19.122 C11.872,19.166 14.277,18.893 15.314,18.76 C14.757,16.458 15.056,11.418 15.299,8.47199999999998 C15.324,8.17099999999999 15.579,7.94299999999998 15.893,7.94200000000001 C15.894,7.94200000000001 15.895,7.94200000000001 15.896,7.94200000000001 C16.21,7.94200000000001 16.467,8.16800000000001 16.494,8.46899999999999 C16.494,8.46899999999999 17.224,16.545 17.224,16.545 C18.088,16.624 18.694,16.6 19.046,16.568 C18.961,14.743 19.038,9.452 19.065,7.75299999999999 C19.069,7.53100000000001 19.028,7.31299999999999 18.945,7.10399999999999 Z "/>
</svg>
