<?xml version="1.0" encoding="utf-8"?>
<!DOCTYPE svg PUBLIC "-//W3C//DTD SVG 1.1//EN" "http://www.w3.org/Graphics/SVG/1.1/DTD/svg11.dtd">
<svg version="1.1" baseProfile="full"
 xmlns="http://www.w3.org/2000/svg"
 xmlns:xlink="http://www.w3.org/1999/xlink"
 xmlns:ev="http://www.w3.org/2001/xml-events" 
  height="20px" 
  width="13px" 
>
<path fill="rgb( 51, 51, 51 )"
 d="M10.969,20 C10.969,20 2.03100000000001,20 2.03100000000001,20 C0.911,20 0,19.065 0,17.916 C0,17.916 0,2.08300000000003 0,2.08300000000003 C0,0.93400000000003 0.911,0 2.03100000000001,0 C2.03100000000001,0 10.969,0 10.969,0 C12.089,0 13,0.93400000000003 13,2.08300000000003 C13,2.08300000000003 13,17.916 13,17.916 C13,19.065 12.089,20 10.969,20 ZM12.187,2.08300000000003 C12.187,1.39400000000001 11.641,0.83300000000003 10.969,0.83300000000003 C10.969,0.83300000000003 2.03100000000001,0.83300000000003 2.03100000000001,0.83300000000003 C1.35899999999998,0.83300000000003 0.81200000000001,1.39400000000001 0.81200000000001,2.08300000000003 C0.81200000000001,2.08300000000003 0.81200000000001,2.916 0.81200000000001,2.916 C0.81200000000001,2.916 12.187,2.916 12.187,2.916 C12.187,2.916 12.187,2.08300000000003 12.187,2.08300000000003 ZM12.187,3.75 C12.187,3.75 0.81200000000001,3.75 0.81200000000001,3.75 C0.81200000000001,3.75 0.81200000000001,15 0.81200000000001,15 C0.81200000000001,15 12.187,15 12.187,15 C12.187,15 12.187,3.75 12.187,3.75 ZM12.187,15.833 C12.187,15.833 0.81200000000001,15.833 0.81200000000001,15.833 C0.81200000000001,15.833 0.81200000000001,17.916 0.81200000000001,17.916 C0.81200000000001,18.606 1.35899999999998,19.167 2.03100000000001,19.167 C2.03100000000001,19.167 10.969,19.167 10.969,19.167 C11.641,19.167 12.187,18.606 12.187,17.916 C12.187,17.916 12.187,15.833 12.187,15.833 ZM6.5,18.333 C6.05200000000002,18.333 5.68700000000001,17.959 5.68700000000001,17.5 C5.68700000000001,17.04 6.05200000000002,16.667 6.5,16.667 C6.94799999999998,16.667 7.31200000000001,17.04 7.31200000000001,17.5 C7.31200000000001,17.959 6.94799999999998,18.333 6.5,18.333 Z "/>
</svg>
