<?xml version="1.0" encoding="utf-8"?>
<!-- Generator: Adobe Illustrator 19.1.0, SVG Export Plug-In . SVG Version: 6.00 Build 0)  -->
<svg version="1.1" id="Layer_1" xmlns="http://www.w3.org/2000/svg" xmlns:xlink="http://www.w3.org/1999/xlink" x="0px" y="0px"
	 width="75px" height="75px" viewBox="-268 359 75 75" style="enable-background:new -268 359 75 75;" xml:space="preserve">
<style type="text/css">
	.st0{fill:none;stroke:#00ABA9;stroke-width:3;stroke-miterlimit:10;}
	.st1{fill:#00ABA9;}
</style>
<g>
	<circle class="st0" cx="-230.5" cy="396.5" r="36"/>
</g>
<g>
	<path class="st1" d="M-212.1,409.1v-20c0-0.6-0.5-1.1-1.1-1.1h-6.1v-4.6c0-0.6-0.5-1.1-1.1-1.1h-4.6v-1.5c0-3.1-2.5-5.6-5.6-5.6
		s-5.6,2.5-5.6,5.6v1.5h-4.6c-0.6,0-1.1,0.5-1.1,1.1v4.6h-6.1c-0.6,0-1.1,0.5-1.1,1.1v20c-1.7,0-3,1.4-3,3.1v0.5
		c0,1.7,1.4,3.1,3.1,3.1h36.7c1.7,0,3.1-1.4,3.1-3.1v-0.5C-209.1,410.5-210.4,409.1-212.1,409.1z M-240.7,405.1h20.4
		c0.6,0,1.1-0.5,1.1-1.1v-10.2h1.6v15h-25.8v-15h1.6V404C-241.8,404.6-241.3,405.1-240.7,405.1z M-214.2,390.2v18.7h-1.2v-16.1
		c0-0.6-0.5-1.1-1.1-1.1h-2.7v-1.5C-219.2,390.2-214.2,390.2-214.2,390.2z M-234,380.9c0-1.9,1.5-3.5,3.5-3.5c1.9,0,3.5,1.5,3.5,3.5
		v1.5h-6.9V380.9z M-239.6,384.5h3.5v1.8c0,0.6,0.5,1.1,1.1,1.1c0.6,0,1.1-0.5,1.1-1.1v-1.8h6.9v1.8c0,0.6,0.5,1.1,1.1,1.1
		c0.6,0,1.1-0.5,1.1-1.1v-1.8h3.5v18.4h-18.3V384.5z M-246.8,390.2h5v1.5h-2.7c-0.6,0-1.1,0.5-1.1,1.1v16.1h-1.2L-246.8,390.2
		L-246.8,390.2z M-211.2,412.7c0,0.5-0.4,0.9-0.9,0.9h-36.7c-0.5,0-0.9-0.4-0.9-0.9v-0.5c0-0.5,0.4-0.9,0.9-0.9h36.7
		c0.5,0,0.9,0.4,0.9,0.9V412.7z"/>
	<polygon class="st1" points="-227.4,395 -234.3,392.2 -231.5,399.2 -230.9,397.1 -228.1,399.9 -226.7,398.5 -229.5,395.7 	"/>
</g>
</svg>
