<?xml version="1.0" encoding="utf-8"?>
<!-- Generator: Adobe Illustrator 19.1.0, SVG Export Plug-In . SVG Version: 6.00 Build 0)  -->
<svg version="1.1" id="Layer_1" xmlns="http://www.w3.org/2000/svg" xmlns:xlink="http://www.w3.org/1999/xlink" x="0px" y="0px"
	 width="75px" height="75px" viewBox="-268 359 75 75" style="enable-background:new -268 359 75 75;" xml:space="preserve">
<style type="text/css">
	.st0{fill:none;stroke:#00ABA9;stroke-width:3;stroke-miterlimit:10;}
	.st1{fill:#0CABA9;}
</style>
<g>
	<circle class="st0" cx="-230.5" cy="396.5" r="36"/>
</g>
<g>
	<path class="st1" d="M-209.5,395.5h-1v-5c0-0.6-0.4-1-1-1h-1v-5c0-0.6-0.4-1-1-1h-1v-5c0-0.6-0.4-1-1-1h-28c-0.6,0-1,0.4-1,1v5
		c0,0.6,0.4,1,1,1s1-0.4,1-1v-4h26v4h-16c-0.6,0-1,0.4-1,1c0,0.6,0.4,1,1,1h18v4h-9c-0.6,0-1,0.4-1,1s0.4,1,1,1h9h1h1v4h-8
		c-0.6,0-1,0.4-1,1s0.4,1,1,1h10v4h-9c-0.6,0-1,0.4-1,1s0.4,1,1,1h3v4h-5c-0.6,0-1,0.4-1,1s0.4,1,1,1h9v4h-14c-0.6,0-1,0.4-1,1
		s0.4,1,1,1h15c0.6,0,1-0.4,1-1v-6c0-0.6-0.4-1-1-1h-3v-4h5c0.6,0,1-0.4,1-1v-6C-208.5,395.9-208.9,395.5-209.5,395.5z"/>
	<path class="st1" d="M-222.5,400.5c0-8.3-6.7-15-15-15s-15,6.7-15,15s6.7,15,15,15S-222.5,408.8-222.5,400.5z M-237.5,413.5
		c-7.2,0-13-5.8-13-13s5.8-13,13-13c7.2,0,13,5.8,13,13S-230.3,413.5-237.5,413.5z"/>
	<path class="st1" d="M-237.5,389.5c-6.1,0-11,4.9-11,11s4.9,11,11,11c6.1,0,11-4.9,11-11S-231.4,389.5-237.5,389.5z M-237.5,409.5
		c-5,0-9-4-9-9s4-9,9-9s9,4,9,9S-232.5,409.5-237.5,409.5z"/>
	<path class="st1" d="M-235.5,402.5h-1v-5c0-0.6-0.4-1-1-1h-2c-0.6,0-1,0.4-1,1s0.4,1,1,1h1v4h-1c-0.6,0-1,0.4-1,1s0.4,1,1,1h4
		c0.6,0,1-0.4,1-1S-234.9,402.5-235.5,402.5z"/>
</g>
</svg>
