<?xml version="1.0" encoding="utf-8"?>
<!-- Generator: Adobe Illustrator 19.1.0, SVG Export Plug-In . SVG Version: 6.00 Build 0)  -->
<svg version="1.1" id="Layer_1" xmlns="http://www.w3.org/2000/svg" xmlns:xlink="http://www.w3.org/1999/xlink" x="0px" y="0px"
	 width="75px" height="75px" viewBox="-268 359 75 75" style="enable-background:new -268 359 75 75;" xml:space="preserve">
<style type="text/css">
	.st0{fill:none;stroke:#00ABA9;stroke-width:3;stroke-miterlimit:10;}
	.st1{fill:#00ABA9;}
</style>
<g>
	<circle class="st0" cx="-230.5" cy="396.5" r="36"/>
</g>
<path class="st1" d="M-212.1,400.3l-14.6-8.3c-0.8-0.5-1.9-0.8-2.9-0.9v-1c1.7-0.4,2.9-1.9,2.9-3.7c0-2.1-1.7-3.8-3.8-3.8
	c-2.1,0-3.8,1.7-3.8,3.8c0,0.5,0.4,0.9,0.9,0.9c0.5,0,0.9-0.4,0.9-0.9c0-1.1,0.9-2,2-2s2,0.9,2,2s-0.9,2-2,2c-0.5,0-0.9,0.4-0.9,0.9
	v1.8c-1.1,0.1-2.1,0.4-2.9,0.9l-14.6,8.3c-1,0.6-1.7,1.7-1.7,2.9c0,1.8,1.5,3.3,3.3,3.3h33.7c1.8,0,3.3-1.5,3.3-3.3
	C-210.4,402-211,400.9-212.1,400.3L-212.1,400.3z M-213.7,404.6h-33.7c-0.8,0-1.5-0.7-1.5-1.5c0-0.5,0.3-1,0.8-1.3l14.6-8.3
	c0.3-0.2,1.4-0.7,2.9-0.7c1.6,0,2.6,0.6,2.9,0.7l14.6,8.3c0.5,0.3,0.8,0.7,0.8,1.3C-212.2,404-212.9,404.6-213.7,404.6z"/>
</svg>
