<?xml version="1.0" encoding="utf-8"?>
<!-- Generator: Adobe Illustrator 19.1.0, SVG Export Plug-In . SVG Version: 6.00 Build 0)  -->
<svg version="1.1" id="Layer_1" xmlns="http://www.w3.org/2000/svg" xmlns:xlink="http://www.w3.org/1999/xlink" x="0px" y="0px"
	 width="75px" height="75px" viewBox="-268 359 75 75" style="enable-background:new -268 359 75 75;" xml:space="preserve">
<style type="text/css">
	.st0{fill:none;stroke:#00ABA9;stroke-width:3;stroke-miterlimit:10;}
	.st1{fill:#0CABA9;}
</style>
<g>
	<circle class="st0" cx="-230.5" cy="396.5" r="36"/>
</g>
<g>
	<g>
		<path class="st1" d="M-215.6,384.3h-28.6c-0.4,0-0.7,0.3-0.7,0.7v17.4c0,0.4,0.3,0.7,0.7,0.7h28.6c0.4,0,0.7-0.3,0.7-0.7V385
			C-214.9,384.6-215.2,384.3-215.6,384.3z M-216.3,401.7h-27.3v-16h27.3V401.7z M-241.2,391.5h8.5c0.4,0,0.7-0.3,0.7-0.7
			s-0.3-0.7-0.7-0.7h-8.5c-0.4,0-0.7,0.3-0.7,0.7S-241.5,391.5-241.2,391.5z M-241.2,397.6h6.8c0.4,0,0.7-0.3,0.7-0.7
			s-0.3-0.7-0.7-0.7h-6.8c-0.4,0-0.7,0.3-0.7,0.7S-241.5,397.6-241.2,397.6z M-241.2,394.5h3.8c0.4,0,0.7-0.3,0.7-0.7
			s-0.3-0.7-0.7-0.7h-3.8c-0.4,0-0.7,0.3-0.7,0.7S-241.5,394.5-241.2,394.5z M-233,393.2h-2c-0.4,0-0.7,0.3-0.7,0.7s0.3,0.7,0.7,0.7
			h2c0.4,0,0.7-0.3,0.7-0.7S-232.6,393.2-233,393.2z M-208.8,410.2c0.1-0.3,0.1-0.5-0.1-0.8l-1.9-3.4c0-0.1,0-0.1,0-0.2v-21.1
			c0-2.4-2-4.4-4.4-4.4h-29.3c-2.4,0-4.4,2-4.4,4.4v20.6c-0.1,0.1-0.2,0.2-0.3,0.3l-2.3,3.8c-0.2,0.3-0.2,0.5-0.1,0.8
			c0,0.1,0,0.1,0,0.2c0,2.2,1.8,3.9,3.9,3.9h35.1c2.2,0,3.9-1.8,3.9-3.9C-208.8,410.3-208.8,410.2-208.8,410.2z M-247,384.6
			c0-1.3,1.1-2.4,2.4-2.4h29.3c1.3,0,2.4,1.1,2.4,2.4v20.8H-247V384.6z M-247.9,407.1c0.2,0,0.5-0.1,0.6-0.3h4.7
			c-0.1,0-0.3,0.1-0.3,0.2l-0.3,0.8h-1.4c-0.2,0-0.3,0.2-0.3,0.3c0,0.2,0.2,0.3,0.3,0.3h1.1l-0.1,0.2c-0.1,0.2,0,0.4,0.2,0.4
			c0,0,0.1,0,0.1,0c0.1,0,0.3-0.1,0.3-0.2l0.2-0.5h7.7l-0.1,0.3c0,0.2,0.1,0.4,0.3,0.4c0,0,0,0,0.1,0c0.2,0,0.3-0.1,0.3-0.3l0.1-0.4
			h1.6v0.3c0,0.2,0.2,0.3,0.3,0.3s0.3-0.2,0.3-0.3v-0.3h1.7c0.2,0,0.3-0.2,0.3-0.3c0-0.2-0.2-0.3-0.3-0.3h-1.7v-0.7
			c0-0.2-0.2-0.3-0.3-0.3s-0.3,0.2-0.3,0.3v0.7h-1.5l0.1-0.6c0-0.2-0.1-0.4-0.3-0.4c-0.2,0-0.4,0.1-0.4,0.3l-0.1,0.7h-7.6l0.2-0.6
			c0.1-0.2,0-0.4-0.2-0.4c0,0-0.1,0-0.1,0h10.2h19.6l1.4,2.4h-4.6h-2.4h-2h-11.9h-2.4h-8.5h-5.9L-247.9,407.1z M-212.7,412.3h-35.1
			c-1,0-1.8-0.8-1.9-1.7h38.8C-210.9,411.5-211.7,412.3-212.7,412.3z M-215.6,408.7l-0.1-0.2h1.1c0.2,0,0.3-0.2,0.3-0.3
			c0-0.2-0.2-0.3-0.3-0.3h-1.4l-0.3-0.8c-0.1-0.2-0.3-0.3-0.4-0.2c-0.2,0.1-0.3,0.3-0.2,0.4l0.2,0.6h-1.5l-0.1-0.7
			c0-0.2-0.2-0.3-0.4-0.3c-0.2,0-0.3,0.2-0.3,0.4l0.1,0.6h-1.4l-0.1-0.7c0-0.2-0.2-0.3-0.4-0.3c-0.2,0-0.3,0.2-0.3,0.4l0.1,0.6h-4.6
			c-0.2,0-0.3,0.2-0.3,0.3c0,0.2,0.2,0.3,0.3,0.3h4.7l0.1,0.4c0,0.2,0.2,0.3,0.3,0.3c0,0,0,0,0.1,0c0.2,0,0.3-0.2,0.3-0.4l-0.1-0.3
			h1.4l0.1,0.4c0,0.2,0.2,0.3,0.3,0.3c0,0,0,0,0.1,0c0.2,0,0.3-0.2,0.3-0.4l-0.1-0.3h1.6l0.2,0.5c0.1,0.1,0.2,0.2,0.3,0.2
			c0,0,0.1,0,0.1,0C-215.6,409.1-215.5,408.9-215.6,408.7z M-229.3,394.5l0.7,0.1c0.4,0.1,0.7,0.3,0.9,0.7c0.2,0.4,0.1,0.8-0.1,1.1
			l-0.4,0.5c-0.1,0.1,0,0.2,0,0.3l0.9,0.9c0.1,0.1,0.2,0.1,0.3,0l0.6-0.4c0.3-0.2,0.7-0.3,1.1-0.1c0.4,0.1,0.6,0.5,0.7,0.8l0.1,0.7
			c0,0.1,0.1,0.2,0.2,0.2h1.3c0.1,0,0.2-0.1,0.2-0.2l0.1-0.5c0.1-0.4,0.3-0.7,0.7-0.9c0.4-0.2,0.8-0.1,1.1,0.1l0.4,0.3
			c0.1,0.1,0.2,0.1,0.3,0l0.9-0.9c0.1-0.1,0.1-0.2,0-0.3l-0.4-0.5c-0.2-0.3-0.3-0.7-0.1-1.1c0.2-0.4,0.5-0.6,0.9-0.7l0.7-0.1
			c0.1,0,0.2-0.1,0.2-0.2v-1.3c0-0.1-0.1-0.2-0.2-0.2l-0.7-0.1c-0.4-0.1-0.7-0.3-0.8-0.7c-0.1-0.4-0.1-0.8,0.1-1.1l0.4-0.6
			c0.1-0.1,0.1-0.2,0-0.3l-0.9-0.9c-0.1-0.1-0.2-0.1-0.3,0l-0.5,0.4c-0.3,0.2-0.7,0.3-1.1,0.1c-0.4-0.2-0.6-0.5-0.7-0.9l-0.1-0.7
			c0-0.1-0.1-0.2-0.2-0.2h-1.3c-0.1,0-0.2,0.1-0.2,0.2l-0.2,0.8c-0.1,0.4-0.3,0.7-0.7,0.8c-0.4,0.1-0.8,0.1-1.1-0.1l-0.7-0.5
			c-0.1-0.1-0.2,0-0.3,0l-0.9,0.9c-0.1,0.1-0.1,0.2,0,0.3l0.4,0.6c0.2,0.3,0.3,0.7,0.1,1.1c-0.1,0.4-0.5,0.6-0.8,0.7l-0.7,0.1
			c-0.1,0-0.2,0.1-0.2,0.2v1.3C-229.5,394.4-229.4,394.5-229.3,394.5z M-229.1,393.3l0.5-0.1c0.5-0.1,1-0.5,1.2-1
			c0.2-0.5,0.1-1.1-0.2-1.5l-0.3-0.4l0.6-0.6l0.6,0.4c0.4,0.3,1,0.3,1.5,0.1c0.5-0.2,0.8-0.6,0.9-1.1l0.1-0.7h0.9l0.1,0.5
			c0.1,0.5,0.4,1,0.9,1.2c0.5,0.2,1,0.2,1.5-0.1l0.4-0.3l0.6,0.6l-0.3,0.4c-0.3,0.4-0.4,1-0.2,1.5c0.2,0.5,0.6,0.9,1.1,1l0.5,0.1
			v0.9l-0.5,0.1c-0.5,0.1-1,0.4-1.2,0.9c-0.2,0.5-0.2,1,0.1,1.5l0.3,0.4l-0.6,0.6l-0.2-0.2c-0.4-0.3-1-0.4-1.5-0.2
			c-0.5,0.2-0.9,0.7-0.9,1.2l0,0.3h-0.9l-0.1-0.5c-0.1-0.5-0.5-1-1-1.2c-0.5-0.2-1.1-0.1-1.5,0.2l-0.4,0.3l-0.6-0.6l0.3-0.4
			c0.3-0.4,0.4-1,0.1-1.5s-0.7-0.8-1.2-0.9l-0.5-0.1V393.3z M-223.8,395.9c1.2,0,2.2-1,2.2-2.2c0-1.2-1-2.2-2.2-2.2
			c-1.2,0-2.2,1-2.2,2.2C-226,394.9-225,395.9-223.8,395.9z M-223.8,391.9c1,0,1.8,0.8,1.8,1.8c0,1-0.8,1.8-1.8,1.8
			c-1,0-1.8-0.8-1.8-1.8C-225.6,392.7-224.8,391.9-223.8,391.9z M-223.8,394.9c0.6,0,1.1-0.5,1.1-1.1c0-0.6-0.5-1.1-1.1-1.1
			c-0.6,0-1.1,0.5-1.1,1.1C-224.9,394.3-224.4,394.9-223.8,394.9z M-223.8,393c0.4,0,0.7,0.3,0.7,0.7c0,0.4-0.3,0.7-0.7,0.7
			c-0.4,0-0.7-0.3-0.7-0.7C-224.5,393.3-224.2,393-223.8,393z"/>
	</g>
</g>
</svg>
