<?xml version="1.0" encoding="utf-8"?>
<!-- Generator: Adobe Illustrator 16.0.0, SVG Export Plug-In . SVG Version: 6.00 Build 0)  -->
<!DOCTYPE svg PUBLIC "-//W3C//DTD SVG 1.1//EN" "http://www.w3.org/Graphics/SVG/1.1/DTD/svg11.dtd">
<svg version="1.1" id="Layer_1" xmlns="http://www.w3.org/2000/svg" xmlns:xlink="http://www.w3.org/1999/xlink" x="0px" y="0px"
	 width="29px" height="34px" viewBox="0 0 29 34" enable-background="new 0 0 29 34" xml:space="preserve">
<g>
	<g>
		<path d="M14.5,29.467c0.422,0,0.763-0.338,0.763-0.756V9.066c0-0.417-0.341-0.755-0.763-0.755s-0.764,0.338-0.764,0.755v19.645
			C13.736,29.129,14.078,29.467,14.5,29.467z M9.92,29.467c0.02,0,0.04-0.001,0.06-0.002c0.421-0.032,0.735-0.396,0.702-0.813
			L9.155,9.008C9.123,8.593,8.757,8.283,8.336,8.313c-0.42,0.031-0.734,0.396-0.702,0.812L9.16,28.77
			C9.191,29.166,9.525,29.467,9.92,29.467z M19.021,29.465c0.02,0.001,0.039,0.002,0.06,0.002c0.395,0,0.729-0.301,0.76-0.697
			l1.526-19.645c0.032-0.416-0.282-0.78-0.702-0.812c-0.416-0.031-0.787,0.279-0.819,0.695l-1.526,19.644
			C18.285,29.068,18.6,29.433,19.021,29.465z M28.236,3.777h-6.868V2.267c0-1.25-1.026-2.267-2.289-2.267H9.921
			C8.658,0,7.632,1.017,7.632,2.267v1.511H0.763C0.342,3.777,0,4.116,0,4.533s0.342,0.756,0.763,0.756h0.839l2.765,26.006
			C4.531,32.837,5.837,34,7.403,34h14.193c1.566,0,2.872-1.163,3.036-2.705l2.765-26.006h0.839C28.658,5.289,29,4.951,29,4.533
			S28.658,3.777,28.236,3.777z M9.158,2.267c0-0.417,0.342-0.756,0.763-0.756h9.158c0.421,0,0.763,0.339,0.763,0.756v1.511H9.158
			V2.267z M23.114,31.137c-0.082,0.771-0.734,1.352-1.518,1.352H7.403c-0.783,0-1.436-0.581-1.518-1.352L3.138,5.289h22.725
			L23.114,31.137z"/>
	</g>
</g>
</svg>
