<?xml version="1.0" encoding="utf-8"?>
<!-- Generator: Adobe Illustrator 16.0.0, SVG Export Plug-In . SVG Version: 6.00 Build 0)  -->
<!DOCTYPE svg PUBLIC "-//W3C//DTD SVG 1.1//EN" "http://www.w3.org/Graphics/SVG/1.1/DTD/svg11.dtd">
<svg version="1.1" id="Layer_1" xmlns="http://www.w3.org/2000/svg" xmlns:xlink="http://www.w3.org/1999/xlink" x="0px" y="0px"
	 width="13px" height="35.045px" viewBox="0 0 13 35.045" enable-background="new 0 0 13 35.045" xml:space="preserve">
<g>
	<g>
		<path fill="#FE980F" d="M13,26.869c0-0.347-0.134-0.683-0.367-0.921l-5.318-5.451c-0.441-0.452-1.188-0.452-1.629,0l-5.319,5.451
			C0.134,26.187,0,26.522,0,26.869v7.222c0,0.146,0.036,0.281,0.091,0.406l-0.005,0.005l0.026,0.027
			c0.083,0.17,0.21,0.307,0.368,0.396l0.024,0.025l0.004-0.005c0.116,0.06,0.241,0.099,0.377,0.099h11.227
			c0.324,0,0.596-0.197,0.751-0.478l0.057-0.057l-0.013-0.015C12.964,34.372,13,34.237,13,34.091V26.869z M0.774,26.408l5.317-5.45
			c0.111-0.113,0.256-0.176,0.408-0.176s0.297,0.063,0.407,0.176l5.318,5.45c0.116,0.12,0.184,0.288,0.184,0.461v0.404l-3.108,3.04
			l-0.045-0.052c-0.168-0.193-0.404-0.305-0.65-0.305H4.677c-0.207,0-0.396,0.088-0.553,0.226l-3.533-2.926v-0.388
			C0.591,26.696,0.658,26.528,0.774,26.408z M0.591,28.06l3.098,2.565l-3.098,3.334V28.06z M4.467,30.687
			c0.057-0.06,0.131-0.093,0.21-0.093h3.929c0.082,0,0.161,0.037,0.217,0.102l3.205,3.714H1.008L4.467,30.687z M9.703,30.78
			l2.706-2.647v5.784L9.703,30.78z"/>
	</g>
</g>
<g>
	<g>
		<path fill="#FE980F" d="M12.546,0.139l-0.045-0.051L12.49,0.099C12.375,0.039,12.25,0,12.113,0H0.887
			C0.75,0,0.625,0.039,0.509,0.099l-0.01-0.011L0.454,0.139C0.188,0.303,0,0.6,0,0.954v9.221c0,0.342,0.177,0.628,0.428,0.797
			l0.064,0.077l0.019-0.018c0.115,0.059,0.24,0.098,0.376,0.098h11.227c0.136,0,0.261-0.039,0.376-0.098l0.019,0.018l0.063-0.077
			C12.823,10.803,13,10.517,13,10.175V0.954C13,0.6,12.813,0.303,12.546,0.139z M7.846,5.737l4.563-4.677v9.043L7.846,5.737z
			 M11.967,0.636L6.907,5.82c-0.229,0.234-0.587,0.234-0.815,0L1.034,0.636H11.967z M0.591,10.104V1.06l4.564,4.677L0.591,10.104z
			 M1.073,10.493l4.511-4.316l0.102,0.104C5.914,6.516,6.207,6.633,6.5,6.633s0.586-0.117,0.814-0.352l0.102-0.104l4.511,4.316
			H1.073z"/>
	</g>
</g>
</svg>
