<?xml version="1.0" encoding="utf-8"?>
<!-- Generator: Adobe Illustrator 16.0.0, SVG Export Plug-In . SVG Version: 6.00 Build 0)  -->
<!DOCTYPE svg PUBLIC "-//W3C//DTD SVG 1.1//EN" "http://www.w3.org/Graphics/SVG/1.1/DTD/svg11.dtd">
<svg version="1.1" id="Layer_1" xmlns="http://www.w3.org/2000/svg" xmlns:xlink="http://www.w3.org/1999/xlink" x="0px" y="0px"
	 width="21px" height="66.25px" viewBox="0 0 21 66.25" enable-background="new 0 0 21 66.25" xml:space="preserve">
<path fill="#FFFFFF" d="M0,66.25l21-8.5l-21-9.5v7.389l15.714,2.111L0,58.861V66.25z"/>
<path fill="#CFDAE2" d="M5.5,21C2.467,21,0,18.523,0,15.479V6.005h1.294v9.475c0,2.328,1.887,4.222,4.206,4.222
	s4.206-1.894,4.206-4.222V4.005c0-1.492-1.21-2.706-2.696-2.706S4.313,2.513,4.313,4.005v8.475c0,0.656,0.532,1.19,1.187,1.19
	s1.187-0.534,1.187-1.19V8.005H7.98v4.475c0,1.373-1.113,2.489-2.48,2.489c-1.368,0-2.48-1.116-2.48-2.489V4.005
	C3.02,1.797,4.81,0,7.01,0S11,1.797,11,4.005v11.475C11,18.523,8.533,21,5.5,21z"/>
</svg>
